<?xml version="1.0" encoding="us-ascii" standalone="no"?><svg xmlns="http://www.w3.org/2000/svg" xmlns:xlink="http://www.w3.org/1999/xlink" contentStyleType="text/css" height="532px" preserveAspectRatio="none" style="width:1590px;height:532px;background:#FFFFFF;" version="1.1" viewBox="0 0 1590 532" width="1590px" zoomAndPan="magnify"><defs/><g><text fill="#000000" font-family="sans-serif" font-size="14" font-weight="bold" lengthAdjust="spacing" textLength="137" x="663.2813" y="25.5332">AeroTrack Analytics</text><text fill="#000000" font-family="sans-serif" font-size="14" font-weight="bold" lengthAdjust="spacing" textLength="108.4375" x="804.2813" y="25.5332">&#8212; Nivel T&#225;ctico</text><text fill="#000000" font-family="sans-serif" font-size="14" font-weight="bold" lengthAdjust="spacing" textLength="202" x="687" y="43.1426">12 Casos de Uso &#183; 6 M&#243;dulos</text><!--cluster system--><g id="cluster_system"><rect fill="#FAFAFA" height="374" rx="2.5" ry="2.5" style="stroke:#000000;stroke-width:1.0;" width="1577" x="7" y="152.7188"/><text fill="#000000" font-family="sans-serif" font-size="9" font-weight="bold" lengthAdjust="spacing" textLength="160.2813" x="715.3594" y="165.0615">AeroTrack Analytics &#8212; Nivel T&#225;ctico</text></g><!--cluster PK_SEG--><g id="cluster_PK_SEG"><rect fill="#FAFAFA" height="127" rx="2.5" ry="2.5" style="stroke:#000000;stroke-width:1.0;" width="340" x="39" y="200.7188"/><text fill="#000000" font-family="sans-serif" font-size="9" font-weight="bold" lengthAdjust="spacing" textLength="47" x="185.5" y="213.0615">Seguridad</text></g><!--cluster PK_PEL--><g id="cluster_PK_PEL"><rect fill="#FAFAFA" height="127" rx="2.5" ry="2.5" style="stroke:#000000;stroke-width:1.0;" width="220" x="419" y="200.7188"/><text fill="#000000" font-family="sans-serif" font-size="9" font-weight="bold" lengthAdjust="spacing" textLength="57" x="500.5" y="213.0615">Pipeline ELT</text></g><!--cluster PK_CFG--><g id="cluster_PK_CFG"><rect fill="#FAFAFA" height="127" rx="2.5" ry="2.5" style="stroke:#000000;stroke-width:1.0;" width="873" x="679" y="200.7188"/><text fill="#000000" font-family="sans-serif" font-size="9" font-weight="bold" lengthAdjust="spacing" textLength="66" x="1082.5" y="213.0615">Configuraci&#243;n</text></g><!--cluster PK_IA--><g id="cluster_PK_IA"><rect fill="#FAFAFA" height="127" rx="2.5" ry="2.5" style="stroke:#000000;stroke-width:1.0;" width="230" x="276" y="367.7188"/><text fill="#000000" font-family="sans-serif" font-size="9" font-weight="bold" lengthAdjust="spacing" textLength="51" x="365.5" y="380.0615">Asistente IA</text></g><!--cluster PK_CLI--><g id="cluster_PK_CLI"><rect fill="#FAFAFA" height="127" rx="2.5" ry="2.5" style="stroke:#000000;stroke-width:1.0;" width="370" x="782" y="367.7188"/><text fill="#000000" font-family="sans-serif" font-size="9" font-weight="bold" lengthAdjust="spacing" textLength="37" x="948.5" y="380.0615">Clientes</text></g><!--cluster PK_SOC--><g id="cluster_PK_SOC"><rect fill="#FAFAFA" height="127" rx="2.5" ry="2.5" style="stroke:#000000;stroke-width:1.0;" width="360" x="1192" y="367.7188"/><text fill="#000000" font-family="sans-serif" font-size="9" font-weight="bold" lengthAdjust="spacing" textLength="48" x="1348" y="380.0615">Socios API</text></g><g id="elem_UC_S1"><ellipse cx="287.0538" cy="271.9754" fill="#FFFFFF" rx="68.0538" ry="31.2566" style="stroke:#666666;stroke-width:0.5;"/><text fill="#000000" font-family="sans-serif" font-size="9" lengthAdjust="spacing" textLength="32" x="271.0538" y="260.3377">CU-T01</text><text fill="#000000" font-family="sans-serif" font-size="9" lengthAdjust="spacing" textLength="78" x="248.0538" y="273.658">Gestionar usuarios</text><text fill="#000000" font-family="sans-serif" font-size="9" lengthAdjust="spacing" textLength="48" x="263.0538" y="286.9783">del sistema</text></g><g id="elem_UC_S2"><ellipse cx="140.968" cy="271.9754" fill="#FFFFFF" rx="69.468" ry="31.2566" style="stroke:#666666;stroke-width:0.5;"/><text fill="#000000" font-family="sans-serif" font-size="9" lengthAdjust="spacing" textLength="32" x="124.968" y="260.3377">CU-T02</text><text fill="#000000" font-family="sans-serif" font-size="9" lengthAdjust="spacing" textLength="70" x="105.968" y="273.658">Administrar roles</text><text fill="#000000" font-family="sans-serif" font-size="9" lengthAdjust="spacing" textLength="80" x="100.968" y="286.9783">y asignar permisos</text></g><g id="elem_UC_P1"><ellipse cx="533.196" cy="271.9754" fill="#FFFFFF" rx="82.196" ry="31.2566" style="stroke:#666666;stroke-width:0.5;"/><text fill="#000000" font-family="sans-serif" font-size="9" lengthAdjust="spacing" textLength="32" x="517.196" y="260.3377">CU-T06</text><text fill="#000000" font-family="sans-serif" font-size="9" lengthAdjust="spacing" textLength="98" x="484.196" y="273.658">Configurar y programar</text><text fill="#000000" font-family="sans-serif" font-size="9" lengthAdjust="spacing" textLength="88" x="489.196" y="286.9783">ejecuci&#243;n del pipeline</text></g><g id="elem_UC_C1"><ellipse cx="1126.0746" cy="271.9754" fill="#FFFFFF" rx="80.0746" ry="31.2566" style="stroke:#666666;stroke-width:0.5;"/><text fill="#000000" font-family="sans-serif" font-size="9" lengthAdjust="spacing" textLength="32" x="1110.0746" y="260.3377">CU-T03</text><text fill="#000000" font-family="sans-serif" font-size="9" lengthAdjust="spacing" textLength="95" x="1078.5746" y="273.658">Panel de configuraci&#243;n</text><text fill="#000000" font-family="sans-serif" font-size="9" lengthAdjust="spacing" textLength="44" x="1104.0746" y="286.9783">por grupos</text></g><g id="elem_UC_C2"><ellipse cx="957.8675" cy="271.9754" fill="#FFFFFF" rx="79.3675" ry="31.2566" style="stroke:#666666;stroke-width:0.5;"/><text fill="#000000" font-family="sans-serif" font-size="9" lengthAdjust="spacing" textLength="32" x="941.8675" y="260.3377">CU-T04</text><text fill="#000000" font-family="sans-serif" font-size="9" lengthAdjust="spacing" textLength="94" x="910.8675" y="273.658">Configurar par&#225;metros</text><text fill="#000000" font-family="sans-serif" font-size="9" lengthAdjust="spacing" textLength="24" x="945.8675" y="286.9783">SMTP</text></g><g id="elem_UC_C3"><ellipse cx="790.8675" cy="271.9754" fill="#FFFFFF" rx="79.3675" ry="31.2566" style="stroke:#666666;stroke-width:0.5;"/><text fill="#000000" font-family="sans-serif" font-size="9" lengthAdjust="spacing" textLength="32" x="774.8675" y="260.3377">CU-T05</text><text fill="#000000" font-family="sans-serif" font-size="9" lengthAdjust="spacing" textLength="94" x="743.8675" y="273.658">Configurar par&#225;metros</text><text fill="#000000" font-family="sans-serif" font-size="9" lengthAdjust="spacing" textLength="22" x="779.8675" y="286.9783">de IA</text></g><g id="elem_UC_C4"><ellipse cx="1455.0036" cy="271.9754" fill="#FFFFFF" rx="73.0036" ry="31.2566" style="stroke:#666666;stroke-width:0.5;"/><text fill="#000000" font-family="sans-serif" font-size="9" lengthAdjust="spacing" textLength="32" x="1439.0036" y="260.3377">CU-T07</text><text fill="#000000" font-family="sans-serif" font-size="9" lengthAdjust="spacing" textLength="85" x="1412.5036" y="273.658">Configurar umbrales</text><text fill="#000000" font-family="sans-serif" font-size="9" lengthAdjust="spacing" textLength="41" x="1434.5036" y="286.9783">de alertas</text></g><g id="elem_UC_C5"><ellipse cx="1293.8675" cy="271.9754" fill="#FFFFFF" rx="79.3675" ry="31.2566" style="stroke:#666666;stroke-width:0.5;"/><text fill="#000000" font-family="sans-serif" font-size="9" lengthAdjust="spacing" textLength="32" x="1277.8675" y="260.3377">CU-T08</text><text fill="#000000" font-family="sans-serif" font-size="9" lengthAdjust="spacing" textLength="94" x="1246.8675" y="273.658">Configurar par&#225;metros</text><text fill="#000000" font-family="sans-serif" font-size="9" lengthAdjust="spacing" textLength="46" x="1270.8675" y="286.9783">del pipeline</text></g><g id="elem_UC_I1"><ellipse cx="395.1457" cy="438.9754" fill="#FFFFFF" rx="87.1457" ry="31.2566" style="stroke:#666666;stroke-width:0.5;"/><text fill="#000000" font-family="sans-serif" font-size="9" lengthAdjust="spacing" textLength="32" x="379.1457" y="427.3377">CU-T09</text><text fill="#000000" font-family="sans-serif" font-size="9" lengthAdjust="spacing" textLength="92" x="349.1457" y="440.658">Configurar fuentes de</text><text fill="#000000" font-family="sans-serif" font-size="9" lengthAdjust="spacing" textLength="105" x="342.6457" y="453.9783">conocimiento toggleables</text></g><g id="elem_UC_L1"><ellipse cx="879.9325" cy="438.9754" fill="#FFFFFF" rx="65.9325" ry="31.2566" style="stroke:#666666;stroke-width:0.5;"/><text fill="#000000" font-family="sans-serif" font-size="9" lengthAdjust="spacing" textLength="32" x="863.9325" y="427.3377">CU-T10</text><text fill="#000000" font-family="sans-serif" font-size="9" lengthAdjust="spacing" textLength="75" x="842.4325" y="440.658">Gestionar clientes</text><text fill="#000000" font-family="sans-serif" font-size="9" lengthAdjust="spacing" textLength="37" x="861.4325" y="453.9783">aerol&#237;nea</text></g><g id="elem_UC_L2"><ellipse cx="1040.9386" cy="438.9754" fill="#FFFFFF" rx="86.4386" ry="31.2566" style="stroke:#666666;stroke-width:0.5;"/><text fill="#000000" font-family="sans-serif" font-size="9" lengthAdjust="spacing" textLength="32" x="1024.9386" y="427.3377">CU-T11</text><text fill="#000000" font-family="sans-serif" font-size="9" lengthAdjust="spacing" textLength="104" x="988.9386" y="440.658">Configurar suscripciones</text><text fill="#000000" font-family="sans-serif" font-size="9" lengthAdjust="spacing" textLength="42" x="1019.9386" y="453.9783">de reporte</text></g><g id="elem_UC_O1"><ellipse cx="1296.7965" cy="438.9754" fill="#FFFFFF" rx="72.2965" ry="31.2566" style="stroke:#666666;stroke-width:0.5;"/><text fill="#000000" font-family="sans-serif" font-size="9" lengthAdjust="spacing" textLength="32" x="1280.7965" y="427.3377">CU-T12</text><text fill="#000000" font-family="sans-serif" font-size="9" lengthAdjust="spacing" textLength="84" x="1254.7965" y="440.658">Gestionar claves de</text><text fill="#000000" font-family="sans-serif" font-size="9" lengthAdjust="spacing" textLength="48" x="1272.7965" y="453.9783">acceso API</text></g><g id="elem_UC_O2"><ellipse cx="1453.1249" cy="438.9754" fill="#FFFFFF" rx="75.1249" ry="31.2566" style="stroke:#666666;stroke-width:0.5;"/><text fill="#000000" font-family="sans-serif" font-size="9" lengthAdjust="spacing" textLength="32" x="1437.1249" y="427.3377">CU-T13</text><text fill="#000000" font-family="sans-serif" font-size="9" lengthAdjust="spacing" textLength="88" x="1409.1249" y="440.658">Configurar webhooks</text><text fill="#000000" font-family="sans-serif" font-size="9" lengthAdjust="spacing" textLength="61" x="1422.6249" y="453.9783">de notificaci&#243;n</text></g><!--entity ADMIN--><g id="elem_ADMIN"><ellipse cx="1294" cy="72.2188" fill="#F1F1F1" rx="8" ry="8" style="stroke:#181818;stroke-width:0.5;"/><path d="M1294,80.2188 L1294,107.2188 M1281,88.2188 L1307,88.2188 M1294,107.2188 L1281,122.2188 M1294,107.2188 L1307,122.2188 " fill="none" style="stroke:#181818;stroke-width:0.5;"/><text fill="#000000" font-family="sans-serif" font-size="9" font-weight="bold" lengthAdjust="spacing" textLength="64" x="1262" y="134.0615">Administrador</text></g><!--link ADMIN to UC_S1--><g id="link_ADMIN_UC_S1"><path d="M1260.78,77.7188 C1086.64,77.7188 287,77.7188 287,77.7188 C287,77.7188 287,179.4188 287,234.5388 " fill="none" id="ADMIN-to-UC_S1" style="stroke:#000000;stroke-width:0.5;"/><polygon fill="#000000" points="287,240.5388,291,231.5388,287,235.5388,283,231.5388,287,240.5388" style="stroke:#000000;stroke-width:0.5;"/></g><!--link ADMIN to UC_S2--><g id="link_ADMIN_UC_S2"><path d="M1260.74,70.7188 C1071.69,70.7188 141,70.7188 141,70.7188 C141,70.7188 141,177.4688 141,234.2888 " fill="none" id="ADMIN-to-UC_S2" style="stroke:#000000;stroke-width:0.5;"/><polygon fill="#000000" points="141,240.2888,145,231.2888,141,235.2888,137,231.2888,141,240.2888" style="stroke:#000000;stroke-width:0.5;"/></g><!--link ADMIN to UC_P1--><g id="link_ADMIN_UC_P1"><path d="M1260.81,90.7188 C1114.34,90.7188 533,90.7188 533,90.7188 C533,90.7188 533,182.5988 533,234.6088 " fill="none" id="ADMIN-to-UC_P1" style="stroke:#000000;stroke-width:0.5;"/><polygon fill="#000000" points="533,240.6088,537,231.6088,533,235.6088,529,231.6088,533,240.6088" style="stroke:#000000;stroke-width:0.5;"/></g><!--link ADMIN to UC_C1--><g id="link_ADMIN_UC_C1"><path d="M1260.81,123.7188 C1211.85,123.7188 1126,123.7188 1126,123.7188 C1126,123.7188 1126,190.7288 1126,234.3588 " fill="none" id="ADMIN-to-UC_C1" style="stroke:#000000;stroke-width:0.5;"/><polygon fill="#000000" points="1126,240.3588,1130,231.3588,1126,235.3588,1122,231.3588,1126,240.3588" style="stroke:#000000;stroke-width:0.5;"/></g><!--link ADMIN to UC_C2--><g id="link_ADMIN_UC_C2"><path d="M1260.86,110.7188 C1176.1,110.7188 958,110.7188 958,110.7188 C958,110.7188 958,187.6988 958,234.6988 " fill="none" id="ADMIN-to-UC_C2" style="stroke:#000000;stroke-width:0.5;"/><polygon fill="#000000" points="958,240.6988,962,231.6988,958,235.6988,954,231.6988,958,240.6988" style="stroke:#000000;stroke-width:0.5;"/></g><!--link ADMIN to UC_C3--><g id="link_ADMIN_UC_C3"><path d="M1261,97.7188 C1149.09,97.7188 791,97.7188 791,97.7188 C791,97.7188 791,184.3288 791,234.6187 " fill="none" id="ADMIN-to-UC_C3" style="stroke:#000000;stroke-width:0.5;"/><polygon fill="#000000" points="791,240.6187,795,231.6187,791,235.6187,787,231.6187,791,240.6187" style="stroke:#000000;stroke-width:0.5;"/></g><!--link ADMIN to UC_C4--><g id="link_ADMIN_UC_C4"><path d="M1327.36,112.7188 C1374.52,112.7188 1455,112.7188 1455,112.7188 C1455,112.7188 1455,188.2188 1455,234.7088 " fill="none" id="ADMIN-to-UC_C4" style="stroke:#000000;stroke-width:0.5;"/><polygon fill="#000000" points="1455,240.7088,1459,231.7088,1455,235.7088,1451,231.7088,1455,240.7088" style="stroke:#000000;stroke-width:0.5;"/></g><!--link ADMIN to UC_C5--><g id="link_ADMIN_UC_C5"><path d="M1294,137.1187 C1294,167.9188 1294,205.3488 1294,234.5788 " fill="none" id="ADMIN-to-UC_C5" style="stroke:#000000;stroke-width:0.5;"/><polygon fill="#000000" points="1294,240.5788,1298,231.5788,1294,235.5788,1290,231.5788,1294,240.5788" style="stroke:#000000;stroke-width:0.5;"/></g><!--link ADMIN to UC_I1--><g id="link_ADMIN_UC_I1"><path d="M1260.76,83.7188 C1103.25,83.7188 439.5,83.7188 439.5,83.7188 C439.5,83.7188 439.5,322.6688 439.5,405.9088 " fill="none" id="ADMIN-to-UC_I1" style="stroke:#000000;stroke-width:0.5;"/><polygon fill="#000000" points="439.5,411.9088,443.5,402.9088,439.5,406.9088,435.5,402.9088,439.5,411.9088" style="stroke:#000000;stroke-width:0.5;"/></g><!--link ADMIN to UC_L1--><g id="link_ADMIN_UC_L1"><path d="M1260.73,103.7188 C1161.51,103.7188 874.5,103.7188 874.5,103.7188 C874.5,103.7188 874.5,318.1387 874.5,401.6588 " fill="none" id="ADMIN-to-UC_L1" style="stroke:#000000;stroke-width:0.5;"/><polygon fill="#000000" points="874.5,407.6588,878.5,398.6588,874.5,402.6588,870.5,398.6588,874.5,407.6588" style="stroke:#000000;stroke-width:0.5;"/></g><!--link ADMIN to UC_L2--><g id="link_ADMIN_UC_L2"><path d="M1260.76,117.7188 C1192.27,117.7188 1041.75,117.7188 1041.75,117.7188 C1041.75,117.7188 1041.75,320.3988 1041.75,401.5087 " fill="none" id="ADMIN-to-UC_L2" style="stroke:#000000;stroke-width:0.5;"/><polygon fill="#000000" points="1041.75,407.5087,1045.75,398.5087,1041.75,402.5087,1037.75,398.5087,1041.75,407.5087" style="stroke:#000000;stroke-width:0.5;"/></g><!--link ADMIN to UC_O1--><g id="link_ADMIN_UC_O1"><path d="M1260.9,130.7188 C1237.49,130.7188 1210.25,130.7188 1210.25,130.7188 C1210.25,130.7188 1210.25,423.7188 1210.25,423.7188 C1210.25,423.7188 1214.27,423.7188 1227.5,423.7188 " fill="none" id="ADMIN-to-UC_O1" style="stroke:#000000;stroke-width:0.5;"/><polygon fill="#000000" points="1233.5,423.7188,1224.5,419.7188,1228.5,423.7188,1224.5,427.7188,1233.5,423.7188" style="stroke:#000000;stroke-width:0.5;"/></g><!--link ADMIN to UC_O2--><g id="link_ADMIN_UC_O2"><path d="M1327.2,88.7188 C1395.63,88.7188 1546,88.7188 1546,88.7188 C1546,88.7188 1546,439.7188 1546,439.7188 C1546,439.7188 1544.64,439.7188 1534.07,439.7188 " fill="none" id="ADMIN-to-UC_O2" style="stroke:#000000;stroke-width:0.5;"/><polygon fill="#000000" points="1528.07,439.7188,1537.07,443.7188,1533.07,439.7188,1537.07,435.7188,1528.07,439.7188" style="stroke:#000000;stroke-width:0.5;"/></g><!--link PK_SEG to PK_IA--><!--link PK_PEL to PK_CLI--><!--link PK_CFG to PK_SOC--><!--SRC=[hLPTZjis47xNAGQRXmKMs69bxswJ0YsWLRo1KUzQY6IqGLK4j4JBh2LI8AbitI903z4Bv01zoaFVwvlq91t9igmVfYtWq81jQkORVfoPR-np-Fg4PPs3GwK898asu72IRZMB5Fpzs-_moDxH58BTXmWV2NIqH-0k5Fpr9zn2jliO5wceTYCWaHQIAlGvYOkbHGvQm59eBJA8cQHujk2MfJQCvqII378aIXBgwsrAeRGJdgHqw7277uaK1OzTaGe9twsPDha96LEvTtashjRGwLvmxRDVADXNdp1MR9OYZLlsGj68g2Fu-T3sNoGFRcsIjzLgELN9DrCycam4YPJYQH_rBaKcVLEmPj66KwNWwekRbZ6cArAakenhHhSSAaulMZQr9h5uOZo15KbL-x9DCTlNxOS-ElLIz-pUALyjrvHnghSv1I7rMhGCNCHKqRnJ44duflyi9t5S4hM7HVTgqtXuwu3-h9sK9JoZN4E4RrHYPpED1RYuC8Zjui8Wjv2NQYCA5HPJM2Ynbzr3BJlhLAcXxDrW_dhYdwpPgiVWp8apnfdI4iihpu0eS5u-J1y_0r7_ZHzC7k1kldXywRn-SpBXfeMGzFyQVTLjr5Pfci6lbWLm3fUuu9wb1EpgEpwiEmFEV9eKaiKahd3Ujs_zoIl40QvQpt3cBYw3AplahwWg1noHQ2g8P4A5FCQZ5IjF8rM4XVlMjmtmKSYFIPSWHKeHlKK8DXy-oAdC63PG4sI4GTvRRQeUosaf4vZCWWDRRp8pihqDkIluYk7bCFWMSYaIR7iYGqv_eb4HiTr73YNvl8vwEDYp1mStaIhKuMZttfoeSSWzmZ4oIY7g84EUO_CbiiYFztHDoRhki4V1xZvaLCiot_v3u3NOaG5xysai4few3NXi07_P0HVPKfAgJeZ4BrAJ8-zh0_pvlvqzJBLxSqXrkqT7WnvrgWR3qNIWZzcVEiRal-WmM1KbgXnA8STIY8Xb39y8_DbEK59aYPSxa9aQwfwo2jzKV3Or7MfVjQKHrQ2G4zHhklk3qqOPCqEnRRj3MHKgaYoFC5YTU4cnQtIJjDbG63vU34UluqqR4SzT8zDHbobvLoU7H175gNs8WCVCJLJ77QfFTBaMOhDdoOLcAnQr9586sNDz_ndcgZj_d7m_nJU_cdcT0NxoaAs6FxRTD_Nuwkv7tRtNixlzVSyVXTRTN_VsDztzj1Tlrj_tuizxTapwwUcUaQqez5UmGaMU_a-v_bcv_67DufZo7_4_5R_SgzYgX_ZGXcgpwZ4xD6A3M_y0]--></g></svg>