<?xml version="1.0" encoding="us-ascii" standalone="no"?><svg xmlns="http://www.w3.org/2000/svg" xmlns:xlink="http://www.w3.org/1999/xlink" contentStyleType="text/css" height="1052px" preserveAspectRatio="none" style="width:1026px;height:1052px;background:#FFFFFF;" version="1.1" viewBox="0 0 1026 1052" width="1026px" zoomAndPan="magnify"><defs/><g><text fill="#000000" font-family="sans-serif" font-size="14" font-weight="bold" lengthAdjust="spacing" textLength="137" x="347.7813" y="27.5332">AeroTrack Analytics</text><text fill="#000000" font-family="sans-serif" font-size="14" font-weight="bold" lengthAdjust="spacing" textLength="175.4375" x="488.7813" y="27.5332">&#8212; Diagrama de Paquetes</text><!--cluster SEG--><g id="cluster_SEG"><rect fill="#FFFFFF" height="127" rx="2.5" ry="2.5" style="stroke:#333333;stroke-width:1.0;" width="170" x="348" y="51.6094"/><text fill="#000000" font-family="sans-serif" font-size="9" font-weight="bold" lengthAdjust="spacing" textLength="47" x="409.5" y="65.9521">Seguridad</text></g><!--cluster PEL--><g id="cluster_PEL"><rect fill="#FFFFFF" height="138" rx="2.5" ry="2.5" style="stroke:#333333;stroke-width:1.0;" width="162" x="348" y="218.6094"/><text fill="#000000" font-family="sans-serif" font-size="9" font-weight="bold" lengthAdjust="spacing" textLength="57" x="400.5" y="232.9521">Pipeline ELT</text></g><!--cluster MOD--><g id="cluster_MOD"><rect fill="#FFFFFF" height="138" rx="2.5" ry="2.5" style="stroke:#333333;stroke-width:1.0;" width="158" x="348" y="396.6094"/><text fill="#000000" font-family="sans-serif" font-size="9" font-weight="bold" lengthAdjust="spacing" textLength="93" x="380.5" y="410.9521">Modelo Dimensional</text></g><!--cluster CFG--><g id="cluster_CFG"><rect fill="#FFFFFF" height="138" rx="2.5" ry="2.5" style="stroke:#333333;stroke-width:1.0;" width="144" x="546" y="396.6094"/><text fill="#000000" font-family="sans-serif" font-size="9" font-weight="bold" lengthAdjust="spacing" textLength="66" x="585" y="410.9521">Configuraci&#243;n</text></g><!--cluster DSH--><g id="cluster_DSH"><rect fill="#FFFFFF" height="127" rx="2.5" ry="2.5" style="stroke:#333333;stroke-width:1.0;" width="156" x="416" y="574.6094"/><text fill="#000000" font-family="sans-serif" font-size="9" font-weight="bold" lengthAdjust="spacing" textLength="50" x="469" y="588.9521">Dashboard</text></g><!--cluster PUN--><g id="cluster_PUN"><rect fill="#FFFFFF" height="127" rx="2.5" ry="2.5" style="stroke:#333333;stroke-width:1.0;" width="160" x="642" y="574.6094"/><text fill="#000000" font-family="sans-serif" font-size="9" font-weight="bold" lengthAdjust="spacing" textLength="55" x="694.5" y="588.9521">Puntualidad</text></g><!--cluster RUT--><g id="cluster_RUT"><rect fill="#FFFFFF" height="127" rx="2.5" ry="2.5" style="stroke:#333333;stroke-width:1.0;" width="144" x="12" y="574.6094"/><text fill="#000000" font-family="sans-serif" font-size="9" font-weight="bold" lengthAdjust="spacing" textLength="26" x="71" y="588.9521">Rutas</text></g><!--cluster CAN--><g id="cluster_CAN"><rect fill="#FFFFFF" height="127" rx="2.5" ry="2.5" style="stroke:#333333;stroke-width:1.0;" width="150" x="196" y="574.6094"/><text fill="#000000" font-family="sans-serif" font-size="9" font-weight="bold" lengthAdjust="spacing" textLength="66" x="238" y="588.9521">Cancelaciones</text></g><!--cluster REP--><g id="cluster_REP"><rect fill="#FFFFFF" height="127" rx="2.5" ry="2.5" style="stroke:#333333;stroke-width:1.0;" width="154" x="575" y="747.1094"/><text fill="#000000" font-family="sans-serif" font-size="9" font-weight="bold" lengthAdjust="spacing" textLength="41" x="631.5" y="761.4521">Reportes</text></g><!--cluster AUD--><g id="cluster_AUD"><rect fill="#FFFFFF" height="127" rx="2.5" ry="2.5" style="stroke:#333333;stroke-width:1.0;" width="162" x="858" y="224.1094"/><text fill="#000000" font-family="sans-serif" font-size="9" font-weight="bold" lengthAdjust="spacing" textLength="41" x="918.5" y="238.4521">Auditor&#237;a</text></g><!--cluster PRE--><g id="cluster_PRE"><rect fill="#FFFFFF" height="138" rx="2.5" ry="2.5" style="stroke:#333333;stroke-width:1.0;" width="162" x="373" y="741.6094"/><text fill="#000000" font-family="sans-serif" font-size="9" font-weight="bold" lengthAdjust="spacing" textLength="46" x="431" y="755.9521">Predictivo</text></g><!--cluster IA--><g id="cluster_IA"><rect fill="#FFFFFF" height="127" rx="2.5" ry="2.5" style="stroke:#333333;stroke-width:1.0;" width="148" x="842" y="574.6094"/><text fill="#000000" font-family="sans-serif" font-size="9" font-weight="bold" lengthAdjust="spacing" textLength="51" x="890.5" y="588.9521">Asistente IA</text></g><!--cluster CLI--><g id="cluster_CLI"><rect fill="#FFFFFF" height="127" rx="2.5" ry="2.5" style="stroke:#333333;stroke-width:1.0;" width="160" x="474" y="919.6094"/><text fill="#000000" font-family="sans-serif" font-size="9" font-weight="bold" lengthAdjust="spacing" textLength="37" x="535.5" y="933.9521">Clientes</text></g><!--cluster SOC--><g id="cluster_SOC"><rect fill="#FFFFFF" height="127" rx="2.5" ry="2.5" style="stroke:#333333;stroke-width:1.0;" width="146" x="802" y="402.1094"/><text fill="#000000" font-family="sans-serif" font-size="9" font-weight="bold" lengthAdjust="spacing" textLength="48" x="851" y="416.4521">Socios API</text></g><!--entity C_SEG--><g id="elem_C_SEG"><rect fill="#F1F1F1" height="58.6406" rx="2.5" ry="2.5" style="stroke:#181818;stroke-width:0.5;" width="113" x="380.5" y="95.6094"/><rect fill="#F1F1F1" height="10" style="stroke:#181818;stroke-width:0.5;" width="15" x="473.5" y="100.6094"/><rect fill="#F1F1F1" height="2" style="stroke:#181818;stroke-width:0.5;" width="4" x="471.5" y="102.6094"/><rect fill="#F1F1F1" height="2" style="stroke:#181818;stroke-width:0.5;" width="4" x="471.5" y="106.6094"/><text fill="#000000" font-family="sans-serif" font-size="9" lengthAdjust="spacing" textLength="54" x="398.5" y="127.9521">RBAC &#183; JWT</text><text fill="#000000" font-family="sans-serif" font-size="9" lengthAdjust="spacing" textLength="67" x="398.5" y="139.2725">Auth &#183; Permisos</text></g><!--entity C_PEL--><g id="elem_C_PEL"><rect fill="#F1F1F1" height="69.9609" rx="2.5" ry="2.5" style="stroke:#181818;stroke-width:0.5;" width="105" x="380.5" y="262.6094"/><rect fill="#F1F1F1" height="10" style="stroke:#181818;stroke-width:0.5;" width="15" x="465.5" y="267.6094"/><rect fill="#F1F1F1" height="2" style="stroke:#181818;stroke-width:0.5;" width="4" x="463.5" y="269.6094"/><rect fill="#F1F1F1" height="2" style="stroke:#181818;stroke-width:0.5;" width="4" x="463.5" y="273.6094"/><text fill="#000000" font-family="sans-serif" font-size="9" lengthAdjust="spacing" textLength="51" x="398.5" y="294.9521">Airflow DAG</text><text fill="#000000" font-family="sans-serif" font-size="9" lengthAdjust="spacing" textLength="59" x="398.5" y="306.2725">Extract &#183; Load</text><text fill="#000000" font-family="sans-serif" font-size="9" lengthAdjust="spacing" textLength="43" x="398.5" y="317.5928">Transform</text></g><!--entity C_MOD--><g id="elem_C_MOD"><rect fill="#F1F1F1" height="69.9609" rx="2.5" ry="2.5" style="stroke:#181818;stroke-width:0.5;" width="102" x="380" y="440.6094"/><rect fill="#F1F1F1" height="10" style="stroke:#181818;stroke-width:0.5;" width="15" x="462" y="445.6094"/><rect fill="#F1F1F1" height="2" style="stroke:#181818;stroke-width:0.5;" width="4" x="460" y="447.6094"/><rect fill="#F1F1F1" height="2" style="stroke:#181818;stroke-width:0.5;" width="4" x="460" y="451.6094"/><text fill="#000000" font-family="sans-serif" font-size="9" lengthAdjust="spacing" textLength="30" x="398" y="472.9521">Kimball</text><text fill="#000000" font-family="sans-serif" font-size="9" lengthAdjust="spacing" textLength="56" x="398" y="484.2725">fact + 11 dim</text><text fill="#000000" font-family="sans-serif" font-size="9" lengthAdjust="spacing" textLength="36" x="398" y="495.5928">+ 10 agg</text></g><!--entity C_CFG--><g id="elem_C_CFG"><rect fill="#F1F1F1" height="69.9609" rx="2.5" ry="2.5" style="stroke:#181818;stroke-width:0.5;" width="88" x="578" y="440.6094"/><rect fill="#F1F1F1" height="10" style="stroke:#181818;stroke-width:0.5;" width="15" x="646" y="445.6094"/><rect fill="#F1F1F1" height="2" style="stroke:#181818;stroke-width:0.5;" width="4" x="644" y="447.6094"/><rect fill="#F1F1F1" height="2" style="stroke:#181818;stroke-width:0.5;" width="4" x="644" y="451.6094"/><text fill="#000000" font-family="sans-serif" font-size="9" lengthAdjust="spacing" textLength="42" x="596" y="472.9521">SMTP &#183; IA</text><text fill="#000000" font-family="sans-serif" font-size="9" lengthAdjust="spacing" textLength="32" x="596" y="484.2725">Pipeline</text><text fill="#000000" font-family="sans-serif" font-size="9" lengthAdjust="spacing" textLength="40" x="596" y="495.5928">Umbrales</text></g><!--entity C_DSH--><g id="elem_C_DSH"><rect fill="#F1F1F1" height="58.6406" rx="2.5" ry="2.5" style="stroke:#181818;stroke-width:0.5;" width="99" x="448.5" y="618.6094"/><rect fill="#F1F1F1" height="10" style="stroke:#181818;stroke-width:0.5;" width="15" x="527.5" y="623.6094"/><rect fill="#F1F1F1" height="2" style="stroke:#181818;stroke-width:0.5;" width="4" x="525.5" y="625.6094"/><rect fill="#F1F1F1" height="2" style="stroke:#181818;stroke-width:0.5;" width="4" x="525.5" y="629.6094"/><text fill="#000000" font-family="sans-serif" font-size="9" lengthAdjust="spacing" textLength="53" x="466.5" y="650.9521">KPIs &#183; Plotly</text><text fill="#000000" font-family="sans-serif" font-size="9" lengthAdjust="spacing" textLength="29" x="466.5" y="662.2725">Alertas</text></g><!--entity C_PUN--><g id="elem_C_PUN"><rect fill="#F1F1F1" height="58.6406" rx="2.5" ry="2.5" style="stroke:#181818;stroke-width:0.5;" width="103" x="674.5" y="618.6094"/><rect fill="#F1F1F1" height="10" style="stroke:#181818;stroke-width:0.5;" width="15" x="757.5" y="623.6094"/><rect fill="#F1F1F1" height="2" style="stroke:#181818;stroke-width:0.5;" width="4" x="755.5" y="625.6094"/><rect fill="#F1F1F1" height="2" style="stroke:#181818;stroke-width:0.5;" width="4" x="755.5" y="629.6094"/><text fill="#000000" font-family="sans-serif" font-size="9" lengthAdjust="spacing" textLength="57" x="692.5" y="650.9521">OTP Analysis</text><text fill="#000000" font-family="sans-serif" font-size="9" lengthAdjust="spacing" textLength="47" x="692.5" y="662.2725">Tendencias</text></g><!--entity C_RUT--><g id="elem_C_RUT"><rect fill="#F1F1F1" height="58.6406" rx="2.5" ry="2.5" style="stroke:#181818;stroke-width:0.5;" width="87" x="44.5" y="618.6094"/><rect fill="#F1F1F1" height="10" style="stroke:#181818;stroke-width:0.5;" width="15" x="111.5" y="623.6094"/><rect fill="#F1F1F1" height="2" style="stroke:#181818;stroke-width:0.5;" width="4" x="109.5" y="625.6094"/><rect fill="#F1F1F1" height="2" style="stroke:#181818;stroke-width:0.5;" width="4" x="109.5" y="629.6094"/><text fill="#000000" font-family="sans-serif" font-size="9" lengthAdjust="spacing" textLength="41" x="62.5" y="650.9521">Eficiencia</text><text fill="#000000" font-family="sans-serif" font-size="9" lengthAdjust="spacing" textLength="34" x="62.5" y="662.2725">Ranking</text></g><!--entity C_CAN--><g id="elem_C_CAN"><rect fill="#F1F1F1" height="58.6406" rx="2.5" ry="2.5" style="stroke:#181818;stroke-width:0.5;" width="94" x="228" y="618.6094"/><rect fill="#F1F1F1" height="10" style="stroke:#181818;stroke-width:0.5;" width="15" x="302" y="623.6094"/><rect fill="#F1F1F1" height="2" style="stroke:#181818;stroke-width:0.5;" width="4" x="300" y="625.6094"/><rect fill="#F1F1F1" height="2" style="stroke:#181818;stroke-width:0.5;" width="4" x="300" y="629.6094"/><text fill="#000000" font-family="sans-serif" font-size="9" lengthAdjust="spacing" textLength="48" x="246" y="650.9521">FAA Codes</text><text fill="#000000" font-family="sans-serif" font-size="9" lengthAdjust="spacing" textLength="32" x="246" y="662.2725">Sankey</text></g><!--entity C_REP--><g id="elem_C_REP"><rect fill="#F1F1F1" height="58.6406" rx="2.5" ry="2.5" style="stroke:#181818;stroke-width:0.5;" width="97" x="607.5" y="791.1094"/><rect fill="#F1F1F1" height="10" style="stroke:#181818;stroke-width:0.5;" width="15" x="684.5" y="796.1094"/><rect fill="#F1F1F1" height="2" style="stroke:#181818;stroke-width:0.5;" width="4" x="682.5" y="798.1094"/><rect fill="#F1F1F1" height="2" style="stroke:#181818;stroke-width:0.5;" width="4" x="682.5" y="802.1094"/><text fill="#000000" font-family="sans-serif" font-size="9" lengthAdjust="spacing" textLength="51" x="625.5" y="823.4521">PDF &#183; Excel</text><text fill="#000000" font-family="sans-serif" font-size="9" lengthAdjust="spacing" textLength="19" x="625.5" y="834.7725">CSV</text></g><!--entity C_AUD--><g id="elem_C_AUD"><rect fill="#F1F1F1" height="58.6406" rx="2.5" ry="2.5" style="stroke:#181818;stroke-width:0.5;" width="105" x="890.5" y="268.1094"/><rect fill="#F1F1F1" height="10" style="stroke:#181818;stroke-width:0.5;" width="15" x="975.5" y="273.1094"/><rect fill="#F1F1F1" height="2" style="stroke:#181818;stroke-width:0.5;" width="4" x="973.5" y="275.1094"/><rect fill="#F1F1F1" height="2" style="stroke:#181818;stroke-width:0.5;" width="4" x="973.5" y="279.1094"/><text fill="#000000" font-family="sans-serif" font-size="9" lengthAdjust="spacing" textLength="59" x="908.5" y="300.4521">Log Inmutable</text><text fill="#000000" font-family="sans-serif" font-size="9" lengthAdjust="spacing" textLength="49" x="908.5" y="311.7725">CSV Export</text></g><!--entity C_PRE--><g id="elem_C_PRE"><rect fill="#F1F1F1" height="69.9609" rx="2.5" ry="2.5" style="stroke:#181818;stroke-width:0.5;" width="106" x="405" y="785.6094"/><rect fill="#F1F1F1" height="10" style="stroke:#181818;stroke-width:0.5;" width="15" x="491" y="790.6094"/><rect fill="#F1F1F1" height="2" style="stroke:#181818;stroke-width:0.5;" width="4" x="489" y="792.6094"/><rect fill="#F1F1F1" height="2" style="stroke:#181818;stroke-width:0.5;" width="4" x="489" y="796.6094"/><text fill="#000000" font-family="sans-serif" font-size="9" lengthAdjust="spacing" textLength="52" x="423" y="817.9521">Holt-Winters</text><text fill="#000000" font-family="sans-serif" font-size="9" lengthAdjust="spacing" textLength="60" x="423" y="829.2725">Estacionalidad</text><text fill="#000000" font-family="sans-serif" font-size="9" lengthAdjust="spacing" textLength="28" x="423" y="840.5928">what-if</text></g><!--entity C_IA--><g id="elem_C_IA"><rect fill="#F1F1F1" height="58.6406" rx="2.5" ry="2.5" style="stroke:#181818;stroke-width:0.5;" width="92" x="874" y="618.6094"/><rect fill="#F1F1F1" height="10" style="stroke:#181818;stroke-width:0.5;" width="15" x="946" y="623.6094"/><rect fill="#F1F1F1" height="2" style="stroke:#181818;stroke-width:0.5;" width="4" x="944" y="625.6094"/><rect fill="#F1F1F1" height="2" style="stroke:#181818;stroke-width:0.5;" width="4" x="944" y="629.6094"/><text fill="#000000" font-family="sans-serif" font-size="9" lengthAdjust="spacing" textLength="46" x="892" y="650.9521">RAG &#183; LLM</text><text fill="#000000" font-family="sans-serif" font-size="9" lengthAdjust="spacing" textLength="34" x="892" y="662.2725">Fuentes</text></g><!--entity C_CLI--><g id="elem_C_CLI"><rect fill="#F1F1F1" height="58.6406" rx="2.5" ry="2.5" style="stroke:#181818;stroke-width:0.5;" width="104" x="506" y="963.6094"/><rect fill="#F1F1F1" height="10" style="stroke:#181818;stroke-width:0.5;" width="15" x="590" y="968.6094"/><rect fill="#F1F1F1" height="2" style="stroke:#181818;stroke-width:0.5;" width="4" x="588" y="970.6094"/><rect fill="#F1F1F1" height="2" style="stroke:#181818;stroke-width:0.5;" width="4" x="588" y="974.6094"/><text fill="#000000" font-family="sans-serif" font-size="9" lengthAdjust="spacing" textLength="51" x="524" y="995.9521">Cartera B2B</text><text fill="#000000" font-family="sans-serif" font-size="9" lengthAdjust="spacing" textLength="58" x="524" y="1007.2725">Suscripciones</text></g><!--entity C_SOC--><g id="elem_C_SOC"><rect fill="#F1F1F1" height="58.6406" rx="2.5" ry="2.5" style="stroke:#181818;stroke-width:0.5;" width="90" x="834" y="446.1094"/><rect fill="#F1F1F1" height="10" style="stroke:#181818;stroke-width:0.5;" width="15" x="904" y="451.1094"/><rect fill="#F1F1F1" height="2" style="stroke:#181818;stroke-width:0.5;" width="4" x="902" y="453.1094"/><rect fill="#F1F1F1" height="2" style="stroke:#181818;stroke-width:0.5;" width="4" x="902" y="457.1094"/><text fill="#000000" font-family="sans-serif" font-size="9" lengthAdjust="spacing" textLength="42" x="852" y="478.4521">REST API</text><text fill="#000000" font-family="sans-serif" font-size="9" lengthAdjust="spacing" textLength="44" x="852" y="489.7725">Webhooks</text></g><!--reverse link SEG to PEL--><g id="link_SEG_PEL"><path d="M370.8,185.0884 C370.8,195.1665 370.8,200.8594 370.8,211.6094 C370.8,212.9531 370.8,214.2969 370.8,215.6393 C370.8,216.3105 370.8,216.9814 370.8,217.6518 C370.8,217.8194 370.8,217.987 370.8,218.1545 " fill="none" id="SEG-backto-PEL" style="stroke:#000000;stroke-width:0.8;stroke-dasharray:7.0,7.0;"/><polygon fill="#000000" points="370.8,179.0884,366.8,188.0884,370.8,184.0884,374.8,188.0884,370.8,179.0884" style="stroke:#000000;stroke-width:0.8;"/></g><!--link SEG to PEL--><!--reverse link PEL to MOD--><g id="link_PEL_MOD"><path d="M341.9828,297.6094 C341.9607,297.6094 347.9055,297.6094 347.8839,297.6094 C347.1925,297.6094 346.75,297.6094 346.75,297.6094 C346.75,297.6094 346.75,476.6094 346.75,476.6094 C346.75,476.6094 346.877,476.6094 347.1013,476.6094 C347.2135,476.6094 347.3499,476.6094 347.507,476.6094 C347.5855,476.6094 347.6692,476.6094 347.7576,476.6094 C347.8018,476.6094 347.8471,476.6094 347.8936,476.6094 C347.9168,476.6094 347.9403,476.6094 347.9641,476.6094 C347.976,476.6094 347.9879,476.6094 348,476.6094 " fill="none" id="PEL-backto-MOD" style="stroke:#000000;stroke-width:0.8;stroke-dasharray:7.0,7.0;"/><polygon fill="#000000" points="347.9828,297.6094,338.9828,293.6094,342.9828,297.6094,338.9828,301.6094,347.9828,297.6094" style="stroke:#000000;stroke-width:0.8;"/></g><!--link PEL to MOD--><!--reverse link MOD to DSH--><g id="link_MOD_DSH"><path d="M361.6,541.0938 C361.6,552.1094 361.6,557.8594 361.6,569.6094 C361.6,616.6094 361.6,663.6094 361.6,663.6094 C361.6,663.6094 377.2825,663.6094 392.965,663.6094 C400.8063,663.6094 408.6475,663.6094 414.5284,663.6094 C414.896,663.6094 415.2559,663.6094 415.6077,663.6094 C415.6956,663.6094 415.783,663.6094 415.87,663.6094 " fill="none" id="MOD-backto-DSH" style="stroke:#000000;stroke-width:0.8;stroke-dasharray:7.0,7.0;"/><polygon fill="#000000" points="361.6,535.0938,357.6,544.0938,361.6,540.0938,365.6,544.0938,361.6,535.0938" style="stroke:#000000;stroke-width:0.8;"/></g><!--link MOD to DSH--><!--reverse link SEG to DSH--><g id="link_SEG_DSH"><path d="M341.9306,125.6094 C341.8645,125.6094 347.6993,125.6094 347.6331,125.6094 C347.3685,125.6094 347.1034,125.6094 346.8388,125.6094 C342.605,125.6094 338.5,125.6094 338.5,125.6094 C338.5,125.6094 338.5,648.6094 338.5,648.6094 C338.5,648.6094 359.2125,648.6094 380.2488,648.6094 C390.7669,648.6094 401.3659,648.6094 409.4973,648.6094 C411.5302,648.6094 413.4088,648.6094 415.0934,648.6094 C415.304,648.6094 415.5115,648.6094 415.7159,648.6094 " fill="none" id="SEG-backto-DSH" style="stroke:#000000;stroke-width:0.8;stroke-dasharray:7.0,7.0;"/><polygon fill="#000000" points="347.9306,125.6094,338.9306,121.6094,342.9306,125.6094,338.9306,129.6094,347.9306,125.6094" style="stroke:#000000;stroke-width:0.8;"/></g><!--reverse link CFG to DSH--><g id="link_CFG_DSH"><path d="M554,541.0441 C554,547.3201 554,549.0531 554,555.793 C554,559.1629 554,562.5779 554,566.025 C554,567.7485 554,569.4801 554,571.2181 C554,572.0871 554,572.9577 554,573.8296 C554,574.0476 554,574.2657 554,574.4839 " fill="none" id="CFG-backto-DSH" style="stroke:#000000;stroke-width:0.8;stroke-dasharray:7.0,7.0;"/><polygon fill="#000000" points="554,535.0441,550,544.0441,554,540.0441,558,544.0441,554,535.0441" style="stroke:#000000;stroke-width:0.8;"/></g><!--reverse link MOD to PUN--><g id="link_MOD_PUN"><path d="M356,541.8357 C356,543.5692 356,540.6214 356,542.3989 C356,549.5089 356,556.956 356,564.6201 C356,579.9484 356,596.145 356,612.2494 C356,676.6669 356,739.6094 356,739.6094 C356,739.6094 650,739.6094 650,739.6094 C650,739.6094 650,734.4144 650,726.5 C650,722.5428 650,717.9058 650,712.8984 C650,710.3946 650,707.7983 650,705.1481 C650,704.4856 650,703.8196 650,703.1509 C650,702.8166 650,702.4816 650,702.1459 C650,701.9781 650,701.8101 650,701.642 " fill="none" id="MOD-backto-PUN" style="stroke:#000000;stroke-width:0.8;stroke-dasharray:7.0,7.0;"/><polygon fill="#000000" points="356,535.8357,352,544.8357,356,540.8357,360,544.8357,356,535.8357" style="stroke:#000000;stroke-width:0.8;"/></g><!--reverse link SEG to PUN--><g id="link_SEG_PUN"><path d="M366.2,185.8979 C366.2,186.8629 366.2,183.2795 366.2,184.2769 C366.2,192.2559 366.2,201.2578 366.2,211.0781 C366.2,250.3594 366.2,302.7344 366.2,355.1094 C366.2,459.8594 366.2,564.6094 366.2,564.6094 C366.2,564.6094 658.5,564.6094 658.5,564.6094 C658.5,564.6094 658.5,565.9219 658.5,568.2188 C658.5,569.3672 658.5,570.7617 658.5,572.3613 C658.5,572.7612 658.5,573.174 658.5,573.5988 C658.5,573.8113 658.5,574.0268 658.5,574.2452 C658.5,574.3545 658.5,574.4644 658.5,574.5751 " fill="none" id="SEG-backto-PUN" style="stroke:#000000;stroke-width:0.8;stroke-dasharray:7.0,7.0;"/><polygon fill="#000000" points="366.2,179.8979,362.2,188.8979,366.2,184.8979,370.2,188.8979,366.2,179.8979" style="stroke:#000000;stroke-width:0.8;"/></g><!--reverse link MOD to RUT--><g id="link_MOD_RUT"><path d="M341.9696,475.6094 C341.0489,475.6094 344.732,475.6094 343.6885,475.6094 C341.6015,475.6094 339.2736,475.6094 336.7238,475.6094 C326.5245,475.6094 312.7756,475.6094 296.6994,475.6094 C264.5469,475.6094 223.085,475.6094 182.0925,475.6094 C100.1075,475.6094 20,475.6094 20,475.6094 C20,475.6094 20,516.0819 20,557.8194 C20,563.0366 20,568.2735 20,573.4537 C20,573.7774 20,574.101 20,574.4242 " fill="none" id="MOD-backto-RUT" style="stroke:#000000;stroke-width:0.8;stroke-dasharray:7.0,7.0;"/><polygon fill="#000000" points="347.9696,475.6094,338.9696,471.6094,342.9696,475.6094,338.9696,479.6094,347.9696,475.6094" style="stroke:#000000;stroke-width:0.8;"/></g><!--reverse link SEG to RUT--><g id="link_SEG_RUT"><path d="M341.3538,114.6094 C340.893,114.6094 345.7369,114.6094 345.2449,114.6094 C344.2609,114.6094 343.2152,114.6094 342.1104,114.6094 C333.2715,114.6094 320.6445,114.6094 305.4922,114.6094 C275.1875,114.6094 234.7813,114.6094 194.375,114.6094 C113.5625,114.6094 32.75,114.6094 32.75,114.6094 C32.75,114.6094 32.75,248.1094 32.75,381.6094 C32.75,448.3594 32.75,515.1094 32.75,565.1719 C32.75,568.3008 32.75,571.3645 32.75,574.359 " fill="none" id="SEG-backto-RUT" style="stroke:#000000;stroke-width:0.8;stroke-dasharray:7.0,7.0;"/><polygon fill="#000000" points="347.3538,114.6094,338.3538,110.6094,342.3538,114.6094,338.3538,118.6094,347.3538,114.6094" style="stroke:#000000;stroke-width:0.8;"/></g><!--reverse link MOD to CAN--><g id="link_MOD_CAN"><path d="M341.7851,475.6094 C341.5002,475.6094 346.7866,475.6094 346.4895,475.6094 C341.7362,475.6094 335.433,475.6094 328.1198,475.6094 C313.4934,475.6094 294.8269,475.6094 276.4388,475.6094 C239.6625,475.6094 204,475.6094 204,475.6094 C204,475.6094 204,516.0819 204,557.8194 C204,563.0366 204,568.2735 204,573.4537 C204,573.7774 204,574.101 204,574.4242 " fill="none" id="MOD-backto-CAN" style="stroke:#000000;stroke-width:0.8;stroke-dasharray:7.0,7.0;"/><polygon fill="#000000" points="347.7851,475.6094,338.7851,471.6094,342.7851,475.6094,338.7851,479.6094,347.7851,475.6094" style="stroke:#000000;stroke-width:0.8;"/></g><!--reverse link SEG to CAN--><g id="link_SEG_CAN"><path d="M341.909,125.6094 C341.3497,125.6094 345.9459,125.6094 345.342,125.6094 C344.1341,125.6094 342.839,125.6094 341.4647,125.6094 C338.7161,125.6094 335.651,125.6094 332.3342,125.6094 C319.0672,125.6094 301.7744,125.6094 284.6138,125.6094 C250.2925,125.6094 216.5,125.6094 216.5,125.6094 C216.5,125.6094 216.5,256.3594 216.5,387.1094 C216.5,452.4844 216.5,517.8594 216.5,566.8906 C216.5,568.4229 216.5,569.9391 216.5,571.4389 C216.5,572.1888 216.5,572.9346 216.5,573.6762 " fill="none" id="SEG-backto-CAN" style="stroke:#000000;stroke-width:0.8;stroke-dasharray:7.0,7.0;"/><polygon fill="#000000" points="347.909,125.6094,338.909,121.6094,342.909,125.6094,338.909,129.6094,347.909,125.6094" style="stroke:#000000;stroke-width:0.8;"/></g><!--reverse link MOD to REP--><g id="link_MOD_REP"><path d="M363.9,540.6386 C363.9,542.5231 363.9,541.2275 363.9,543.0586 C363.9,550.3828 363.9,557.2188 363.9,563.0781 C363.9,574.7969 363.9,582.6094 363.9,582.6094 C363.9,582.6094 599.67,582.6094 599.67,582.6094 C599.67,582.6094 599.67,642.3594 599.67,702.1094 C599.67,717.0469 599.67,731.9844 599.67,745.9883 " fill="none" id="MOD-backto-REP" style="stroke:#000000;stroke-width:0.8;stroke-dasharray:7.0,7.0;"/><polygon fill="#000000" points="363.9,534.6386,359.9,543.6386,363.9,539.6386,367.9,543.6386,363.9,534.6386" style="stroke:#000000;stroke-width:0.8;"/></g><!--reverse link SEG to REP--><g id="link_SEG_REP"><path d="M368.5,184.6752 C368.5,185.034 368.5,179.6574 368.5,180.0048 C368.5,180.6997 368.5,181.3711 368.5,182.0156 C368.5,187.1719 368.5,190.6094 368.5,190.6094 C368.5,190.6094 560.75,190.6094 560.75,190.6094 C560.75,190.6094 560.75,633.6094 560.75,633.6094 C560.75,633.6094 582.67,633.6094 582.67,633.6094 C582.67,633.6094 582.67,677.4844 582.67,722.7294 C582.67,728.385 582.67,734.062 582.67,739.6775 C582.67,741.0813 582.67,742.4813 582.67,743.8762 C582.67,744.5736 582.67,745.2697 582.67,745.9644 C582.67,746.3118 582.67,746.6588 582.67,747.0054 " fill="none" id="SEG-backto-REP" style="stroke:#000000;stroke-width:0.8;stroke-dasharray:7.0,7.0;"/><polygon fill="#000000" points="368.5,178.6752,364.5,187.6752,368.5,183.6752,372.5,187.6752,368.5,178.6752" style="stroke:#000000;stroke-width:0.8;"/></g><!--reverse link DSH to REP--><g id="link_DSH_REP"><path d="M578.0302,693.6094 C578.0953,693.6094 572.25,693.6094 572.25,693.6094 C572.25,693.6094 572.25,820.6094 572.25,820.6094 C572.25,820.6094 572.7644,820.6094 573.5681,820.6094 C573.97,820.6094 574.4442,820.6094 574.9627,820.6094 " fill="none" id="DSH-backto-REP" style="stroke:#000000;stroke-width:0.8;stroke-dasharray:7.0,7.0;"/><polygon fill="#000000" points="572.0302,693.6094,581.0302,697.6094,577.0302,693.6094,581.0302,689.6094,572.0302,693.6094" style="stroke:#000000;stroke-width:0.8;"/></g><!--reverse link PUN to REP--><g id="link_PUN_REP"><path d="M635.7771,648.6094 C635.5992,648.6094 641.1541,648.6094 640.972,648.6094 C640.2435,648.6094 639.481,648.6094 638.6884,648.6094 C632.3481,648.6094 624.0838,648.6094 615.8825,648.6094 C599.48,648.6094 583.33,648.6094 583.33,648.6094 C583.33,648.6094 583.33,688.9644 583.33,730.5806 C583.33,735.7827 583.33,741.0044 583.33,746.1695 " fill="none" id="PUN-backto-REP" style="stroke:#000000;stroke-width:0.8;stroke-dasharray:7.0,7.0;"/><polygon fill="#000000" points="641.7771,648.6094,632.7771,644.6094,636.7771,648.6094,632.7771,652.6094,641.7771,648.6094" style="stroke:#000000;stroke-width:0.8;"/></g><!--reverse link RUT to REP--><g id="link_RUT_REP"><path d="M20,708.0363 C20,708.8365 20,704.8369 20,705.6356 C20,731.1944 20,755.6094 20,755.6094 C20,755.6094 162.9575,755.6094 305.915,755.6094 C377.3938,755.6094 448.8725,755.6094 502.4816,755.6094 C529.2861,755.6094 551.6232,755.6094 567.2592,755.6094 C569.2137,755.6094 571.0635,755.6094 572.8042,755.6094 C573.2394,755.6094 573.6677,755.6094 574.0892,755.6094 " fill="none" id="RUT-backto-REP" style="stroke:#000000;stroke-width:0.8;stroke-dasharray:7.0,7.0;"/><polygon fill="#000000" points="20,702.0363,16,711.0363,20,707.0363,24,711.0363,20,702.0363" style="stroke:#000000;stroke-width:0.8;"/></g><!--reverse link CAN to REP--><g id="link_CAN_REP"><path d="M204,708.0529 C204,711.6826 204,710.0238 204,713.6644 C204,742.7894 204,770.6094 204,770.6094 C204,770.6094 529.25,770.6094 529.25,770.6094 C529.25,770.6094 529.25,821.6094 529.25,821.6094 C529.25,821.6094 541.86,821.6094 554.865,821.6094 C561.3675,821.6094 567.9688,821.6094 573.1419,821.6094 C573.4652,821.6094 573.7829,821.6094 574.0947,821.6094 C574.2506,821.6094 574.405,821.6094 574.5579,821.6094 C574.6343,821.6094 574.7104,821.6094 574.7861,821.6094 " fill="none" id="CAN-backto-REP" style="stroke:#000000;stroke-width:0.8;stroke-dasharray:7.0,7.0;"/><polygon fill="#000000" points="204,702.0529,200,711.0529,204,707.0529,208,711.0529,204,702.0529" style="stroke:#000000;stroke-width:0.8;"/></g><!--reverse link SEG to AUD--><g id="link_SEG_AUD"><path d="M525.8354,77.6094 C527.72,77.6094 526.4333,77.6094 528.332,77.6094 C532.1294,77.6094 535.9541,77.6094 539.8022,77.6094 C547.4984,77.6094 555.288,77.6094 563.1399,77.6094 C578.8438,77.6094 594.7969,77.6094 610.75,77.6094 C738.375,77.6094 866,77.6094 866,77.6094 C866,77.6094 866,129.2244 866,182.4531 C866,195.7603 866,209.1684 866,221.896 C866,222.2937 866,222.6908 866,223.0872 " fill="none" id="SEG-backto-AUD" style="stroke:#000000;stroke-width:0.8;stroke-dasharray:7.0,7.0;"/><polygon fill="#000000" points="519.8354,77.6094,528.8354,81.6094,524.8354,77.6094,528.8354,73.6094,519.8354,77.6094" style="stroke:#000000;stroke-width:0.8;"/></g><!--reverse link MOD to PRE--><g id="link_MOD_PRE"><path d="M359.3,541.1339 C359.3,543.237 359.3,540.9494 359.3,543.1288 C359.3,547.4877 359.3,551.9939 359.3,556.6265 C359.3,565.8916 359.3,575.6621 359.3,585.7695 C359.3,605.9844 359.3,627.5469 359.3,649.1094 C359.3,735.3594 359.3,821.6094 359.3,821.6094 C359.3,821.6094 364.39,821.6094 369.64,821.6094 C370.2963,821.6094 370.955,821.6094 371.6066,821.6094 C371.9324,821.6094 372.2565,821.6094 372.5775,821.6094 C372.6578,821.6094 372.7378,821.6094 372.8177,821.6094 C372.8576,821.6094 372.8975,821.6094 372.9374,821.6094 " fill="none" id="MOD-backto-PRE" style="stroke:#000000;stroke-width:0.8;stroke-dasharray:7.0,7.0;"/><polygon fill="#000000" points="359.3,535.1339,355.3,544.1339,359.3,540.1339,363.3,544.1339,359.3,535.1339" style="stroke:#000000;stroke-width:0.8;"/></g><!--reverse link SEG to PRE--><g id="link_SEG_PRE"><path d="M341.9702,124.6094 C341.7866,124.6094 347.3274,124.6094 347.1411,124.6094 C345.6512,124.6094 344.0816,124.6094 342.5238,124.6094 C336.2925,124.6094 330.25,124.6094 330.25,124.6094 C330.25,124.6094 330.25,820.6094 330.25,820.6094 C330.25,820.6094 341.4,820.6094 353.2475,820.6094 C359.1713,820.6094 365.2694,820.6094 370.2353,820.6094 C370.8561,820.6094 371.4591,820.6094 372.0419,820.6094 C372.3333,820.6094 372.6197,820.6094 372.9006,820.6094 " fill="none" id="SEG-backto-PRE" style="stroke:#000000;stroke-width:0.8;stroke-dasharray:7.0,7.0;"/><polygon fill="#000000" points="347.9702,124.6094,338.9702,120.6094,342.9702,124.6094,338.9702,128.6094,347.9702,124.6094" style="stroke:#000000;stroke-width:0.8;"/></g><!--reverse link MOD to IA--><g id="link_MOD_IA"><path d="M355.5,541.1288 C355.5,543.5858 355.5,543.7412 355.5,546.3033 C355.5,587.2959 355.5,641.3275 355.5,695.1506 C355.5,802.7969 355.5,909.6094 355.5,909.6094 C355.5,909.6094 850,909.6094 850,909.6094 C850,909.6094 850,847.2619 850,783.4531 C850,767.5009 850,751.4574 850,736.2739 C850,728.6822 850,721.3054 850,714.2626 C850,710.7412 850,707.3033 850,703.9637 C850,703.5462 850,703.1303 850,702.716 " fill="none" id="MOD-backto-IA" style="stroke:#000000;stroke-width:0.8;stroke-dasharray:7.0,7.0;"/><polygon fill="#000000" points="355.5,535.1288,351.5,544.1288,355.5,540.1288,359.5,544.1288,355.5,535.1288" style="stroke:#000000;stroke-width:0.8;"/></g><!--reverse link SEG to IA--><g id="link_SEG_IA"><path d="M377.7,185.0946 C377.7,187.3601 377.7,185.3672 377.7,187.7344 C377.7,225.6094 377.7,276.1094 377.7,326.6094 C377.7,427.6094 377.7,528.6094 377.7,528.6094 C377.7,528.6094 862.5,528.6094 862.5,528.6094 C862.5,528.6094 862.5,536.1094 862.5,547.3594 C862.5,552.9844 862.5,559.5469 862.5,566.5781 C862.5,568.3359 862.5,570.123 862.5,571.9321 C862.5,572.3844 862.5,572.838 862.5,573.2929 C862.5,573.5204 862.5,573.7482 862.5,573.9762 " fill="none" id="SEG-backto-IA" style="stroke:#000000;stroke-width:0.8;stroke-dasharray:7.0,7.0;"/><polygon fill="#000000" points="377.7,179.0946,373.7,188.0946,377.7,184.0946,381.7,188.0946,377.7,179.0946" style="stroke:#000000;stroke-width:0.8;"/></g><!--reverse link CFG to IA--><g id="link_CFG_IA"><path d="M566.5,540.8852 C566.5,547.5414 566.5,546.6094 566.5,546.6094 C566.5,546.6094 850,546.6094 850,546.6094 C850,546.6094 850,552.3725 850,561.1522 C850,563.3471 850,565.7306 850,568.2596 C850,569.5242 850,570.8251 850,572.1571 C850,572.8231 850,573.4969 850,574.1777 " fill="none" id="CFG-backto-IA" style="stroke:#000000;stroke-width:0.8;stroke-dasharray:7.0,7.0;"/><polygon fill="#000000" points="566.5,534.8852,562.5,543.8852,566.5,539.8852,570.5,543.8852,566.5,534.8852" style="stroke:#000000;stroke-width:0.8;"/></g><!--reverse link AUD to IA--><g id="link_AUD_IA"><path d="M851.9722,313.6094 C851.7134,313.6094 857.0655,313.6094 856.7992,313.6094 C855.7338,313.6094 854.6104,313.6094 853.4482,313.6094 C851.1238,313.6094 848.6444,313.6094 846.165,313.6094 C836.2475,313.6094 826.33,313.6094 826.33,313.6094 C826.33,313.6094 826.33,648.6094 826.33,648.6094 C826.33,648.6094 831.8825,648.6094 837.6087,648.6094 C839.0403,648.6094 840.4827,648.6094 841.852,648.6094 C841.8948,648.6094 841.9375,648.6094 841.9801,648.6094 " fill="none" id="AUD-backto-IA" style="stroke:#000000;stroke-width:0.8;stroke-dasharray:7.0,7.0;"/><polygon fill="#000000" points="857.9722,313.6094,848.9722,309.6094,852.9722,313.6094,848.9722,317.6094,857.9722,313.6094" style="stroke:#000000;stroke-width:0.8;"/></g><!--reverse link SEG to CLI--><g id="link_SEG_CLI"><path d="M373.1,186.1114 C373.1,188.0195 373.1,186.7968 373.1,188.762 C373.1,192.6923 373.1,196.7352 373.1,200.8848 C373.1,209.1841 373.1,217.9102 373.1,227.0156 C373.1,299.8594 373.1,396.9844 373.1,494.1094 C373.1,688.3594 373.1,882.6094 373.1,882.6094 C373.1,882.6094 494.5,882.6094 494.5,882.6094 C494.5,882.6094 494.5,889.5469 494.5,899.9531 C494.5,905.1563 494.5,911.2266 494.5,917.7305 C494.5,918.137 494.5,918.5452 494.5,918.9549 C494.5,919.1598 494.5,919.3651 494.5,919.5708 " fill="none" id="SEG-backto-CLI" style="stroke:#000000;stroke-width:0.8;stroke-dasharray:7.0,7.0;"/><polygon fill="#000000" points="373.1,180.1114,369.1,189.1114,373.1,185.1114,377.1,189.1114,373.1,180.1114" style="stroke:#000000;stroke-width:0.8;"/></g><!--reverse link REP to CLI--><g id="link_REP_CLI"><path d="M583,880.2692 C583,881.1314 583,876.6411 583,877.5048 C583,879.2321 583,880.9606 583,882.6844 C583,889.5794 583,896.3972 583,902.7455 C583,905.9196 583,908.9764 583,911.8667 C583,913.3119 583,914.7154 583,916.0712 C583,916.7492 583,917.4151 583,918.0684 C583,918.3951 583,918.7185 583,919.0387 C583,919.1988 583,919.3581 583,919.5165 " fill="none" id="REP-backto-CLI" style="stroke:#000000;stroke-width:0.8;stroke-dasharray:7.0,7.0;"/><polygon fill="#000000" points="583,874.2692,579,883.2692,583,879.2692,587,883.2692,583,874.2692" style="stroke:#000000;stroke-width:0.8;"/></g><!--reverse link AUD to CLI--><g id="link_AUD_CLI"><path d="M878.75,357.4342 C878.75,358.1126 878.75,353.8075 878.75,354.4783 C878.75,355.8201 878.75,357.1455 878.75,358.4492 C878.75,363.6641 878.75,368.5313 878.75,372.7031 C878.75,381.0469 878.75,386.6094 878.75,386.6094 C878.75,386.6094 818.67,386.6094 818.67,386.6094 C818.67,386.6094 818.67,1040.6094 818.67,1040.6094 C818.67,1040.6094 734.5025,1040.6094 650.335,1040.6094 C645.0745,1040.6094 639.8141,1040.6094 634.5741,1040.6094 " fill="none" id="AUD-backto-CLI" style="stroke:#000000;stroke-width:0.8;stroke-dasharray:7.0,7.0;"/><polygon fill="#000000" points="878.75,351.4342,874.75,360.4342,878.75,356.4342,882.75,360.4342,878.75,351.4342" style="stroke:#000000;stroke-width:0.8;"/></g><!--reverse link PEL to SOC--><g id="link_PEL_SOC"><path d="M517.1185,226.6094 C519.9791,226.6094 521.1323,226.6094 524.0069,226.6094 C529.7562,226.6094 535.5281,226.6094 541.3,226.6094 C633.65,226.6094 726,226.6094 726,226.6094 C726,226.6094 726,475.6094 726,475.6094 C726,475.6094 745.0775,475.6094 765.0487,475.6094 C775.0344,475.6094 785.2434,475.6094 793.403,475.6094 C795.4429,475.6094 797.3546,475.6094 799.1028,475.6094 C799.9769,475.6094 800.8101,475.6094 801.5979,475.6094 C801.6964,475.6094 801.7942,475.6094 801.8912,475.6094 " fill="none" id="PEL-backto-SOC" style="stroke:#000000;stroke-width:0.8;stroke-dasharray:7.0,7.0;"/><polygon fill="#000000" points="511.1185,226.6094,520.1185,230.6094,516.1185,226.6094,520.1185,222.6094,511.1185,226.6094" style="stroke:#000000;stroke-width:0.8;"/></g><!--reverse link SEG to SOC--><g id="link_SEG_SOC"><path d="M375.4,184.7666 C375.4,196.1734 375.4,205.1641 375.4,219.2031 C375.4,275.3594 375.4,350.2344 375.4,425.1094 C375.4,574.8594 375.4,724.6094 375.4,724.6094 C375.4,724.6094 810,724.6094 810,724.6094 C810,724.6094 810,665.2444 810,604.4869 C810,589.2975 810,574.0211 810,559.5635 C810,552.3347 810,545.3106 810,538.6044 C810,536.9278 810,535.2711 810,533.6361 C810,532.8186 810,532.0065 810,531.2 C810,530.7968 810,530.3949 810,529.9945 " fill="none" id="SEG-backto-SOC" style="stroke:#000000;stroke-width:0.8;stroke-dasharray:7.0,7.0;"/><polygon fill="#000000" points="375.4,178.7666,371.4,187.7666,375.4,183.7666,379.4,187.7666,375.4,178.7666" style="stroke:#000000;stroke-width:0.8;"/></g><!--reverse link AUD to SOC--><g id="link_AUD_SOC"><path d="M851.9764,297.6094 C846.4972,297.6094 841.9156,297.6094 835.3788,297.6094 C822.305,297.6094 810,297.6094 810,297.6094 C810,297.6094 810,339.3719 810,382.4394 C810,387.8228 810,393.2266 810,398.5718 C810,399.24 810,399.9072 810,400.5734 C810,400.9065 810,401.2393 810,401.5718 " fill="none" id="AUD-backto-SOC" style="stroke:#000000;stroke-width:0.8;stroke-dasharray:7.0,7.0;"/><polygon fill="#000000" points="857.9764,297.6094,848.9764,293.6094,852.9764,297.6094,848.9764,301.6094,857.9764,297.6094" style="stroke:#000000;stroke-width:0.8;"/></g><!--link DSH to PRE--><!--link PRE to CLI--><!--SRC=[hLR1Zk964Btp5QN9OQHPpMYOpKW9IWx66DO90nPcTWvnj6hi1bgqkqcxdLcoMYa_a5j-8wSSSi_yIRuaLOP6O6PFc0j5TrLrrQlNhxc4xy_uj2x1uqPF3KjNu2acDrQa1Vpt-v_G4snXMCuWun2nNqfkUO7kPvtMideDLiDCMwjpo8JXgHLQjLh5IgWrm_DWZQMm1O_jHdAWVQOMafywTF5hONIfCbzBRU1fAUnhRjfat6nTldfRVKwT-bhPMFp6eNtxXSsgcfcMsS4-CqO_RpDt9VhMjwPBaQuKBmgulVdcO3FZSrPAItbVZpvmgAhwzc2lMB9CFmkrW3cJnM73KYXkDsiEsjYbFjXGEkC5NyFTONE6gHKjjk-FEiuoIlqAHD5kwnw7A2o2SNNr2dEkhhxCdNF9SmcZy7qmXDiETBquE9kBkyRW8kQBqeYCPHV02eY30Nng0QGwNsl5bOMBITVpuTz_u8UdQQAyqYxfHyHDBWfTL47-1mnhVMwintO7eZ0AXk6emJuZiUP44WY6qwfgFA3UgYVCNEfdw7c3H0KVBOxNKhT3pR94uRHLCTSctpMD2Hfi-gu33-DUC1p36_37etuuQAxt1xm3KYCnSwuAL1mcgnRml3e2FufyngHCr9nQVmFjDkfKdYYqRe4j5hlMCP9Qtn_WQpKNo2EMYfU_rTQfVyAa-64Q4PoXboWtZaGzvZF397TKmhW6KNtR0M_a3L_-c8Q-rnoWFLOiPvgPxQNfnUzES8p2ehedKbkvmNiZkR7CzOW1H_15fR8ba_jR63sEwWd725qbD8Kea8fSPLobOfyH8uuoJaftskHnMiyLp4Kggl14JL09KTbsQT3vUAvCfHpr6JdZ1kITbDRtFF19PHCLOpQ-SPFqQZNnDOhpBiyaYEfvebwV80i-uf69ykFthgWWEihZbPcmshpynIe7x_64nKEzW53bYC5CyYeLPgN3Tnanf46EVTr1HZSeL8Pd0lyO_AgtN9W4zVRUQMclduIot23cGM6h0MtvawZd9RFNOkw8CGcEmKF-MCp2iURA9VHE1DyRLA8tV4XKloHVnp9iipdOxZim2WPZFnmtXvqlnK6zmx3Uci-GW8P1zwwBP2sBr8Zr8Ra_OCmHNB76RUHO56wVnx5_WbOGJsa_KKzyjjHwjNyJntuZQFM2A1ZrWf4VUl7PID7x_jtD3Jr-BNe0oIOnfwU0R58cvqCsgRYpdGzfpJuFscwTnCEja-tMIGVSEjbxVxpNUt-qIKQTJGheR58mPvFyr6FfDkzhGxhlQqFRhIDptJAQhYiqIJrg3iG1aYTdEnUo7MOqNETFjlCX-_oH3zb6bxQHOL__j1GPlXK_u_zcTRsVUstPKQ2sJ5EdgTIJ8B0aIxLbmkT_]--></g></svg>