<?xml version="1.0" encoding="us-ascii" standalone="no"?><svg xmlns="http://www.w3.org/2000/svg" xmlns:xlink="http://www.w3.org/1999/xlink" contentStyleType="text/css" height="544px" preserveAspectRatio="none" style="width:2095px;height:544px;background:#FFFFFF;" version="1.1" viewBox="0 0 2095 544" width="2095px" zoomAndPan="magnify"><defs/><g><text fill="#000000" font-family="sans-serif" font-size="14" font-weight="bold" lengthAdjust="spacing" textLength="137" x="901.0313" y="25.5332">AeroTrack Analytics</text><text fill="#000000" font-family="sans-serif" font-size="14" font-weight="bold" lengthAdjust="spacing" textLength="138.4375" x="1042.0313" y="25.5332">&#8212; Nivel Estrat&#233;gico</text><text fill="#000000" font-family="sans-serif" font-size="14" font-weight="bold" lengthAdjust="spacing" textLength="202" x="939.75" y="43.1426">22 Casos de Uso &#183; 8 M&#243;dulos</text><!--cluster system--><g id="cluster_system"><rect fill="#FAFAFA" height="374" rx="2.5" ry="2.5" style="stroke:#000000;stroke-width:1.0;" width="2054" x="35" y="164.7188"/><text fill="#000000" font-family="sans-serif" font-size="9" font-weight="bold" lengthAdjust="spacing" textLength="179.2813" x="972.3594" y="177.0615">AeroTrack Analytics &#8212; Nivel Estrat&#233;gico</text></g><!--cluster PK_DSH--><g id="cluster_PK_DSH"><rect fill="#FAFAFA" height="127" rx="2.5" ry="2.5" style="stroke:#000000;stroke-width:1.0;" width="376" x="681" y="212.7188"/><text fill="#000000" font-family="sans-serif" font-size="9" font-weight="bold" lengthAdjust="spacing" textLength="50" x="844" y="225.0615">Dashboard</text></g><!--cluster PK_PUN--><g id="cluster_PK_PUN"><rect fill="#FAFAFA" height="127" rx="2.5" ry="2.5" style="stroke:#000000;stroke-width:1.0;" width="526" x="1097" y="212.7188"/><text fill="#000000" font-family="sans-serif" font-size="9" font-weight="bold" lengthAdjust="spacing" textLength="55" x="1332.5" y="225.0615">Puntualidad</text></g><!--cluster PK_RUT--><g id="cluster_PK_RUT"><rect fill="#FAFAFA" height="127" rx="2.5" ry="2.5" style="stroke:#000000;stroke-width:1.0;" width="372" x="1663" y="212.7188"/><text fill="#000000" font-family="sans-serif" font-size="9" font-weight="bold" lengthAdjust="spacing" textLength="26" x="1836" y="225.0615">Rutas</text></g><!--cluster PK_CAN--><g id="cluster_PK_CAN"><rect fill="#FAFAFA" height="127" rx="2.5" ry="2.5" style="stroke:#000000;stroke-width:1.0;" width="574" x="67" y="212.7188"/><text fill="#000000" font-family="sans-serif" font-size="9" font-weight="bold" lengthAdjust="spacing" textLength="66" x="321" y="225.0615">Cancelaciones</text></g><!--cluster PK_REP--><g id="cluster_PK_REP"><rect fill="#FAFAFA" height="127" rx="2.5" ry="2.5" style="stroke:#000000;stroke-width:1.0;" width="414" x="307" y="379.7188"/><text fill="#000000" font-family="sans-serif" font-size="9" font-weight="bold" lengthAdjust="spacing" textLength="41" x="493.5" y="392.0615">Reportes</text></g><!--cluster PK_PRE--><g id="cluster_PK_PRE"><rect fill="#FAFAFA" height="127" rx="2.5" ry="2.5" style="stroke:#000000;stroke-width:1.0;" width="1032" x="761" y="379.7188"/><text fill="#000000" font-family="sans-serif" font-size="9" font-weight="bold" lengthAdjust="spacing" textLength="46" x="1254" y="392.0615">Predictivo</text></g><!--cluster PK_IA--><g id="cluster_PK_IA"><rect fill="#FAFAFA" height="127" rx="2.5" ry="2.5" style="stroke:#000000;stroke-width:1.0;" width="224" x="1833" y="379.7188"/><text fill="#000000" font-family="sans-serif" font-size="9" font-weight="bold" lengthAdjust="spacing" textLength="51" x="1919.5" y="392.0615">Asistente IA</text></g><!--cluster PK_CLI--><g id="cluster_PK_CLI"><rect fill="#FAFAFA" height="127" rx="2.5" ry="2.5" style="stroke:#000000;stroke-width:1.0;" width="200" x="67" y="379.7188"/><text fill="#000000" font-family="sans-serif" font-size="9" font-weight="bold" lengthAdjust="spacing" textLength="37" x="148.5" y="392.0615">Clientes</text></g><g id="elem_UC_D1"><ellipse cx="793.7817" cy="283.9754" fill="#FFFFFF" rx="80.7817" ry="31.2566" style="stroke:#666666;stroke-width:0.5;"/><text fill="#000000" font-family="sans-serif" font-size="9" lengthAdjust="spacing" textLength="33" x="777.2817" y="272.3377">CU-E01</text><text fill="#000000" font-family="sans-serif" font-size="9" lengthAdjust="spacing" textLength="96" x="745.7817" y="285.658">Ver dashboard de KPIs</text><text fill="#000000" font-family="sans-serif" font-size="9" lengthAdjust="spacing" textLength="42" x="772.7817" y="298.9783">con filtros</text></g><g id="elem_UC_D2"><ellipse cx="957.9178" cy="283.9754" fill="#FFFFFF" rx="74.4178" ry="31.2566" style="stroke:#666666;stroke-width:0.5;"/><text fill="#000000" font-family="sans-serif" font-size="9" lengthAdjust="spacing" textLength="33" x="941.4178" y="272.3377">CU-E02</text><text fill="#000000" font-family="sans-serif" font-size="9" lengthAdjust="spacing" textLength="87" x="914.4178" y="285.658">Detectar y visualizar</text><text fill="#000000" font-family="sans-serif" font-size="9" lengthAdjust="spacing" textLength="64" x="925.9178" y="298.9783">alertas en KPIs</text></g><g id="elem_UC_U1"><ellipse cx="1199.8823" cy="283.9754" fill="#FFFFFF" rx="70.8823" ry="31.2566" style="stroke:#666666;stroke-width:0.5;"/><text fill="#000000" font-family="sans-serif" font-size="9" lengthAdjust="spacing" textLength="33" x="1183.3823" y="272.3377">CU-E03</text><text fill="#000000" font-family="sans-serif" font-size="9" lengthAdjust="spacing" textLength="82" x="1158.8823" y="285.658">Analizar puntualidad</text><text fill="#000000" font-family="sans-serif" font-size="9" lengthAdjust="spacing" textLength="74" x="1162.8823" y="298.9783">OTP por aerol&#237;nea</text></g><g id="elem_UC_U2"><ellipse cx="1354.1249" cy="283.9754" fill="#FFFFFF" rx="75.1249" ry="31.2566" style="stroke:#666666;stroke-width:0.5;"/><text fill="#000000" font-family="sans-serif" font-size="9" lengthAdjust="spacing" textLength="33" x="1337.6249" y="272.3377">CU-E04</text><text fill="#000000" font-family="sans-serif" font-size="9" lengthAdjust="spacing" textLength="86" x="1311.1249" y="285.658">Comparar aerol&#237;neas</text><text fill="#000000" font-family="sans-serif" font-size="9" lengthAdjust="spacing" textLength="88" x="1310.1249" y="298.9783">en rutas compartidas</text></g><g id="elem_UC_U3"><ellipse cx="1517.7817" cy="283.9754" fill="#FFFFFF" rx="80.7817" ry="31.2566" style="stroke:#666666;stroke-width:0.5;"/><text fill="#000000" font-family="sans-serif" font-size="9" lengthAdjust="spacing" textLength="33" x="1501.2817" y="272.3377">CU-E05</text><text fill="#000000" font-family="sans-serif" font-size="9" lengthAdjust="spacing" textLength="75" x="1480.2817" y="285.658">Ver tendencias de</text><text fill="#000000" font-family="sans-serif" font-size="9" lengthAdjust="spacing" textLength="96" x="1469.7817" y="298.9783">puntualidad por per&#237;odo</text></g><g id="elem_UC_R1"><ellipse cx="1767.0894" cy="283.9754" fill="#FFFFFF" rx="71.5894" ry="31.2566" style="stroke:#666666;stroke-width:0.5;"/><text fill="#000000" font-family="sans-serif" font-size="9" lengthAdjust="spacing" textLength="33" x="1750.5894" y="272.3377">CU-E06</text><text fill="#000000" font-family="sans-serif" font-size="9" lengthAdjust="spacing" textLength="83" x="1725.5894" y="285.658">Evaluar rendimiento</text><text fill="#000000" font-family="sans-serif" font-size="9" lengthAdjust="spacing" textLength="34" x="1750.0894" y="298.9783">de rutas</text></g><g id="elem_UC_R2"><ellipse cx="1929.196" cy="283.9754" fill="#FFFFFF" rx="82.196" ry="31.2566" style="stroke:#666666;stroke-width:0.5;"/><text fill="#000000" font-family="sans-serif" font-size="9" lengthAdjust="spacing" textLength="33" x="1912.696" y="272.3377">CU-E07</text><text fill="#000000" font-family="sans-serif" font-size="9" lengthAdjust="spacing" textLength="90" x="1884.196" y="285.658">Comparar tiempo real</text><text fill="#000000" font-family="sans-serif" font-size="9" lengthAdjust="spacing" textLength="98" x="1880.196" y="298.9783">vs programado por ruta</text></g><g id="elem_UC_C1"><ellipse cx="178.8675" cy="283.9754" fill="#FFFFFF" rx="79.3675" ry="31.2566" style="stroke:#666666;stroke-width:0.5;"/><text fill="#000000" font-family="sans-serif" font-size="9" lengthAdjust="spacing" textLength="33" x="162.3675" y="272.3377">CU-E08</text><text fill="#000000" font-family="sans-serif" font-size="9" lengthAdjust="spacing" textLength="94" x="131.8675" y="285.658">Analizar cancelaciones</text><text fill="#000000" font-family="sans-serif" font-size="9" lengthAdjust="spacing" textLength="62" x="147.8675" y="298.9783">por causa FAA</text></g><g id="elem_UC_C2"><ellipse cx="347.7817" cy="283.9754" fill="#FFFFFF" rx="80.7817" ry="31.2566" style="stroke:#666666;stroke-width:0.5;"/><text fill="#000000" font-family="sans-serif" font-size="9" lengthAdjust="spacing" textLength="33" x="331.2817" y="272.3377">CU-E09</text><text fill="#000000" font-family="sans-serif" font-size="9" lengthAdjust="spacing" textLength="68" x="313.7817" y="285.658">Analizar impacto</text><text fill="#000000" font-family="sans-serif" font-size="9" lengthAdjust="spacing" textLength="96" x="299.7817" y="298.9783">operacional de desv&#237;os</text></g><g id="elem_UC_C3"><ellipse cx="526.767" cy="283.9754" fill="#FFFFFF" rx="89.267" ry="31.2566" style="stroke:#666666;stroke-width:0.5;"/><text fill="#000000" font-family="sans-serif" font-size="9" lengthAdjust="spacing" textLength="33" x="510.267" y="272.3377">CU-E10</text><text fill="#000000" font-family="sans-serif" font-size="9" lengthAdjust="spacing" textLength="70" x="491.767" y="285.658">Ver tendencia de</text><text fill="#000000" font-family="sans-serif" font-size="9" lengthAdjust="spacing" textLength="108" x="472.767" y="298.9783">cancelaciones por per&#237;odo</text></g><g id="elem_UC_E1"><ellipse cx="397.8614" cy="450.9754" fill="#FFFFFF" rx="58.8614" ry="31.2566" style="stroke:#666666;stroke-width:0.5;"/><text fill="#000000" font-family="sans-serif" font-size="9" lengthAdjust="spacing" textLength="33" x="381.3614" y="439.3377">CU-E11</text><text fill="#000000" font-family="sans-serif" font-size="9" lengthAdjust="spacing" textLength="65" x="365.3614" y="452.658">Generar reporte</text><text fill="#000000" font-family="sans-serif" font-size="9" lengthAdjust="spacing" textLength="60" x="367.8614" y="465.9783">ejecutivo PDF</text></g><g id="elem_UC_E2"><ellipse cx="521.033" cy="450.9754" fill="#FFFFFF" rx="56.033" ry="31.2566" style="stroke:#666666;stroke-width:0.5;"/><text fill="#000000" font-family="sans-serif" font-size="9" lengthAdjust="spacing" textLength="33" x="504.533" y="439.3377">CU-E12</text><text fill="#000000" font-family="sans-serif" font-size="9" lengthAdjust="spacing" textLength="61" x="490.533" y="452.658">Exportar datos</text><text fill="#000000" font-family="sans-serif" font-size="9" lengthAdjust="spacing" textLength="31" x="505.533" y="465.9783">a Excel</text></g><g id="elem_UC_E3"><ellipse cx="641.033" cy="450.9754" fill="#FFFFFF" rx="56.033" ry="31.2566" style="stroke:#666666;stroke-width:0.5;"/><text fill="#000000" font-family="sans-serif" font-size="9" lengthAdjust="spacing" textLength="33" x="624.533" y="439.3377">CU-E13</text><text fill="#000000" font-family="sans-serif" font-size="9" lengthAdjust="spacing" textLength="61" x="610.533" y="452.658">Exportar datos</text><text fill="#000000" font-family="sans-serif" font-size="9" lengthAdjust="spacing" textLength="27" x="627.533" y="465.9783">a CSV</text></g><g id="elem_UC_X1"><ellipse cx="867.2107" cy="450.9754" fill="#FFFFFF" rx="73.7107" ry="31.2566" style="stroke:#666666;stroke-width:0.5;"/><text fill="#000000" font-family="sans-serif" font-size="9" lengthAdjust="spacing" textLength="33" x="850.7107" y="439.3377">CU-E14</text><text fill="#000000" font-family="sans-serif" font-size="9" lengthAdjust="spacing" textLength="81" x="826.7107" y="452.658">Proyecci&#243;n de OTP</text><text fill="#000000" font-family="sans-serif" font-size="9" lengthAdjust="spacing" textLength="86" x="824.2107" y="465.9783">futuro (Holt-Winters)</text></g><g id="elem_UC_X2"><ellipse cx="1002.9117" cy="450.9754" fill="#FFFFFF" rx="53.9117" ry="31.2566" style="stroke:#666666;stroke-width:0.5;"/><text fill="#000000" font-family="sans-serif" font-size="9" lengthAdjust="spacing" textLength="33" x="986.4117" y="439.3377">CU-E15</text><text fill="#000000" font-family="sans-serif" font-size="9" lengthAdjust="spacing" textLength="58" x="973.9117" y="452.658">Mapa de calor</text><text fill="#000000" font-family="sans-serif" font-size="9" lengthAdjust="spacing" textLength="42" x="981.9117" y="465.9783">estacional</text></g><g id="elem_UC_X3"><ellipse cx="1138.0036" cy="450.9754" fill="#FFFFFF" rx="73.0036" ry="31.2566" style="stroke:#666666;stroke-width:0.5;"/><text fill="#000000" font-family="sans-serif" font-size="9" lengthAdjust="spacing" textLength="33" x="1121.5036" y="439.3377">CU-E16</text><text fill="#000000" font-family="sans-serif" font-size="9" lengthAdjust="spacing" textLength="55" x="1110.5036" y="452.658">Detecci&#243;n de</text><text fill="#000000" font-family="sans-serif" font-size="9" lengthAdjust="spacing" textLength="85" x="1095.5036" y="465.9783">anomal&#237;as hist&#243;ricas</text></g><g id="elem_UC_X4"><ellipse cx="1284.2254" cy="450.9754" fill="#FFFFFF" rx="65.2254" ry="31.2566" style="stroke:#666666;stroke-width:0.5;"/><text fill="#000000" font-family="sans-serif" font-size="9" lengthAdjust="spacing" textLength="33" x="1267.7254" y="439.3377">CU-E17</text><text fill="#000000" font-family="sans-serif" font-size="9" lengthAdjust="spacing" textLength="74" x="1247.2254" y="452.658">Informe ejecutivo</text><text fill="#000000" font-family="sans-serif" font-size="9" lengthAdjust="spacing" textLength="63" x="1252.7254" y="465.9783">PDF predictivo</text></g><g id="elem_UC_X5"><ellipse cx="1422.9325" cy="450.9754" fill="#FFFFFF" rx="65.9325" ry="31.2566" style="stroke:#666666;stroke-width:0.5;"/><text fill="#000000" font-family="sans-serif" font-size="9" lengthAdjust="spacing" textLength="33" x="1406.4325" y="439.3377">CU-E20</text><text fill="#000000" font-family="sans-serif" font-size="9" lengthAdjust="spacing" textLength="75" x="1385.4325" y="452.658">Ranking de riesgo</text><text fill="#000000" font-family="sans-serif" font-size="9" lengthAdjust="spacing" textLength="47" x="1399.4325" y="465.9783">operacional</text></g><g id="elem_UC_X6"><ellipse cx="1564.8467" cy="450.9754" fill="#FFFFFF" rx="67.3467" ry="31.2566" style="stroke:#666666;stroke-width:0.5;"/><text fill="#000000" font-family="sans-serif" font-size="9" lengthAdjust="spacing" textLength="33" x="1548.3467" y="439.3377">CU-E21</text><text fill="#000000" font-family="sans-serif" font-size="9" lengthAdjust="spacing" textLength="77" x="1526.3467" y="452.658">Recomendaciones</text><text fill="#000000" font-family="sans-serif" font-size="9" lengthAdjust="spacing" textLength="44" x="1542.8467" y="465.9783">priorizadas</text></g><g id="elem_UC_X7"><ellipse cx="1704.8112" cy="451.0565" fill="#FFFFFF" rx="63.8112" ry="21.8378" style="stroke:#666666;stroke-width:0.5;"/><text fill="#000000" font-family="sans-serif" font-size="9" lengthAdjust="spacing" textLength="33" x="1688.3112" y="446.079">CU-E22</text><text fill="#000000" font-family="sans-serif" font-size="9" lengthAdjust="spacing" textLength="72" x="1668.8112" y="459.3993">Simulador what-if</text></g><g id="elem_UC_I1"><ellipse cx="1949.1102" cy="450.9754" fill="#FFFFFF" rx="83.6102" ry="31.2566" style="stroke:#666666;stroke-width:0.5;"/><text fill="#000000" font-family="sans-serif" font-size="9" lengthAdjust="spacing" textLength="33" x="1932.6102" y="439.3377">CU-E18</text><text fill="#000000" font-family="sans-serif" font-size="9" lengthAdjust="spacing" textLength="81" x="1908.6102" y="452.658">Consultar asistente</text><text fill="#000000" font-family="sans-serif" font-size="9" lengthAdjust="spacing" textLength="100" x="1899.1102" y="465.9783">anal&#237;tico conversacional</text></g><g id="elem_UC_L1"><ellipse cx="163.0894" cy="450.9754" fill="#FFFFFF" rx="71.5894" ry="31.2566" style="stroke:#666666;stroke-width:0.5;"/><text fill="#000000" font-family="sans-serif" font-size="9" lengthAdjust="spacing" textLength="33" x="146.5894" y="439.3377">CU-E19</text><text fill="#000000" font-family="sans-serif" font-size="9" lengthAdjust="spacing" textLength="52" x="137.0894" y="452.658">Ver panel de</text><text fill="#000000" font-family="sans-serif" font-size="9" lengthAdjust="spacing" textLength="83" x="121.5894" y="465.9783">captaci&#243;n comercial</text></g><!--entity ADMIN--><g id="elem_ADMIN"><ellipse cx="38" cy="78.2188" fill="#F1F1F1" rx="8" ry="8" style="stroke:#181818;stroke-width:0.5;"/><path d="M38,86.2188 L38,113.2188 M25,94.2188 L51,94.2188 M38,113.2188 L25,128.2188 M38,113.2188 L51,128.2188 " fill="none" style="stroke:#181818;stroke-width:0.5;"/><text fill="#000000" font-family="sans-serif" font-size="9" font-weight="bold" lengthAdjust="spacing" textLength="64" x="6" y="140.0615">Administrador</text></g><!--entity ANALISTA--><g id="elem_ANALISTA"><ellipse cx="2064" cy="72.2188" fill="#F1F1F1" rx="8" ry="8" style="stroke:#181818;stroke-width:0.5;"/><path d="M2064,80.2188 L2064,107.2188 M2051,88.2188 L2077,88.2188 M2064,107.2188 L2051,122.2188 M2064,107.2188 L2077,122.2188 " fill="none" style="stroke:#181818;stroke-width:0.5;"/><text fill="#000000" font-family="sans-serif" font-size="9" font-weight="bold" lengthAdjust="spacing" textLength="49" x="2039.5" y="134.0615">Analista de</text><text fill="#000000" font-family="sans-serif" font-size="9" font-weight="bold" lengthAdjust="spacing" textLength="26" x="2051" y="145.3818">Datos</text></g><!--link ADMIN to UC_D1--><g id="link_ADMIN_UC_D1"><path d="M71.22,112.7188 C213.83,112.7188 767,112.7188 767,112.7188 C767,112.7188 767,199.2088 767,248.3488 " fill="none" id="ADMIN-to-UC_D1" style="stroke:#000000;stroke-width:0.5;"/><polygon fill="#000000" points="767,254.3488,771,245.3488,767,249.3488,763,245.3488,767,254.3488" style="stroke:#000000;stroke-width:0.5;"/></g><!--link ADMIN to UC_U1--><g id="link_ADMIN_UC_U1"><path d="M71.15,92.7188 C258.48,92.7188 1176.33,92.7188 1176.33,92.7188 C1176.33,92.7188 1176.33,194.4388 1176.33,248.2987 " fill="none" id="ADMIN-to-UC_U1" style="stroke:#000000;stroke-width:0.5;"/><polygon fill="#000000" points="1176.33,254.2987,1180.33,245.2987,1176.33,249.2987,1172.33,245.2987,1176.33,254.2987" style="stroke:#000000;stroke-width:0.5;"/></g><!--link ADMIN to UC_R1--><g id="link_ADMIN_UC_R1"><path d="M71.3,75.7188 C309.34,75.7188 1743.17,75.7188 1743.17,75.7188 C1743.17,75.7188 1743.17,190.6888 1743.17,248.3488 " fill="none" id="ADMIN-to-UC_R1" style="stroke:#000000;stroke-width:0.5;"/><polygon fill="#000000" points="1743.17,254.3488,1747.17,245.3488,1743.17,249.3488,1739.17,245.3488,1743.17,254.3488" style="stroke:#000000;stroke-width:0.5;"/></g><!--link ADMIN to UC_C1--><g id="link_ADMIN_UC_C1"><path d="M49,143.0888 C49,191.0388 49,268.7188 49,268.7188 C49,268.7188 72.52,268.7188 103.43,268.7188 " fill="none" id="ADMIN-to-UC_C1" style="stroke:#000000;stroke-width:0.5;"/><polygon fill="#000000" points="109.43,268.7188,100.43,264.7188,104.43,268.7188,100.43,272.7188,109.43,268.7188" style="stroke:#000000;stroke-width:0.5;"/></g><!--link ADMIN to UC_E1--><g id="link_ADMIN_UC_E1"><path d="M71.02,128.7188 C166.01,128.7188 433.25,128.7188 433.25,128.7188 C433.25,128.7188 433.25,343.8887 433.25,419.9088 " fill="none" id="ADMIN-to-UC_E1" style="stroke:#000000;stroke-width:0.5;"/><polygon fill="#000000" points="433.25,425.9088,437.25,416.9088,433.25,420.9088,429.25,416.9088,433.25,425.9088" style="stroke:#000000;stroke-width:0.5;"/></g><!--link ADMIN to UC_E2--><g id="link_ADMIN_UC_E2"><path d="M27,142.7888 C27,206.3988 27,330.7188 27,330.7188 C27,330.7188 502.33,330.7188 502.33,330.7188 C502.33,330.7188 502.33,379.7488 502.33,415.4288 " fill="none" id="ADMIN-to-UC_E2" style="stroke:#000000;stroke-width:0.5;"/><polygon fill="#000000" points="502.33,421.4288,506.33,412.4288,502.33,416.4288,498.33,412.4288,502.33,421.4288" style="stroke:#000000;stroke-width:0.5;"/></g><!--link ADMIN to UC_E3--><g id="link_ADMIN_UC_E3"><path d="M71.24,120.7188 C197.51,120.7188 640.33,120.7188 640.33,120.7188 C640.33,120.7188 640.33,330.8088 640.33,413.5288 " fill="none" id="ADMIN-to-UC_E3" style="stroke:#000000;stroke-width:0.5;"/><polygon fill="#000000" points="640.33,419.5288,644.33,410.5288,640.33,414.5288,636.33,410.5288,640.33,419.5288" style="stroke:#000000;stroke-width:0.5;"/></g><!--link ADMIN to UC_X1--><g id="link_ADMIN_UC_X1"><path d="M71.18,103.7188 C226.92,103.7188 877.83,103.7188 877.83,103.7188 C877.83,103.7188 877.83,328.2288 877.83,413.7688 " fill="none" id="ADMIN-to-UC_X1" style="stroke:#000000;stroke-width:0.5;"/><polygon fill="#000000" points="877.83,419.7688,881.83,410.7688,877.83,414.7688,873.83,410.7688,877.83,419.7688" style="stroke:#000000;stroke-width:0.5;"/></g><!--link ADMIN to UC_L1--><g id="link_ADMIN_UC_L1"><path d="M71.11,134.7188 C83.9,134.7188 95.5,134.7188 95.5,134.7188 C95.5,134.7188 95.5,379.7688 95.5,434.6888 " fill="none" id="ADMIN-to-UC_L1" style="stroke:#000000;stroke-width:0.5;"/><polygon fill="#000000" points="95.5,440.6888,99.5,431.6888,95.5,435.6888,91.5,431.6888,95.5,440.6888" style="stroke:#000000;stroke-width:0.5;"/></g><!--link ANALISTA to UC_D1--><g id="link_ANALISTA_UC_D1"><path d="M2038.32,86.7188 C1860.65,86.7188 821,86.7188 821,86.7188 C821,86.7188 821,192.9688 821,248.2188 " fill="none" id="ANALISTA-to-UC_D1" style="stroke:#000000;stroke-width:0.5;"/><polygon fill="#000000" points="821,254.2188,825,245.2188,821,249.2188,817,245.2188,821,254.2188" style="stroke:#000000;stroke-width:0.5;"/></g><!--link ANALISTA to UC_D2--><g id="link_ANALISTA_UC_D2"><path d="M2038.29,95.7188 C1872.23,95.7188 958,95.7188 958,95.7188 C958,95.7188 958,193.0088 958,246.6688 " fill="none" id="ANALISTA-to-UC_D2" style="stroke:#000000;stroke-width:0.5;"/><polygon fill="#000000" points="958,252.6688,962,243.6688,958,247.6688,954,243.6688,958,252.6688" style="stroke:#000000;stroke-width:0.5;"/></g><!--link ANALISTA to UC_U1--><g id="link_ANALISTA_UC_U1"><path d="M2038.39,106.7188 C1897.56,106.7188 1223.67,106.7188 1223.67,106.7188 C1223.67,106.7188 1223.67,197.9788 1223.67,248.5088 " fill="none" id="ANALISTA-to-UC_U1" style="stroke:#000000;stroke-width:0.5;"/><polygon fill="#000000" points="1223.67,254.5088,1227.67,245.5088,1223.67,249.5088,1219.67,245.5088,1223.67,254.5088" style="stroke:#000000;stroke-width:0.5;"/></g><!--link ANALISTA to UC_U2--><g id="link_ANALISTA_UC_U2"><path d="M2038.31,114.7188 C1911.02,114.7188 1354,114.7188 1354,114.7188 C1354,114.7188 1354,197.2387 1354,246.3388 " fill="none" id="ANALISTA-to-UC_U2" style="stroke:#000000;stroke-width:0.5;"/><polygon fill="#000000" points="1354,252.3388,1358,243.3388,1354,247.3388,1350,243.3388,1354,252.3388" style="stroke:#000000;stroke-width:0.5;"/></g><!--link ANALISTA to UC_U3--><g id="link_ANALISTA_UC_U3"><path d="M2038.4,123.7188 C1930.45,123.7188 1518,123.7188 1518,123.7188 C1518,123.7188 1518,199.7387 1518,246.5088 " fill="none" id="ANALISTA-to-UC_U3" style="stroke:#000000;stroke-width:0.5;"/><polygon fill="#000000" points="1518,252.5088,1522,243.5088,1518,247.5088,1514,243.5088,1518,252.5088" style="stroke:#000000;stroke-width:0.5;"/></g><!--link ANALISTA to UC_R1--><g id="link_ANALISTA_UC_R1"><path d="M2038.3,137.7188 C1970.3,137.7188 1790.83,137.7188 1790.83,137.7188 C1790.83,137.7188 1790.83,205.3588 1790.83,248.2188 " fill="none" id="ANALISTA-to-UC_R1" style="stroke:#000000;stroke-width:0.5;"/><polygon fill="#000000" points="1790.83,254.2188,1794.83,245.2188,1790.83,249.2188,1786.83,245.2188,1790.83,254.2188" style="stroke:#000000;stroke-width:0.5;"/></g><!--link ANALISTA to UC_R2--><g id="link_ANALISTA_UC_R2"><path d="M2051.25,148.9788 C2051.25,201.7788 2051.25,284.7188 2051.25,284.7188 C2051.25,284.7188 2039.33,284.7188 2017.22,284.7188 " fill="none" id="ANALISTA-to-UC_R2" style="stroke:#000000;stroke-width:0.5;"/><polygon fill="#000000" points="2011.22,284.7188,2020.22,288.7188,2016.22,284.7188,2020.22,280.7188,2011.22,284.7188" style="stroke:#000000;stroke-width:0.5;"/></g><!--link ANALISTA to UC_C1--><g id="link_ANALISTA_UC_C1"><path d="M2038.43,72.7188 C1813.38,72.7188 179,72.7188 179,72.7188 C179,72.7188 179,187.5487 179,246.5587 " fill="none" id="ANALISTA-to-UC_C1" style="stroke:#000000;stroke-width:0.5;"/><polygon fill="#000000" points="179,252.5587,183,243.5587,179,247.5587,175,243.5587,179,252.5587" style="stroke:#000000;stroke-width:0.5;"/></g><!--link ANALISTA to UC_C2--><g id="link_ANALISTA_UC_C2"><path d="M2038.41,78.7188 C1824.95,78.7188 348,78.7188 348,78.7188 C348,78.7188 348,188.9188 348,246.5587 " fill="none" id="ANALISTA-to-UC_C2" style="stroke:#000000;stroke-width:0.5;"/><polygon fill="#000000" points="348,252.5587,352,243.5587,348,247.5587,344,243.5587,348,252.5587" style="stroke:#000000;stroke-width:0.5;"/></g><!--link ANALISTA to UC_C3--><g id="link_ANALISTA_UC_C3"><path d="M2038.29,81.7188 C1837.38,81.7188 527,81.7188 527,81.7188 C527,81.7188 527,189.6288 527,246.5788 " fill="none" id="ANALISTA-to-UC_C3" style="stroke:#000000;stroke-width:0.5;"/><polygon fill="#000000" points="527,252.5788,531,243.5788,527,247.5788,523,243.5788,527,252.5788" style="stroke:#000000;stroke-width:0.5;"/></g><!--link ANALISTA to UC_E1--><g id="link_ANALISTA_UC_E1"><path d="M2064,148.8188 C2064,221.2688 2064,360.7188 2064,360.7188 C2064,360.7188 447.25,360.7188 447.25,360.7188 C447.25,360.7188 447.25,401.4688 447.25,427.7688 " fill="none" id="ANALISTA-to-UC_E1" style="stroke:#000000;stroke-width:0.5;"/><polygon fill="#000000" points="447.25,433.7688,451.25,424.7688,447.25,428.7688,443.25,424.7688,447.25,433.7688" style="stroke:#000000;stroke-width:0.5;"/></g><!--link ANALISTA to UC_E2--><g id="link_ANALISTA_UC_E2"><path d="M2076.75,148.9188 C2076.75,224.9088 2076.75,375.7188 2076.75,375.7188 C2076.75,375.7188 539.67,375.7188 539.67,375.7188 C539.67,375.7188 539.67,394.2788 539.67,415.3787 " fill="none" id="ANALISTA-to-UC_E2" style="stroke:#000000;stroke-width:0.5;"/><polygon fill="#000000" points="539.67,421.3787,543.67,412.3787,539.67,416.3787,535.67,412.3787,539.67,421.3787" style="stroke:#000000;stroke-width:0.5;"/></g><!--link ANALISTA to UC_E3--><g id="link_ANALISTA_UC_E3"><path d="M2038.21,84.7188 C1847.53,84.7188 664.17,84.7188 664.17,84.7188 C664.17,84.7188 664.17,330.0588 664.17,416.4588 " fill="none" id="ANALISTA-to-UC_E3" style="stroke:#000000;stroke-width:0.5;"/><polygon fill="#000000" points="664.17,422.4588,668.17,413.4588,664.17,417.4588,660.17,413.4588,664.17,422.4588" style="stroke:#000000;stroke-width:0.5;"/></g><!--link ANALISTA to UC_X1--><g id="link_ANALISTA_UC_X1"><path d="M2038.46,89.7188 C1866.19,89.7188 880.67,89.7188 880.67,89.7188 C880.67,89.7188 880.67,326.3988 880.67,414.0888 " fill="none" id="ANALISTA-to-UC_X1" style="stroke:#000000;stroke-width:0.5;"/><polygon fill="#000000" points="880.67,420.0888,884.67,411.0888,880.67,415.0888,876.67,411.0888,880.67,420.0888" style="stroke:#000000;stroke-width:0.5;"/></g><!--link ANALISTA to UC_X2--><g id="link_ANALISTA_UC_X2"><path d="M2038.3,98.7188 C1880.05,98.7188 1044.75,98.7188 1044.75,98.7188 C1044.75,98.7188 1044.75,350.0988 1044.75,424.9988 " fill="none" id="ANALISTA-to-UC_X2" style="stroke:#000000;stroke-width:0.5;"/><polygon fill="#000000" points="1044.75,430.9988,1048.75,421.9988,1044.75,425.9988,1040.75,421.9988,1044.75,430.9988" style="stroke:#000000;stroke-width:0.5;"/></g><!--link ANALISTA to UC_X3--><g id="link_ANALISTA_UC_X3"><path d="M2038.19,100.7188 C1886.5,100.7188 1117.5,100.7188 1117.5,100.7188 C1117.5,100.7188 1117.5,329.4488 1117.5,414.7288 " fill="none" id="ANALISTA-to-UC_X3" style="stroke:#000000;stroke-width:0.5;"/><polygon fill="#000000" points="1117.5,420.7288,1121.5,411.7288,1117.5,415.7288,1113.5,411.7288,1117.5,420.7288" style="stroke:#000000;stroke-width:0.5;"/></g><!--link ANALISTA to UC_X4--><g id="link_ANALISTA_UC_X4"><path d="M2038.2,109.7188 C1902.22,109.7188 1275,109.7188 1275,109.7188 C1275,109.7188 1275,329.7088 1275,414.0087 " fill="none" id="ANALISTA-to-UC_X4" style="stroke:#000000;stroke-width:0.5;"/><polygon fill="#000000" points="1275,420.0087,1279,411.0087,1275,415.0087,1271,411.0087,1275,420.0087" style="stroke:#000000;stroke-width:0.5;"/></g><!--link ANALISTA to UC_X5--><g id="link_ANALISTA_UC_X5"><path d="M2038.48,117.7188 C1920.43,117.7188 1433,117.7188 1433,117.7188 C1433,117.7188 1433,330.8188 1433,413.8488 " fill="none" id="ANALISTA-to-UC_X5" style="stroke:#000000;stroke-width:0.5;"/><polygon fill="#000000" points="1433,419.8488,1437,410.8488,1433,414.8488,1429,410.8488,1433,419.8488" style="stroke:#000000;stroke-width:0.5;"/></g><!--link ANALISTA to UC_X6--><g id="link_ANALISTA_UC_X6"><path d="M2038.29,126.7188 C1943.04,126.7188 1615.75,126.7188 1615.75,126.7188 C1615.75,126.7188 1615.75,352.8088 1615.75,424.4288 " fill="none" id="ANALISTA-to-UC_X6" style="stroke:#000000;stroke-width:0.5;"/><polygon fill="#000000" points="1615.75,430.4288,1619.75,421.4288,1615.75,425.4288,1611.75,421.4288,1615.75,430.4288" style="stroke:#000000;stroke-width:0.5;"/></g><!--link ANALISTA to UC_X7--><g id="link_ANALISTA_UC_X7"><path d="M2038.46,131.7188 C1953.2,131.7188 1683.75,131.7188 1683.75,131.7188 C1683.75,131.7188 1683.75,353.1788 1683.75,424.2588 " fill="none" id="ANALISTA-to-UC_X7" style="stroke:#000000;stroke-width:0.5;"/><polygon fill="#000000" points="1683.75,430.2588,1687.75,421.2588,1683.75,425.2588,1679.75,421.2588,1683.75,430.2588" style="stroke:#000000;stroke-width:0.5;"/></g><!--link ANALISTA to UC_I1--><g id="link_ANALISTA_UC_I1"><path d="M2038.45,140.7188 C2029.55,140.7188 2021.75,140.7188 2021.75,140.7188 C2021.75,140.7188 2021.75,366.1188 2021.75,429.3988 " fill="none" id="ANALISTA-to-UC_I1" style="stroke:#000000;stroke-width:0.5;"/><polygon fill="#000000" points="2021.75,435.3988,2025.75,426.3988,2021.75,430.3988,2017.75,426.3988,2021.75,435.3988" style="stroke:#000000;stroke-width:0.5;"/></g><!--link PK_DSH to PK_REP--><!--link PK_PUN to PK_PRE--><!--link PK_RUT to PK_IA--><!--link PK_CAN to PK_CLI--><!--SRC=[hLVTRjis5BxtKnoa5za2P8Zjvc_01YYoiXfD74EsMnVpK30IOtEHIO6adBX3WJt4Nc8NlSh5xfStsPFiK9PbMMIn0Ou2f27F-GxFttV8xiCFEtoDVV2e54D9edlmE4cMcaKA_ldz3-Yn1KqWK5eI_Vpdb4K2bLijy4SA_luBpc3-_1HdYSXNBI2H5f8grDd9duOMAMW1jq9hCOUOIHff9dYZeUuPJuaaSqZHMJAb0xrCA1WvuTE4sWeN-CzKYep7laY4XFSpfbrgGiPKhbHUjVFFLheKN0_O9mhDewy8SszkHH9Nv9cY4L4Ry9aj-oydrsfL9q_ohwAK9z_juaRaSf18AHvMLYyIzAGk6ivOTC-fKd3qtN556DCxaYNQs7MZAmgvJ-SLcPgHM3mmFeKxagXgi6Kng-7MJM-KQgbxTUcPdufgmZZLovI2a7ecAW8kOgfekbKGIVXzVIybSMmSRTf5xnUYjXtra3vgBs5JFgTSGuI_gCJEPXeBS73W8Dp1mLSeD-66SKGXos8A8oLMrBikgDVObMv8Vtzu4mQ3dNcRzndiUV6SSMOYY8NS0wB0wrntUwKO8qOfmMWcl4EqK2kTddVL7Goz5uXdy64m3AxXucRKwtZXXvtZAhiDdV_Vap8FIYsLfdFuhT40s8T3_E2I9GIQ-T-uMJGIx7M8cjqA8kCSrt_xiJDuWpZ0hw0_xFcZm-2eEU7lg8HuhM-Qucs_goOy4XpkMA9baT6H_x7JT5XeOTgfDZ59MCA2gGmByed82KP4fKOavRd9qaeBhNnkLDtjPrmRM4nAX_kZdjFXzeJd9SSJ8Dt09lncs8SKEu9WJfFdBvoIzO4Zbzkl9zmNSqEoAWJZHczbPjoESh56wwNhevR3ql4gXPhocFA84PMtOiMttAsKokSl8XQbgRQLXT0Skuu_70sTyPzCUB0WIOPkIpoHpHaE0sGrrasMUBGVke8-hGIj6Psd0esGPC8N2b8ffZXna6MvlyPOQSkkc4zuH76CuaLAIvzzprspiqhDeYeGqoJCLgO8N7hU-ZpVvVjvnGZ3628JjS2qvhP8OZeNH_02irmcmNVKgtbKgrTUhYstd0Npou9LgTUog1TIHEjDKiAWxqfA4vdt4-LKveNC8TXxlz8eqsmXeD-vN1ySEBBHHDO5ZmP537bnwY7T87Z464gOA_Qs2-OFtfKWkolxaiOiCawLr0m3PqH8gRuKInf5xFc9cteW9oVyBjEP5F3D6v7em_VCN5tgs_M1OrTmoAXhafh2O6_WFOo9mGc_AdC9T8LtKioYjGCO7HTpWjn6q0olYUSdoQ8DISPjXn4aIPVV2JcdKDO38-jS8aMsKc4ClBODjB31GhpvpLLkMCceccwtQea-Tg2nBqAAimVRSyCIoOJ4pg-Cel690ujTCM3pB35N9JpCY3vaToNWrDM_RQj_FOLvCWyCw7hhYdSzPy7Fp3ZX2jydPeYkSIRf9kLucmaSedo1zQu5tctQ0oKnWwmoIwwwpZFFL-nD2QT9mTpKz8OfkCcQH4QNvrojpldy0gy0_wONZBluQv3Vq5klafsV1FcB1YlnOt7BRgr7jNLOM_krTL1VjshhzlPwNDF7fBrykZQlDCWVQRkdh7ZWLRDMtsfPMoDRQ-JGQbjReGqCRQ1lQ_aEBTjyO0C36nZOmB4D7Dl0iGFusjuwjhTExArJQwlx4XrpHPOYqz-RDoVPlJsA9-_XppCMupN_2_xta1yMrt6ZU5xQGhpP6iNRonPslKRnnh5bEAqQ_m80]--></g></svg>