<?xml version="1.0" encoding="us-ascii" standalone="no"?><svg xmlns="http://www.w3.org/2000/svg" xmlns:xlink="http://www.w3.org/1999/xlink" contentStyleType="text/css" height="544px" preserveAspectRatio="none" style="width:2152px;height:544px;background:#FFFFFF;" version="1.1" viewBox="0 0 2152 544" width="2152px" zoomAndPan="magnify"><defs/><g><text fill="#000000" font-family="sans-serif" font-size="14" font-weight="bold" lengthAdjust="spacing" textLength="137" x="934.2813" y="25.5332">AeroTrack Analytics</text><text fill="#000000" font-family="sans-serif" font-size="14" font-weight="bold" lengthAdjust="spacing" textLength="128.4375" x="1075.2813" y="25.5332">&#8212; Nivel Operativo</text><text fill="#000000" font-family="sans-serif" font-size="14" font-weight="bold" lengthAdjust="spacing" textLength="202" x="968" y="43.1426">18 Casos de Uso &#183; 7 M&#243;dulos</text><!--cluster system--><g id="cluster_system"><rect fill="#FAFAFA" height="374" rx="2.5" ry="2.5" style="stroke:#000000;stroke-width:1.0;" width="2139" x="7" y="164.7188"/><text fill="#000000" font-family="sans-serif" font-size="9" font-weight="bold" lengthAdjust="spacing" textLength="172.2813" x="990.3594" y="177.0615">AeroTrack Analytics &#8212; Nivel Operativo</text></g><!--cluster PK_SEG--><g id="cluster_PK_SEG"><rect fill="#FAFAFA" height="108" rx="2.5" ry="2.5" style="stroke:#000000;stroke-width:1.0;" width="621" x="39" y="222.2188"/><text fill="#000000" font-family="sans-serif" font-size="9" font-weight="bold" lengthAdjust="spacing" textLength="47" x="326" y="234.5615">Seguridad</text></g><!--cluster PK_PEL--><g id="cluster_PK_PEL"><rect fill="#FAFAFA" height="127" rx="2.5" ry="2.5" style="stroke:#000000;stroke-width:1.0;" width="688" x="1426" y="212.7188"/><text fill="#000000" font-family="sans-serif" font-size="9" font-weight="bold" lengthAdjust="spacing" textLength="57" x="1741.5" y="225.0615">Pipeline ELT</text></g><!--cluster PK_AUD--><g id="cluster_PK_AUD"><rect fill="#FAFAFA" height="127" rx="2.5" ry="2.5" style="stroke:#000000;stroke-width:1.0;" width="326" x="700" y="212.7188"/><text fill="#000000" font-family="sans-serif" font-size="9" font-weight="bold" lengthAdjust="spacing" textLength="41" x="842.5" y="225.0615">Auditor&#237;a</text></g><!--cluster PK_MOD--><g id="cluster_PK_MOD"><rect fill="#FAFAFA" height="127" rx="2.5" ry="2.5" style="stroke:#000000;stroke-width:1.0;" width="486" x="1277" y="379.7188"/><text fill="#000000" font-family="sans-serif" font-size="9" font-weight="bold" lengthAdjust="spacing" textLength="93" x="1473.5" y="392.0615">Modelo Dimensional</text></g><!--cluster PK_IA--><g id="cluster_PK_IA"><rect fill="#FAFAFA" height="127" rx="2.5" ry="2.5" style="stroke:#000000;stroke-width:1.0;" width="218" x="1019" y="379.7188"/><text fill="#000000" font-family="sans-serif" font-size="9" font-weight="bold" lengthAdjust="spacing" textLength="51" x="1102.5" y="392.0615">Asistente IA</text></g><!--cluster PK_CLI--><g id="cluster_PK_CLI"><rect fill="#FAFAFA" height="127" rx="2.5" ry="2.5" style="stroke:#000000;stroke-width:1.0;" width="311" x="1803" y="379.7188"/><text fill="#000000" font-family="sans-serif" font-size="9" font-weight="bold" lengthAdjust="spacing" textLength="37" x="1940" y="392.0615">Clientes</text></g><!--cluster PK_SOC--><g id="cluster_PK_SOC"><rect fill="#FAFAFA" height="111" rx="2.5" ry="2.5" style="stroke:#000000;stroke-width:1.0;" width="336" x="1058" y="220.7188"/><text fill="#000000" font-family="sans-serif" font-size="9" font-weight="bold" lengthAdjust="spacing" textLength="48" x="1202" y="233.0615">Socios API</text></g><g id="elem_UC_S1"><ellipse cx="122.7904" cy="284.0565" fill="#FFFFFF" rx="51.7904" ry="21.8378" style="stroke:#666666;stroke-width:0.5;"/><text fill="#000000" font-family="sans-serif" font-size="9" lengthAdjust="spacing" textLength="34" x="105.7904" y="279.079">CU-O01</text><text fill="#000000" font-family="sans-serif" font-size="9" lengthAdjust="spacing" textLength="55" x="95.2904" y="292.3993">Iniciar sesi&#243;n</text></g><g id="elem_UC_S2"><ellipse cx="412.9975" cy="284.0565" fill="#FFFFFF" rx="52.4975" ry="21.8378" style="stroke:#666666;stroke-width:0.5;"/><text fill="#000000" font-family="sans-serif" font-size="9" lengthAdjust="spacing" textLength="34" x="395.9975" y="279.079">CU-O02</text><text fill="#000000" font-family="sans-serif" font-size="9" lengthAdjust="spacing" textLength="56" x="384.9975" y="292.3993">Cerrar sesi&#243;n</text></g><g id="elem_UC_S3"><ellipse cx="267.8173" cy="284.0565" fill="#FFFFFF" rx="84.3173" ry="21.8378" style="stroke:#666666;stroke-width:0.5;"/><text fill="#000000" font-family="sans-serif" font-size="9" lengthAdjust="spacing" textLength="34" x="250.8173" y="279.079">CU-O03</text><text fill="#000000" font-family="sans-serif" font-size="9" lengthAdjust="spacing" textLength="101" x="217.3173" y="292.3993">Ver y editar perfil propio</text></g><g id="elem_UC_S4"><ellipse cx="554.7817" cy="284.0565" fill="#FFFFFF" rx="80.7817" ry="21.8378" style="stroke:#666666;stroke-width:0.5;"/><text fill="#000000" font-family="sans-serif" font-size="9" lengthAdjust="spacing" textLength="34" x="537.7817" y="279.079">CU-O04</text><text fill="#000000" font-family="sans-serif" font-size="9" lengthAdjust="spacing" textLength="96" x="506.7817" y="292.3993">Ver matriz de permisos</text></g><g id="elem_UC_P1"><ellipse cx="2014.9178" cy="283.9754" fill="#FFFFFF" rx="74.4178" ry="31.2566" style="stroke:#666666;stroke-width:0.5;"/><text fill="#000000" font-family="sans-serif" font-size="9" lengthAdjust="spacing" textLength="34" x="1997.9178" y="272.3377">CU-O05</text><text fill="#000000" font-family="sans-serif" font-size="9" lengthAdjust="spacing" textLength="87" x="1971.4178" y="285.658">Ejecutar pipeline ELT</text><text fill="#000000" font-family="sans-serif" font-size="9" lengthAdjust="spacing" textLength="56" x="1986.9178" y="298.9783">manualmente</text></g><g id="elem_UC_P2"><ellipse cx="1840.0955" cy="284.0565" fill="#FFFFFF" rx="92.0955" ry="21.8378" style="stroke:#666666;stroke-width:0.5;"/><text fill="#000000" font-family="sans-serif" font-size="9" lengthAdjust="spacing" textLength="34" x="1823.0955" y="279.079">CU-O06</text><text fill="#000000" font-family="sans-serif" font-size="9" lengthAdjust="spacing" textLength="112" x="1784.0955" y="292.3993">Monitorear estado del DAG</text></g><g id="elem_UC_P3"><ellipse cx="1665.1249" cy="283.9754" fill="#FFFFFF" rx="75.1249" ry="31.2566" style="stroke:#666666;stroke-width:0.5;"/><text fill="#000000" font-family="sans-serif" font-size="9" lengthAdjust="spacing" textLength="34" x="1648.1249" y="272.3377">CU-O07</text><text fill="#000000" font-family="sans-serif" font-size="9" lengthAdjust="spacing" textLength="88" x="1621.1249" y="285.658">Consultar historial de</text><text fill="#000000" font-family="sans-serif" font-size="9" lengthAdjust="spacing" textLength="49" x="1640.6249" y="298.9783">ejecuciones</text></g><g id="elem_UC_P4"><ellipse cx="1520.1899" cy="283.9754" fill="#FFFFFF" rx="61.6899" ry="31.2566" style="stroke:#666666;stroke-width:0.5;"/><text fill="#000000" font-family="sans-serif" font-size="9" lengthAdjust="spacing" textLength="34" x="1503.1899" y="272.3377">CU-O08</text><text fill="#000000" font-family="sans-serif" font-size="9" lengthAdjust="spacing" textLength="69" x="1485.6899" y="285.658">Ver logs de error</text><text fill="#000000" font-family="sans-serif" font-size="9" lengthAdjust="spacing" textLength="48" x="1496.1899" y="298.9783">y reintentar</text></g><g id="elem_UC_A1"><ellipse cx="792.9828" cy="283.9754" fill="#FFFFFF" rx="60.9828" ry="31.2566" style="stroke:#666666;stroke-width:0.5;"/><text fill="#000000" font-family="sans-serif" font-size="9" lengthAdjust="spacing" textLength="34" x="775.9828" y="272.3377">CU-O12</text><text fill="#000000" font-family="sans-serif" font-size="9" lengthAdjust="spacing" textLength="68" x="758.9828" y="285.658">Consultar log de</text><text fill="#000000" font-family="sans-serif" font-size="9" lengthAdjust="spacing" textLength="35" x="775.4828" y="298.9783">auditor&#237;a</text></g><g id="elem_UC_A2"><ellipse cx="931.968" cy="284.0565" fill="#FFFFFF" rx="69.468" ry="21.8378" style="stroke:#666666;stroke-width:0.5;"/><text fill="#000000" font-family="sans-serif" font-size="9" lengthAdjust="spacing" textLength="34" x="914.968" y="279.079">CU-O13</text><text fill="#000000" font-family="sans-serif" font-size="9" lengthAdjust="spacing" textLength="80" x="891.968" y="292.3993">Exportar log a CSV</text></g><g id="elem_UC_M1"><ellipse cx="1379.8823" cy="450.9754" fill="#FFFFFF" rx="70.8823" ry="31.2566" style="stroke:#666666;stroke-width:0.5;"/><text fill="#000000" font-family="sans-serif" font-size="9" lengthAdjust="spacing" textLength="34" x="1362.8823" y="439.3377">CU-O09</text><text fill="#000000" font-family="sans-serif" font-size="9" lengthAdjust="spacing" textLength="68" x="1345.8823" y="452.658">Ver resumen del</text><text fill="#000000" font-family="sans-serif" font-size="9" lengthAdjust="spacing" textLength="82" x="1338.8823" y="465.9783">modelo dimensional</text></g><g id="elem_UC_M2"><ellipse cx="1531.7965" cy="450.9754" fill="#FFFFFF" rx="72.2965" ry="31.2566" style="stroke:#666666;stroke-width:0.5;"/><text fill="#000000" font-family="sans-serif" font-size="9" lengthAdjust="spacing" textLength="34" x="1514.7965" y="439.3377">CU-O10</text><text fill="#000000" font-family="sans-serif" font-size="9" lengthAdjust="spacing" textLength="84" x="1489.7965" y="452.658">Explorar y gestionar</text><text fill="#000000" font-family="sans-serif" font-size="9" lengthAdjust="spacing" textLength="36" x="1513.7965" y="465.9783">registros</text></g><g id="elem_UC_M3"><ellipse cx="1676.1041" cy="450.9754" fill="#FFFFFF" rx="63.1041" ry="31.2566" style="stroke:#666666;stroke-width:0.5;"/><text fill="#000000" font-family="sans-serif" font-size="9" lengthAdjust="spacing" textLength="34" x="1659.1041" y="439.3377">CU-O11</text><text fill="#000000" font-family="sans-serif" font-size="9" lengthAdjust="spacing" textLength="71" x="1640.6041" y="452.658">Validar integridad</text><text fill="#000000" font-family="sans-serif" font-size="9" lengthAdjust="spacing" textLength="44" x="1654.1041" y="465.9783">referencial</text></g><g id="elem_UC_I1"><ellipse cx="1131.7817" cy="450.9754" fill="#FFFFFF" rx="80.7817" ry="31.2566" style="stroke:#666666;stroke-width:0.5;"/><text fill="#000000" font-family="sans-serif" font-size="9" lengthAdjust="spacing" textLength="34" x="1114.7817" y="439.3377">CU-O14</text><text fill="#000000" font-family="sans-serif" font-size="9" lengthAdjust="spacing" textLength="96" x="1083.7817" y="452.658">Historial persistente de</text><text fill="#000000" font-family="sans-serif" font-size="9" lengthAdjust="spacing" textLength="66" x="1098.7817" y="465.9783">conversaciones</text></g><g id="elem_UC_L1"><ellipse cx="1902.1396" cy="450.9754" fill="#FFFFFF" rx="66.6396" ry="31.2566" style="stroke:#666666;stroke-width:0.5;"/><text fill="#000000" font-family="sans-serif" font-size="9" lengthAdjust="spacing" textLength="34" x="1885.1396" y="439.3377">CU-O15</text><text fill="#000000" font-family="sans-serif" font-size="9" lengthAdjust="spacing" textLength="76" x="1864.1396" y="452.658">Generar enlace de</text><text fill="#000000" font-family="sans-serif" font-size="9" lengthAdjust="spacing" textLength="56" x="1874.1396" y="465.9783">demostraci&#243;n</text></g><g id="elem_UC_L2"><ellipse cx="2033.2401" cy="450.9754" fill="#FFFFFF" rx="56.7401" ry="31.2566" style="stroke:#666666;stroke-width:0.5;"/><text fill="#000000" font-family="sans-serif" font-size="9" lengthAdjust="spacing" textLength="34" x="2016.2401" y="439.3377">CU-O16</text><text fill="#000000" font-family="sans-serif" font-size="9" lengthAdjust="spacing" textLength="62" x="2002.2401" y="452.658">Ver historial de</text><text fill="#000000" font-family="sans-serif" font-size="9" lengthAdjust="spacing" textLength="36" x="2015.2401" y="465.9783">entregas</text></g><g id="elem_UC_O1"><ellipse cx="1151.9533" cy="283.9754" fill="#FFFFFF" rx="77.9533" ry="31.2566" style="stroke:#666666;stroke-width:0.5;"/><text fill="#000000" font-family="sans-serif" font-size="9" lengthAdjust="spacing" textLength="34" x="1134.9533" y="272.3377">CU-O17</text><text fill="#000000" font-family="sans-serif" font-size="9" lengthAdjust="spacing" textLength="92" x="1105.9533" y="285.658">Endpoints de consulta</text><text fill="#000000" font-family="sans-serif" font-size="9" lengthAdjust="spacing" textLength="15" x="1144.4533" y="298.9783">API</text></g><g id="elem_UC_O2"><ellipse cx="1307.968" cy="283.9754" fill="#FFFFFF" rx="69.468" ry="31.2566" style="stroke:#666666;stroke-width:0.5;"/><text fill="#000000" font-family="sans-serif" font-size="9" lengthAdjust="spacing" textLength="34" x="1290.968" y="272.3377">CU-O18</text><text fill="#000000" font-family="sans-serif" font-size="9" lengthAdjust="spacing" textLength="80" x="1267.968" y="285.658">Ver historial de uso</text><text fill="#000000" font-family="sans-serif" font-size="9" lengthAdjust="spacing" textLength="28" x="1293.968" y="298.9783">de API</text></g><!--entity ADMIN--><g id="elem_ADMIN"><ellipse cx="1592" cy="78.2188" fill="#F1F1F1" rx="8" ry="8" style="stroke:#181818;stroke-width:0.5;"/><path d="M1592,86.2188 L1592,113.2188 M1579,94.2188 L1605,94.2188 M1592,113.2188 L1579,128.2188 M1592,113.2188 L1605,128.2188 " fill="none" style="stroke:#181818;stroke-width:0.5;"/><text fill="#000000" font-family="sans-serif" font-size="9" font-weight="bold" lengthAdjust="spacing" textLength="64" x="1560" y="140.0615">Administrador</text></g><!--entity ANALISTA--><g id="elem_ANALISTA"><ellipse cx="341" cy="72.2188" fill="#F1F1F1" rx="8" ry="8" style="stroke:#181818;stroke-width:0.5;"/><path d="M341,80.2188 L341,107.2188 M328,88.2188 L354,88.2188 M341,107.2188 L328,122.2188 M341,107.2188 L354,122.2188 " fill="none" style="stroke:#181818;stroke-width:0.5;"/><text fill="#000000" font-family="sans-serif" font-size="9" font-weight="bold" lengthAdjust="spacing" textLength="49" x="316.5" y="134.0615">Analista de</text><text fill="#000000" font-family="sans-serif" font-size="9" font-weight="bold" lengthAdjust="spacing" textLength="26" x="328" y="145.3818">Datos</text></g><!--entity SOCIO--><g id="elem_SOCIO"><ellipse cx="1152" cy="72.2188" fill="#F1F1F1" rx="8" ry="8" style="stroke:#181818;stroke-width:0.5;"/><path d="M1152,80.2188 L1152,107.2188 M1139,88.2188 L1165,88.2188 M1152,107.2188 L1139,122.2188 M1152,107.2188 L1165,122.2188 " fill="none" style="stroke:#181818;stroke-width:0.5;"/><text fill="#000000" font-family="sans-serif" font-size="9" font-weight="bold" lengthAdjust="spacing" textLength="26" x="1139" y="134.0615">Socio</text><text fill="#000000" font-family="sans-serif" font-size="9" font-weight="bold" lengthAdjust="spacing" textLength="56" x="1124" y="145.3818">Tecnol&#243;gico</text></g><!--link ADMIN to UC_S1--><g id="link_ADMIN_UC_S1"><path d="M1561.81,142.9588 C1561.81,154.2288 1561.81,163.7188 1561.81,163.7188 C1561.81,163.7188 140.33,163.7188 140.33,163.7188 C140.33,163.7188 140.33,222.7088 140.33,257.2288 " fill="none" id="ADMIN-to-UC_S1" style="stroke:#000000;stroke-width:0.5;"/><polygon fill="#000000" points="140.33,263.2288,144.33,254.2288,140.33,258.2288,136.33,254.2288,140.33,263.2288" style="stroke:#000000;stroke-width:0.5;"/></g><!--link ADMIN to UC_S2--><g id="link_ADMIN_UC_S2"><path d="M1567.44,142.8188 C1567.44,166.7987 1567.44,193.7188 1567.44,193.7188 C1567.44,193.7188 416,193.7188 416,193.7188 C416,193.7188 416,229.0487 416,255.8488 " fill="none" id="ADMIN-to-UC_S2" style="stroke:#000000;stroke-width:0.5;"/><polygon fill="#000000" points="416,261.8488,420,252.8488,416,256.8488,412,252.8488,416,261.8488" style="stroke:#000000;stroke-width:0.5;"/></g><!--link ADMIN to UC_S3--><g id="link_ADMIN_UC_S3"><path d="M1564.62,142.8888 C1564.62,160.8788 1564.62,178.7188 1564.62,178.7188 C1564.62,178.7188 340.17,178.7188 340.17,178.7188 C340.17,178.7188 340.17,239.0587 340.17,266.5288 " fill="none" id="ADMIN-to-UC_S3" style="stroke:#000000;stroke-width:0.5;"/><polygon fill="#000000" points="340.17,272.5288,344.17,263.5288,340.17,267.5288,336.17,263.5288,340.17,272.5288" style="stroke:#000000;stroke-width:0.5;"/></g><!--link ADMIN to UC_S4--><g id="link_ADMIN_UC_S4"><path d="M1570.25,142.9388 C1570.25,172.3488 1570.25,208.7188 1570.25,208.7188 C1570.25,208.7188 555,208.7188 555,208.7188 C555,208.7188 555,233.7088 555,255.9788 " fill="none" id="ADMIN-to-UC_S4" style="stroke:#000000;stroke-width:0.5;"/><polygon fill="#000000" points="555,261.9788,559,252.9788,555,256.9788,551,252.9788,555,261.9788" style="stroke:#000000;stroke-width:0.5;"/></g><!--link ADMIN to UC_P1--><g id="link_ADMIN_UC_P1"><path d="M1625.19,88.7188 C1724.91,88.7188 2015,88.7188 2015,88.7188 C2015,88.7188 2015,190.9788 2015,246.3687 " fill="none" id="ADMIN-to-UC_P1" style="stroke:#000000;stroke-width:0.5;"/><polygon fill="#000000" points="2015,252.3687,2019,243.3687,2015,247.3687,2011,243.3687,2015,252.3687" style="stroke:#000000;stroke-width:0.5;"/></g><!--link ADMIN to UC_P2--><g id="link_ADMIN_UC_P2"><path d="M1625.19,124.7188 C1692.77,124.7188 1840,124.7188 1840,124.7188 C1840,124.7188 1840,212.2188 1840,256.0388 " fill="none" id="ADMIN-to-UC_P2" style="stroke:#000000;stroke-width:0.5;"/><polygon fill="#000000" points="1840,262.0388,1844,253.0388,1840,257.0388,1836,253.0388,1840,262.0388" style="stroke:#000000;stroke-width:0.5;"/></g><!--link ADMIN to UC_P3--><g id="link_ADMIN_UC_P3"><path d="M1607.5,143.0988 C1607.5,179.7588 1607.5,228.6288 1607.5,257.9888 " fill="none" id="ADMIN-to-UC_P3" style="stroke:#000000;stroke-width:0.5;"/><polygon fill="#000000" points="1607.5,263.9888,1611.5,254.9887,1607.5,258.9888,1603.5,254.9887,1607.5,263.9888" style="stroke:#000000;stroke-width:0.5;"/></g><!--link ADMIN to UC_P4--><g id="link_ADMIN_UC_P4"><path d="M1578.69,143.0988 C1578.69,184.8488 1578.69,244.2288 1578.69,268.6188 " fill="none" id="ADMIN-to-UC_P4" style="stroke:#000000;stroke-width:0.5;"/><polygon fill="#000000" points="1578.69,274.6188,1582.69,265.6188,1578.69,269.6188,1574.69,265.6188,1578.69,274.6188" style="stroke:#000000;stroke-width:0.5;"/></g><!--link ADMIN to UC_M1--><g id="link_ADMIN_UC_M1"><path d="M1558.93,118.7188 C1515.04,118.7188 1443,118.7188 1443,118.7188 C1443,118.7188 1443,366.1588 1443,430.4988 " fill="none" id="ADMIN-to-UC_M1" style="stroke:#000000;stroke-width:0.5;"/><polygon fill="#000000" points="1443,436.4988,1447,427.4988,1443,431.4988,1439,427.4988,1443,436.4988" style="stroke:#000000;stroke-width:0.5;"/></g><!--link ADMIN to UC_M2--><g id="link_ADMIN_UC_M2"><path d="M1583.62,142.8087 C1583.62,214.2588 1583.62,364.4188 1583.62,422.6988 " fill="none" id="ADMIN-to-UC_M2" style="stroke:#000000;stroke-width:0.5;"/><polygon fill="#000000" points="1583.62,428.6988,1587.62,419.6988,1583.62,423.6988,1579.62,419.6988,1583.62,428.6988" style="stroke:#000000;stroke-width:0.5;"/></g><!--link ADMIN to UC_M3--><g id="link_ADMIN_UC_M3"><path d="M1585.75,142.7987 C1585.75,221.4788 1585.75,399.7188 1585.75,399.7188 C1585.75,399.7188 1676,399.7188 1676,399.7188 C1676,399.7188 1676,402.8887 1676,413.4788 " fill="none" id="ADMIN-to-UC_M3" style="stroke:#000000;stroke-width:0.5;"/><polygon fill="#000000" points="1676,419.4788,1680,410.4788,1676,414.4788,1672,410.4788,1676,419.4788" style="stroke:#000000;stroke-width:0.5;"/></g><!--link ADMIN to UC_A1--><g id="link_ADMIN_UC_A1"><path d="M1573.06,142.7487 C1573.06,177.2487 1573.06,223.7188 1573.06,223.7188 C1573.06,223.7188 793,223.7188 793,223.7188 C793,223.7188 793,231.9088 793,246.5487 " fill="none" id="ADMIN-to-UC_A1" style="stroke:#000000;stroke-width:0.5;"/><polygon fill="#000000" points="793,252.5487,797,243.5487,793,247.5487,789,243.5487,793,252.5487" style="stroke:#000000;stroke-width:0.5;"/></g><!--link ADMIN to UC_A2--><g id="link_ADMIN_UC_A2"><path d="M1575.88,142.7788 C1575.88,181.9987 1575.88,238.7188 1575.88,238.7188 C1575.88,238.7188 932,238.7188 932,238.7188 C932,238.7188 932,244.4488 932,255.9987 " fill="none" id="ADMIN-to-UC_A2" style="stroke:#000000;stroke-width:0.5;"/><polygon fill="#000000" points="932,261.9988,936,252.9987,932,256.9988,928,252.9987,932,261.9988" style="stroke:#000000;stroke-width:0.5;"/></g><!--link ADMIN to UC_L1--><g id="link_ADMIN_UC_L1"><path d="M1625.01,106.7188 C1711.17,106.7188 1936.25,106.7188 1936.25,106.7188 C1936.25,106.7188 1936.25,336.9788 1936.25,418.1888 " fill="none" id="ADMIN-to-UC_L1" style="stroke:#000000;stroke-width:0.5;"/><polygon fill="#000000" points="1936.25,424.1888,1940.25,415.1888,1936.25,419.1888,1932.25,415.1888,1936.25,424.1888" style="stroke:#000000;stroke-width:0.5;"/></g><!--link ADMIN to UC_L2--><g id="link_ADMIN_UC_L2"><path d="M1587.88,142.7888 C1587.88,212.5388 1587.88,357.7188 1587.88,357.7188 C1587.88,357.7188 2033,357.7188 2033,357.7188 C2033,357.7188 2033,386.4388 2033,413.5688 " fill="none" id="ADMIN-to-UC_L2" style="stroke:#000000;stroke-width:0.5;"/><polygon fill="#000000" points="2033,419.5688,2037,410.5688,2033,414.5688,2029,410.5688,2033,419.5688" style="stroke:#000000;stroke-width:0.5;"/></g><!--link ADMIN to UC_O2--><g id="link_ADMIN_UC_O2"><path d="M1558.87,94.7188 C1483.95,94.7188 1308,94.7188 1308,94.7188 C1308,94.7188 1308,192.5587 1308,246.4987 " fill="none" id="ADMIN-to-UC_O2" style="stroke:#000000;stroke-width:0.5;"/><polygon fill="#000000" points="1308,252.4987,1312,243.4987,1308,247.4987,1304,243.4987,1308,252.4987" style="stroke:#000000;stroke-width:0.5;"/></g><!--link ANALISTA to UC_S1--><g id="link_ANALISTA_UC_S1"><path d="M315.37,106.7188 C254.37,106.7188 105.67,106.7188 105.67,106.7188 C105.67,106.7188 105.67,210.1388 105.67,257.1588 " fill="none" id="ANALISTA-to-UC_S1" style="stroke:#000000;stroke-width:0.5;"/><polygon fill="#000000" points="105.67,263.1588,109.67,254.1588,105.67,258.1588,101.67,254.1588,105.67,263.1588" style="stroke:#000000;stroke-width:0.5;"/></g><!--link ANALISTA to UC_S2--><g id="link_ANALISTA_UC_S2"><path d="M355.17,148.9788 C355.17,201.7788 355.17,284.7188 355.17,284.7188 C355.17,284.7188 351.2,284.7188 354.5,284.7188 " fill="none" id="ANALISTA-to-UC_S2" style="stroke:#000000;stroke-width:0.5;"/><polygon fill="#000000" points="360.5,284.7188,351.5,280.7188,355.5,284.7188,351.5,288.7188,360.5,284.7188" style="stroke:#000000;stroke-width:0.5;"/></g><!--link ANALISTA to UC_S3--><g id="link_ANALISTA_UC_S3"><path d="M327.83,148.8588 C327.83,187.3188 327.83,235.8188 327.83,262.3988 " fill="none" id="ANALISTA-to-UC_S3" style="stroke:#000000;stroke-width:0.5;"/><polygon fill="#000000" points="327.83,268.3988,331.83,259.3988,327.83,263.3988,323.83,259.3988,327.83,268.3988" style="stroke:#000000;stroke-width:0.5;"/></g><!--link ANALISTA to UC_A1--><g id="link_ANALISTA_UC_A1"><path d="M357.83,148.8188 C357.83,193.6288 357.83,257.7188 357.83,257.7188 C357.83,257.7188 652.38,257.7188 753.93,257.7188 " fill="none" id="ANALISTA-to-UC_A1" style="stroke:#000000;stroke-width:0.5;"/><polygon fill="#000000" points="759.93,257.7188,750.93,253.7188,754.93,257.7188,750.93,261.7188,759.93,257.7188" style="stroke:#000000;stroke-width:0.5;"/></g><!--link SOCIO to UC_O1--><g id="link_SOCIO_UC_O1"><path d="M1152,148.8588 C1152,180.7387 1152,217.6388 1152,246.5188 " fill="none" id="SOCIO-to-UC_O1" style="stroke:#000000;stroke-width:0.5;"/><polygon fill="#000000" points="1152,252.5188,1156,243.5188,1152,247.5188,1148,243.5188,1152,252.5188" style="stroke:#000000;stroke-width:0.5;"/></g><!--link PK_SEG to PK_MOD--><!--link PK_PEL to PK_IA--><!--link PK_AUD to PK_CLI--><!--SRC=[hLTHRzis47xNhpYa3m42P8Zjj4q7R80YEvanApOgErin3mKhCZ8NcHH8Egqx5DYFsD_OKnxslloJ_P8TQLcM9GuRu2X06kdk8x-xx-x87iCt1pp1COHCoQaYwJs4WkHhmrCDV__sEzpm1vR3k62A6FuWqRDp0T5Cmrz_mcjOFZtILIxTMmz8QgHY6dqE8XCOMO2Hy44Q8vT0kMAfuL84WRxdeY2ABA50fYHZYLdd3AoTY2ndROTB_2TJSYLe97Efu8S5DputgIXJ6vSNFVUqdQwaC0d_pA1pzYz6n-Q3p6dDlj8i9Ne7lcZR_elargrEyfLxQauk-NwAEvEF855AVjoiUfaZawPfkk3flM1QmzbNBsj6okx8AZTsNJ-wvk0ulQdPz89G-P6B3Ev8hkl1LcBMmsqklNDgfEx5LMX_Qguv5yoi2mPIcOMi6OIaJBDYJn15n7tpMq4ejKGxRT4dfQdNZdhAFfamvvbOCc4WnLzCOMLpWmASd7YwxUJ4rszpOTkDQ6mnoc2cvQRluhBlWaDx3Hi_cexV3fA3czOL6Ho5TCa5rqQXlke8Y8Qm7mzlAZE6YrQ2qSn5dnYfDputuMYOJCEjMo9JZh5FMIfa_lIOyLGwlsGS3SVF47JoBfaEOhWSpsxwuTjt1mTVrID6-Fy6gGj7hxLXI_Wr202EuHGVkE8vWOxx6p-MTOO9OTbASKgemqs-VvyChX47-9JJ0OwYsUduh3CNGy5JJXHefldJet28MVG-wNZSktCHCQKytbsFTsykRfc2DJ3A3M8mc3kUGw5amMM5x7cGvnlaaXZ5FzjIHkYIwr9-Ypf7r9UW7lE45ynsBmn6qstOay786_RBkHZymjALOrN3pSMIY1N9RHUoxLuJNoPUpKKi1RSd6Ax1i4QfHA8vzCFh2kXBocjCeHGQUnvn2onkgJZ9NO4pImah6QTdjOGlEnURxEGoSssEWaWr5siSSnnf2rouWhVJ5AwePVtq1zacAPprVKdgTEjCSJF7aUp3SO_GavuEIZ_uLE0CBQ44ekIsGdIthEfLt6rLSOmZDvVGvoY7nhIGV4iv7difdxtPP0Pl5Il4M3rGqSqgjB4AyeXzpCySSpmSYAtS39Mr6ColOfaTLBiQZ3toTh2XRd5cKKHRCJBNXHPynnGJs6YxtNjjRJJkO4iFXk4sr67e5GSxvBkgUB0xAgGLAPNY0J-H_LeQTbeRHZct8BtTB1eDlRjXlrmpmMnEcC33TRCDPKjfHtTQdmGZNr9VRNHfbBimc5DIyHjrM_pSOCTvFnbMWsmSUHbYMmq4BIGctJL5MbRkN6p1kCFOn-sYpGqzf0qFwjWDko_FS9n4uvl1ZqFybRXHltS67doskFCJM-dRSeZlltSRxxt6-_d- -wI1dpJmamP-qi373NpSmCSDVDZm3nl-euPzrB2ZICylp-uE0kuAShX4vVMbhbBpKxVzgTVwXEbwzd1Toq7zAdLmlEuQLadq79n7P2rNvcl0wmGvN8_oVdJwqu9JoiJF-5yDSLeUCq5vYsWRXs5G7fvj6yxHu1y0]--></g></svg>