<?xml version="1.0" encoding="us-ascii" standalone="no"?><svg xmlns="http://www.w3.org/2000/svg" xmlns:xlink="http://www.w3.org/1999/xlink" contentStyleType="text/css" height="892px" preserveAspectRatio="none" style="width:2173px;height:892px;background:#FFFFFF;" version="1.1" viewBox="0 0 2173 892" width="2173px" zoomAndPan="magnify"><defs/><g><text fill="#000000" font-family="sans-serif" font-size="14" font-weight="bold" lengthAdjust="spacing" textLength="137" x="905.2813" y="25.5332">AeroTrack Analytics</text><text fill="#000000" font-family="sans-serif" font-size="14" font-weight="bold" lengthAdjust="spacing" textLength="207.4375" x="1046.2813" y="25.5332">&#8212; Diagrama de Componentes</text><!--cluster FE--><g id="cluster_FE"><path d="M1679.5,46.6094 L1711.5,46.6094 A3.75,3.75 0 0 1 1714,49.1094 L1721,64.6094 L1980.5,64.6094 A2.5,2.5 0 0 1 1983,67.1094 L1983,209.1094 A2.5,2.5 0 0 1 1980.5,211.6094 L1679.5,211.6094 A2.5,2.5 0 0 1 1677,209.1094 L1677,49.1094 A2.5,2.5 0 0 1 1679.5,46.6094 " fill="#FFFFFF" style="stroke:#333333;stroke-width:1.5;"/><line style="stroke:#333333;stroke-width:1.5;" x1="1677" x2="1721" y1="64.6094" y2="64.6094"/><text fill="#000000" font-family="sans-serif" font-size="7" font-weight="bold" lengthAdjust="spacing" textLength="29" x="1682" y="56.876">Frontend</text></g><!--cluster API--><g id="cluster_API"><path d="M8.5,251.6094 L52.5,251.6094 A3.75,3.75 0 0 1 55,254.1094 L62,269.6094 L2163.5,269.6094 A2.5,2.5 0 0 1 2166,272.1094 L2166,437.1094 A2.5,2.5 0 0 1 2163.5,439.6094 L8.5,439.6094 A2.5,2.5 0 0 1 6,437.1094 L6,254.1094 A2.5,2.5 0 0 1 8.5,251.6094 " fill="#FFFFFF" style="stroke:#333333;stroke-width:1.5;"/><line style="stroke:#333333;stroke-width:1.5;" x1="6" x2="62" y1="269.6094" y2="269.6094"/><text fill="#000000" font-family="sans-serif" font-size="7" font-weight="bold" lengthAdjust="spacing" textLength="41" x="11" y="261.876">FastAPI App</text></g><!--cluster S_API--><g id="cluster_S_API"><path d="M476.5,303.6094 L513.5,303.6094 A3.75,3.75 0 0 1 516,306.1094 L523,321.6094 L587.5,321.6094 A2.5,2.5 0 0 1 590,324.1094 L590,400.1094 A2.5,2.5 0 0 1 587.5,402.6094 L476.5,402.6094 A2.5,2.5 0 0 1 474,400.1094 L474,306.1094 A2.5,2.5 0 0 1 476.5,303.6094 " fill="#FFFFFF" style="stroke:#333333;stroke-width:1.5;"/><line style="stroke:#333333;stroke-width:1.5;" x1="474" x2="523" y1="321.6094" y2="321.6094"/><text fill="#000000" font-family="sans-serif" font-size="7" font-weight="bold" lengthAdjust="spacing" textLength="34" x="479" y="313.876">Seguridad</text></g><!--cluster P_API--><g id="cluster_P_API"><path d="M40.5,303.6094 L84.5,303.6094 A3.75,3.75 0 0 1 87,306.1094 L94,321.6094 L157.5,321.6094 A2.5,2.5 0 0 1 160,324.1094 L160,400.1094 A2.5,2.5 0 0 1 157.5,402.6094 L40.5,402.6094 A2.5,2.5 0 0 1 38,400.1094 L38,306.1094 A2.5,2.5 0 0 1 40.5,303.6094 " fill="#FFFFFF" style="stroke:#333333;stroke-width:1.5;"/><line style="stroke:#333333;stroke-width:1.5;" x1="38" x2="94" y1="321.6094" y2="321.6094"/><text fill="#000000" font-family="sans-serif" font-size="7" font-weight="bold" lengthAdjust="spacing" textLength="41" x="43" y="313.876">Pipeline ELT</text></g><!--cluster M_API--><g id="cluster_M_API"><path d="M780.5,303.6094 L849.5,303.6094 A3.75,3.75 0 0 1 852,306.1094 L859,321.6094 L895.5,321.6094 A2.5,2.5 0 0 1 898,324.1094 L898,400.1094 A2.5,2.5 0 0 1 895.5,402.6094 L780.5,402.6094 A2.5,2.5 0 0 1 778,400.1094 L778,306.1094 A2.5,2.5 0 0 1 780.5,303.6094 " fill="#FFFFFF" style="stroke:#333333;stroke-width:1.5;"/><line style="stroke:#333333;stroke-width:1.5;" x1="778" x2="859" y1="321.6094" y2="321.6094"/><text fill="#000000" font-family="sans-serif" font-size="7" font-weight="bold" lengthAdjust="spacing" textLength="66" x="783" y="313.876">Modelo Dimensional</text></g><!--cluster D_API--><g id="cluster_D_API"><path d="M924.5,303.6094 L963.5,303.6094 A3.75,3.75 0 0 1 966,306.1094 L973,321.6094 L1049.5,321.6094 A2.5,2.5 0 0 1 1052,324.1094 L1052,400.1094 A2.5,2.5 0 0 1 1049.5,402.6094 L924.5,402.6094 A2.5,2.5 0 0 1 922,400.1094 L922,306.1094 A2.5,2.5 0 0 1 924.5,303.6094 " fill="#FFFFFF" style="stroke:#333333;stroke-width:1.5;"/><line style="stroke:#333333;stroke-width:1.5;" x1="922" x2="973" y1="321.6094" y2="321.6094"/><text fill="#000000" font-family="sans-serif" font-size="7" font-weight="bold" lengthAdjust="spacing" textLength="36" x="927" y="313.876">Dashboard</text></g><!--cluster U_API--><g id="cluster_U_API"><path d="M1078.5,303.6094 L1120.5,303.6094 A3.75,3.75 0 0 1 1123,306.1094 L1130,321.6094 L1207.5,321.6094 A2.5,2.5 0 0 1 1210,324.1094 L1210,400.1094 A2.5,2.5 0 0 1 1207.5,402.6094 L1078.5,402.6094 A2.5,2.5 0 0 1 1076,400.1094 L1076,306.1094 A2.5,2.5 0 0 1 1078.5,303.6094 " fill="#FFFFFF" style="stroke:#333333;stroke-width:1.5;"/><line style="stroke:#333333;stroke-width:1.5;" x1="1076" x2="1130" y1="321.6094" y2="321.6094"/><text fill="#000000" font-family="sans-serif" font-size="7" font-weight="bold" lengthAdjust="spacing" textLength="39" x="1081" y="313.876">Puntualidad</text></g><!--cluster R_API--><g id="cluster_R_API"><path d="M1236.5,303.6094 L1258.5,303.6094 A3.75,3.75 0 0 1 1261,306.1094 L1268,321.6094 L1357.5,321.6094 A2.5,2.5 0 0 1 1360,324.1094 L1360,400.1094 A2.5,2.5 0 0 1 1357.5,402.6094 L1236.5,402.6094 A2.5,2.5 0 0 1 1234,400.1094 L1234,306.1094 A2.5,2.5 0 0 1 1236.5,303.6094 " fill="#FFFFFF" style="stroke:#333333;stroke-width:1.5;"/><line style="stroke:#333333;stroke-width:1.5;" x1="1234" x2="1268" y1="321.6094" y2="321.6094"/><text fill="#000000" font-family="sans-serif" font-size="7" font-weight="bold" lengthAdjust="spacing" textLength="19" x="1239" y="313.876">Rutas</text></g><!--cluster C_API--><g id="cluster_C_API"><path d="M1540.5,303.6094 L1592.5,303.6094 A3.75,3.75 0 0 1 1595,306.1094 L1602,321.6094 L1679.5,321.6094 A2.5,2.5 0 0 1 1682,324.1094 L1682,400.1094 A2.5,2.5 0 0 1 1679.5,402.6094 L1540.5,402.6094 A2.5,2.5 0 0 1 1538,400.1094 L1538,306.1094 A2.5,2.5 0 0 1 1540.5,303.6094 " fill="#FFFFFF" style="stroke:#333333;stroke-width:1.5;"/><line style="stroke:#333333;stroke-width:1.5;" x1="1538" x2="1602" y1="321.6094" y2="321.6094"/><text fill="#000000" font-family="sans-serif" font-size="7" font-weight="bold" lengthAdjust="spacing" textLength="49" x="1543" y="313.876">Cancelaciones</text></g><!--cluster E_API--><g id="cluster_E_API"><path d="M1708.5,298.6094 L1741.5,298.6094 A3.75,3.75 0 0 1 1744,301.1094 L1751,316.6094 L1825.5,316.6094 A2.5,2.5 0 0 1 1828,319.1094 L1828,405.1094 A2.5,2.5 0 0 1 1825.5,407.6094 L1708.5,407.6094 A2.5,2.5 0 0 1 1706,405.1094 L1706,301.1094 A2.5,2.5 0 0 1 1708.5,298.6094 " fill="#FFFFFF" style="stroke:#333333;stroke-width:1.5;"/><line style="stroke:#333333;stroke-width:1.5;" x1="1706" x2="1751" y1="316.6094" y2="316.6094"/><text fill="#000000" font-family="sans-serif" font-size="7" font-weight="bold" lengthAdjust="spacing" textLength="30" x="1711" y="308.876">Reportes</text></g><!--cluster F_API--><g id="cluster_F_API"><path d="M616.5,303.6094 L665.5,303.6094 A3.75,3.75 0 0 1 668,306.1094 L675,321.6094 L751.5,321.6094 A2.5,2.5 0 0 1 754,324.1094 L754,400.1094 A2.5,2.5 0 0 1 751.5,402.6094 L616.5,402.6094 A2.5,2.5 0 0 1 614,400.1094 L614,306.1094 A2.5,2.5 0 0 1 616.5,303.6094 " fill="#FFFFFF" style="stroke:#333333;stroke-width:1.5;"/><line style="stroke:#333333;stroke-width:1.5;" x1="614" x2="675" y1="321.6094" y2="321.6094"/><text fill="#000000" font-family="sans-serif" font-size="7" font-weight="bold" lengthAdjust="spacing" textLength="46" x="619" y="313.876">Configuraci&#243;n</text></g><!--cluster A_API--><g id="cluster_A_API"><path d="M186.5,303.6094 L219.5,303.6094 A3.75,3.75 0 0 1 222,306.1094 L229,321.6094 L305.5,321.6094 A2.5,2.5 0 0 1 308,324.1094 L308,400.1094 A2.5,2.5 0 0 1 305.5,402.6094 L186.5,402.6094 A2.5,2.5 0 0 1 184,400.1094 L184,306.1094 A2.5,2.5 0 0 1 186.5,303.6094 " fill="#FFFFFF" style="stroke:#333333;stroke-width:1.5;"/><line style="stroke:#333333;stroke-width:1.5;" x1="184" x2="229" y1="321.6094" y2="321.6094"/><text fill="#000000" font-family="sans-serif" font-size="7" font-weight="bold" lengthAdjust="spacing" textLength="30" x="189" y="313.876">Auditor&#237;a</text></g><!--cluster X_API--><g id="cluster_X_API"><path d="M1854.5,303.6094 L1892.5,303.6094 A3.75,3.75 0 0 1 1895,306.1094 L1902,321.6094 L1977.5,321.6094 A2.5,2.5 0 0 1 1980,324.1094 L1980,400.1094 A2.5,2.5 0 0 1 1977.5,402.6094 L1854.5,402.6094 A2.5,2.5 0 0 1 1852,400.1094 L1852,306.1094 A2.5,2.5 0 0 1 1854.5,303.6094 " fill="#FFFFFF" style="stroke:#333333;stroke-width:1.5;"/><line style="stroke:#333333;stroke-width:1.5;" x1="1852" x2="1902" y1="321.6094" y2="321.6094"/><text fill="#000000" font-family="sans-serif" font-size="7" font-weight="bold" lengthAdjust="spacing" textLength="35" x="1857" y="313.876">Predictivo</text></g><!--cluster I_API--><g id="cluster_I_API"><path d="M1386.5,303.6094 L1429.5,303.6094 A3.75,3.75 0 0 1 1432,306.1094 L1439,321.6094 L1511.5,321.6094 A2.5,2.5 0 0 1 1514,324.1094 L1514,400.1094 A2.5,2.5 0 0 1 1511.5,402.6094 L1386.5,402.6094 A2.5,2.5 0 0 1 1384,400.1094 L1384,306.1094 A2.5,2.5 0 0 1 1386.5,303.6094 " fill="#FFFFFF" style="stroke:#333333;stroke-width:1.5;"/><line style="stroke:#333333;stroke-width:1.5;" x1="1384" x2="1439" y1="321.6094" y2="321.6094"/><text fill="#000000" font-family="sans-serif" font-size="7" font-weight="bold" lengthAdjust="spacing" textLength="40" x="1389" y="313.876">Asistente IA</text></g><!--cluster L_API--><g id="cluster_L_API"><path d="M2006.5,303.6094 L2036.5,303.6094 A3.75,3.75 0 0 1 2039,306.1094 L2046,321.6094 L2123.5,321.6094 A2.5,2.5 0 0 1 2126,324.1094 L2126,400.1094 A2.5,2.5 0 0 1 2123.5,402.6094 L2006.5,402.6094 A2.5,2.5 0 0 1 2004,400.1094 L2004,306.1094 A2.5,2.5 0 0 1 2006.5,303.6094 " fill="#FFFFFF" style="stroke:#333333;stroke-width:1.5;"/><line style="stroke:#333333;stroke-width:1.5;" x1="2004" x2="2046" y1="321.6094" y2="321.6094"/><text fill="#000000" font-family="sans-serif" font-size="7" font-weight="bold" lengthAdjust="spacing" textLength="27" x="2009" y="313.876">Clientes</text></g><!--cluster O_API--><g id="cluster_O_API"><path d="M334.5,298.6094 L374.5,298.6094 A3.75,3.75 0 0 1 377,301.1094 L384,316.6094 L447.5,316.6094 A2.5,2.5 0 0 1 450,319.1094 L450,405.1094 A2.5,2.5 0 0 1 447.5,407.6094 L334.5,407.6094 A2.5,2.5 0 0 1 332,405.1094 L332,301.1094 A2.5,2.5 0 0 1 334.5,298.6094 " fill="#FFFFFF" style="stroke:#333333;stroke-width:1.5;"/><line style="stroke:#333333;stroke-width:1.5;" x1="332" x2="384" y1="316.6094" y2="316.6094"/><text fill="#000000" font-family="sans-serif" font-size="7" font-weight="bold" lengthAdjust="spacing" textLength="37" x="337" y="308.876">Socios API</text></g><!--cluster PB--><g id="cluster_PB"><path d="M611,489.6094 C611,479.6094 743,479.6094 743,479.6094 C743,479.6094 875,479.6094 875,489.6094 L875,619.6094 C875,629.6094 743,629.6094 743,629.6094 C743,629.6094 611,629.6094 611,619.6094 L611,489.6094 " fill="#FFFFFF" style="stroke:#333333;stroke-width:1.0;"/><path d="M611,489.6094 C611,499.6094 743,499.6094 743,499.6094 C743,499.6094 875,499.6094 875,489.6094 " fill="none" style="stroke:#333333;stroke-width:1.0;"/><text fill="#000000" font-family="sans-serif" font-size="7" font-weight="bold" lengthAdjust="spacing" textLength="40" x="723" y="509.876">PocketBase</text><text fill="#000000" font-family="sans-serif" font-size="7" font-weight="bold" lengthAdjust="spacing" textLength="19" x="733.5" y="519.876">:8090</text></g><!--cluster MIO--><g id="cluster_MIO"><path d="M1214,761.6094 C1214,751.6094 1377,751.6094 1377,751.6094 C1377,751.6094 1540,751.6094 1540,761.6094 L1540,865.6094 C1540,875.6094 1377,875.6094 1377,875.6094 C1377,875.6094 1214,875.6094 1214,865.6094 L1214,761.6094 " fill="#FFFFFF" style="stroke:#333333;stroke-width:1.0;"/><path d="M1214,761.6094 C1214,771.6094 1377,771.6094 1377,771.6094 C1377,771.6094 1540,771.6094 1540,761.6094 " fill="none" style="stroke:#333333;stroke-width:1.0;"/><text fill="#000000" font-family="sans-serif" font-size="7" font-weight="bold" lengthAdjust="spacing" textLength="18" x="1368" y="781.876">MinIO</text><text fill="#000000" font-family="sans-serif" font-size="7" font-weight="bold" lengthAdjust="spacing" textLength="19" x="1367.5" y="791.876">:9000</text></g><!--cluster PG--><g id="cluster_PG"><path d="M449,771.6094 C449,761.6094 501,761.6094 501,761.6094 C501,761.6094 553,761.6094 553,771.6094 L553,865.6094 C553,875.6094 501,875.6094 501,875.6094 C501,875.6094 449,875.6094 449,865.6094 L449,771.6094 " fill="#FFFFFF" style="stroke:#333333;stroke-width:1.0;"/><path d="M449,771.6094 C449,781.6094 501,781.6094 501,781.6094 C501,781.6094 553,781.6094 553,771.6094 " fill="none" style="stroke:#333333;stroke-width:1.0;"/><text fill="#000000" font-family="sans-serif" font-size="7" font-weight="bold" lengthAdjust="spacing" textLength="40" x="481" y="791.876">PostgreSQL</text></g><!--cluster AF--><g id="cluster_AF"><path d="M441.5,514.6094 L494.5,514.6094 A3.75,3.75 0 0 1 497,517.1094 L504,532.6094 L568.5,532.6094 A2.5,2.5 0 0 1 571,535.1094 L571,717.1094 A2.5,2.5 0 0 1 568.5,719.6094 L441.5,719.6094 A2.5,2.5 0 0 1 439,717.1094 L439,517.1094 A2.5,2.5 0 0 1 441.5,514.6094 " fill="#FFFFFF" style="stroke:#333333;stroke-width:1.5;"/><line style="stroke:#333333;stroke-width:1.5;" x1="439" x2="504" y1="532.6094" y2="532.6094"/><text fill="#000000" font-family="sans-serif" font-size="7" font-weight="bold" lengthAdjust="spacing" textLength="50" x="444" y="524.876">Apache Airflow</text></g><!--entity TPL--><g id="elem_TPL"><rect fill="#FFFFFF" height="52" rx="2.5" ry="2.5" style="stroke:#333333;stroke-width:0.5;" width="77" x="1742.5" y="135.6094"/><rect fill="#FFFFFF" height="10" style="stroke:#333333;stroke-width:0.5;" width="15" x="1799.5" y="140.6094"/><rect fill="#FFFFFF" height="2" style="stroke:#333333;stroke-width:0.5;" width="4" x="1797.5" y="142.6094"/><rect fill="#FFFFFF" height="2" style="stroke:#333333;stroke-width:0.5;" width="4" x="1797.5" y="146.6094"/><text fill="#000000" font-family="sans-serif" font-size="7" lengthAdjust="spacing" textLength="20" x="1758.5" y="163.876">Jinja2</text><text fill="#000000" font-family="sans-serif" font-size="7" lengthAdjust="spacing" textLength="35" x="1758.5" y="173.876">Templates</text></g><!--entity BS--><g id="elem_BS"><rect fill="#FFFFFF" height="42" rx="2.5" ry="2.5" style="stroke:#333333;stroke-width:0.5;" width="85" x="1779.5" y="85.6094"/><rect fill="#FFFFFF" height="10" style="stroke:#333333;stroke-width:0.5;" width="15" x="1844.5" y="90.6094"/><rect fill="#FFFFFF" height="2" style="stroke:#333333;stroke-width:0.5;" width="4" x="1842.5" y="92.6094"/><rect fill="#FFFFFF" height="2" style="stroke:#333333;stroke-width:0.5;" width="4" x="1842.5" y="96.6094"/><text fill="#000000" font-family="sans-serif" font-size="7" lengthAdjust="spacing" textLength="43" x="1795.5" y="113.876">Bootstrap 5.3</text></g><!--entity PLOT--><g id="elem_PLOT"><rect fill="#FFFFFF" height="42" rx="2.5" ry="2.5" style="stroke:#333333;stroke-width:0.5;" width="68" x="1701" y="85.6094"/><rect fill="#FFFFFF" height="10" style="stroke:#333333;stroke-width:0.5;" width="15" x="1749" y="90.6094"/><rect fill="#FFFFFF" height="2" style="stroke:#333333;stroke-width:0.5;" width="4" x="1747" y="92.6094"/><rect fill="#FFFFFF" height="2" style="stroke:#333333;stroke-width:0.5;" width="4" x="1747" y="96.6094"/><text fill="#000000" font-family="sans-serif" font-size="7" lengthAdjust="spacing" textLength="26" x="1717" y="113.876">Plotly.js</text></g><!--entity JS--><g id="elem_JS"><rect fill="#FFFFFF" height="42" rx="2.5" ry="2.5" style="stroke:#333333;stroke-width:0.5;" width="76" x="1875" y="85.6094"/><rect fill="#FFFFFF" height="10" style="stroke:#333333;stroke-width:0.5;" width="15" x="1931" y="90.6094"/><rect fill="#FFFFFF" height="2" style="stroke:#333333;stroke-width:0.5;" width="4" x="1929" y="92.6094"/><rect fill="#FFFFFF" height="2" style="stroke:#333333;stroke-width:0.5;" width="4" x="1929" y="96.6094"/><text fill="#000000" font-family="sans-serif" font-size="7" lengthAdjust="spacing" textLength="34" x="1891" y="113.876">Vanilla JS</text></g><!--entity R_SEG--><g id="elem_R_SEG"><rect fill="#FFFFFF" height="52" rx="2.5" ry="2.5" style="stroke:#333333;stroke-width:0.5;" width="84" x="490" y="334.6094"/><rect fill="#FFFFFF" height="10" style="stroke:#333333;stroke-width:0.5;" width="15" x="554" y="339.6094"/><rect fill="#FFFFFF" height="2" style="stroke:#333333;stroke-width:0.5;" width="4" x="552" y="341.6094"/><rect fill="#FFFFFF" height="2" style="stroke:#333333;stroke-width:0.5;" width="4" x="552" y="345.6094"/><text fill="#000000" font-family="sans-serif" font-size="7" lengthAdjust="spacing" textLength="36" x="506" y="362.876">auth_router</text><text fill="#000000" font-family="sans-serif" font-size="7" lengthAdjust="spacing" textLength="42" x="506" y="372.876">JWT &#183; RBAC</text></g><!--entity R_PEL--><g id="elem_R_PEL"><rect fill="#FFFFFF" height="52" rx="2.5" ry="2.5" style="stroke:#333333;stroke-width:0.5;" width="90" x="54" y="334.6094"/><rect fill="#FFFFFF" height="10" style="stroke:#333333;stroke-width:0.5;" width="15" x="124" y="339.6094"/><rect fill="#FFFFFF" height="2" style="stroke:#333333;stroke-width:0.5;" width="4" x="122" y="341.6094"/><rect fill="#FFFFFF" height="2" style="stroke:#333333;stroke-width:0.5;" width="4" x="122" y="345.6094"/><text fill="#000000" font-family="sans-serif" font-size="7" lengthAdjust="spacing" textLength="48" x="70" y="362.876">pipeline_router</text><text fill="#000000" font-family="sans-serif" font-size="7" lengthAdjust="spacing" textLength="43" x="70" y="372.876">Airflow Client</text></g><!--entity R_MOD--><g id="elem_R_MOD"><rect fill="#FFFFFF" height="52" rx="2.5" ry="2.5" style="stroke:#333333;stroke-width:0.5;" width="88" x="794" y="334.6094"/><rect fill="#FFFFFF" height="10" style="stroke:#333333;stroke-width:0.5;" width="15" x="862" y="339.6094"/><rect fill="#FFFFFF" height="2" style="stroke:#333333;stroke-width:0.5;" width="4" x="860" y="341.6094"/><rect fill="#FFFFFF" height="2" style="stroke:#333333;stroke-width:0.5;" width="4" x="860" y="345.6094"/><text fill="#000000" font-family="sans-serif" font-size="7" lengthAdjust="spacing" textLength="46" x="810" y="362.876">modelo_router</text><text fill="#000000" font-family="sans-serif" font-size="7" lengthAdjust="spacing" textLength="46" x="810" y="372.876">read_parquet()</text></g><!--entity R_DSH--><g id="elem_R_DSH"><rect fill="#FFFFFF" height="52" rx="2.5" ry="2.5" style="stroke:#333333;stroke-width:0.5;" width="98" x="938" y="334.6094"/><rect fill="#FFFFFF" height="10" style="stroke:#333333;stroke-width:0.5;" width="15" x="1016" y="339.6094"/><rect fill="#FFFFFF" height="2" style="stroke:#333333;stroke-width:0.5;" width="4" x="1014" y="341.6094"/><rect fill="#FFFFFF" height="2" style="stroke:#333333;stroke-width:0.5;" width="4" x="1014" y="345.6094"/><text fill="#000000" font-family="sans-serif" font-size="7" lengthAdjust="spacing" textLength="56" x="954" y="362.876">dashboard_router</text><text fill="#000000" font-family="sans-serif" font-size="7" lengthAdjust="spacing" textLength="41" x="954" y="372.876">KPIs Engine</text></g><!--entity R_PUN--><g id="elem_R_PUN"><rect fill="#FFFFFF" height="52" rx="2.5" ry="2.5" style="stroke:#333333;stroke-width:0.5;" width="102" x="1092" y="334.6094"/><rect fill="#FFFFFF" height="10" style="stroke:#333333;stroke-width:0.5;" width="15" x="1174" y="339.6094"/><rect fill="#FFFFFF" height="2" style="stroke:#333333;stroke-width:0.5;" width="4" x="1172" y="341.6094"/><rect fill="#FFFFFF" height="2" style="stroke:#333333;stroke-width:0.5;" width="4" x="1172" y="345.6094"/><text fill="#000000" font-family="sans-serif" font-size="7" lengthAdjust="spacing" textLength="60" x="1108" y="362.876">puntualidad_router</text><text fill="#000000" font-family="sans-serif" font-size="7" lengthAdjust="spacing" textLength="45" x="1108" y="372.876">OTP Analysis</text></g><!--entity R_RUT--><g id="elem_R_RUT"><rect fill="#FFFFFF" height="52" rx="2.5" ry="2.5" style="stroke:#333333;stroke-width:0.5;" width="93" x="1250.5" y="334.6094"/><rect fill="#FFFFFF" height="10" style="stroke:#333333;stroke-width:0.5;" width="15" x="1323.5" y="339.6094"/><rect fill="#FFFFFF" height="2" style="stroke:#333333;stroke-width:0.5;" width="4" x="1321.5" y="341.6094"/><rect fill="#FFFFFF" height="2" style="stroke:#333333;stroke-width:0.5;" width="4" x="1321.5" y="345.6094"/><text fill="#000000" font-family="sans-serif" font-size="7" lengthAdjust="spacing" textLength="38" x="1266.5" y="362.876">rutas_router</text><text fill="#000000" font-family="sans-serif" font-size="7" lengthAdjust="spacing" textLength="51" x="1266.5" y="372.876">Efficiency Index</text></g><!--entity R_CAN--><g id="elem_R_CAN"><rect fill="#FFFFFF" height="52" rx="2.5" ry="2.5" style="stroke:#333333;stroke-width:0.5;" width="112" x="1554" y="334.6094"/><rect fill="#FFFFFF" height="10" style="stroke:#333333;stroke-width:0.5;" width="15" x="1646" y="339.6094"/><rect fill="#FFFFFF" height="2" style="stroke:#333333;stroke-width:0.5;" width="4" x="1644" y="341.6094"/><rect fill="#FFFFFF" height="2" style="stroke:#333333;stroke-width:0.5;" width="4" x="1644" y="345.6094"/><text fill="#000000" font-family="sans-serif" font-size="7" lengthAdjust="spacing" textLength="70" x="1570" y="362.876">cancelaciones_router</text><text fill="#000000" font-family="sans-serif" font-size="7" lengthAdjust="spacing" textLength="43" x="1570" y="372.876">FAA Decoder</text></g><!--entity R_REP--><g id="elem_R_REP"><rect fill="#FFFFFF" height="62" rx="2.5" ry="2.5" style="stroke:#333333;stroke-width:0.5;" width="90" x="1722" y="329.6094"/><rect fill="#FFFFFF" height="10" style="stroke:#333333;stroke-width:0.5;" width="15" x="1792" y="334.6094"/><rect fill="#FFFFFF" height="2" style="stroke:#333333;stroke-width:0.5;" width="4" x="1790" y="336.6094"/><rect fill="#FFFFFF" height="2" style="stroke:#333333;stroke-width:0.5;" width="4" x="1790" y="340.6094"/><text fill="#000000" font-family="sans-serif" font-size="7" lengthAdjust="spacing" textLength="48" x="1738" y="357.876">reportes_router</text><text fill="#000000" font-family="sans-serif" font-size="7" lengthAdjust="spacing" textLength="37" x="1738" y="367.876">WeasyPrint</text><text fill="#000000" font-family="sans-serif" font-size="7" lengthAdjust="spacing" textLength="28" x="1738" y="377.876">openpyxl</text></g><!--entity R_CFG--><g id="elem_R_CFG"><rect fill="#FFFFFF" height="52" rx="2.5" ry="2.5" style="stroke:#333333;stroke-width:0.5;" width="108" x="630" y="334.6094"/><rect fill="#FFFFFF" height="10" style="stroke:#333333;stroke-width:0.5;" width="15" x="718" y="339.6094"/><rect fill="#FFFFFF" height="2" style="stroke:#333333;stroke-width:0.5;" width="4" x="716" y="341.6094"/><rect fill="#FFFFFF" height="2" style="stroke:#333333;stroke-width:0.5;" width="4" x="716" y="345.6094"/><text fill="#000000" font-family="sans-serif" font-size="7" lengthAdjust="spacing" textLength="66" x="646" y="362.876">configuracion_router</text><text fill="#000000" font-family="sans-serif" font-size="7" lengthAdjust="spacing" textLength="44" x="646" y="372.876">Config Cache</text></g><!--entity R_AUD--><g id="elem_R_AUD"><rect fill="#FFFFFF" height="52" rx="2.5" ry="2.5" style="stroke:#333333;stroke-width:0.5;" width="92" x="200" y="334.6094"/><rect fill="#FFFFFF" height="10" style="stroke:#333333;stroke-width:0.5;" width="15" x="272" y="339.6094"/><rect fill="#FFFFFF" height="2" style="stroke:#333333;stroke-width:0.5;" width="4" x="270" y="341.6094"/><rect fill="#FFFFFF" height="2" style="stroke:#333333;stroke-width:0.5;" width="4" x="270" y="345.6094"/><text fill="#000000" font-family="sans-serif" font-size="7" lengthAdjust="spacing" textLength="50" x="216" y="362.876">auditoria_router</text><text fill="#000000" font-family="sans-serif" font-size="7" lengthAdjust="spacing" textLength="42" x="216" y="372.876">INSERT-only</text></g><!--entity R_PRE--><g id="elem_R_PRE"><rect fill="#FFFFFF" height="52" rx="2.5" ry="2.5" style="stroke:#333333;stroke-width:0.5;" width="95" x="1868.5" y="334.6094"/><rect fill="#FFFFFF" height="10" style="stroke:#333333;stroke-width:0.5;" width="15" x="1943.5" y="339.6094"/><rect fill="#FFFFFF" height="2" style="stroke:#333333;stroke-width:0.5;" width="4" x="1941.5" y="341.6094"/><rect fill="#FFFFFF" height="2" style="stroke:#333333;stroke-width:0.5;" width="4" x="1941.5" y="345.6094"/><text fill="#000000" font-family="sans-serif" font-size="7" lengthAdjust="spacing" textLength="53" x="1884.5" y="362.876">predictivo_router</text><text fill="#000000" font-family="sans-serif" font-size="7" lengthAdjust="spacing" textLength="40" x="1884.5" y="372.876">Holt-Winters</text></g><!--entity R_IA--><g id="elem_R_IA"><rect fill="#FFFFFF" height="52" rx="2.5" ry="2.5" style="stroke:#333333;stroke-width:0.5;" width="97" x="1400.5" y="334.6094"/><rect fill="#FFFFFF" height="10" style="stroke:#333333;stroke-width:0.5;" width="15" x="1477.5" y="339.6094"/><rect fill="#FFFFFF" height="2" style="stroke:#333333;stroke-width:0.5;" width="4" x="1475.5" y="341.6094"/><rect fill="#FFFFFF" height="2" style="stroke:#333333;stroke-width:0.5;" width="4" x="1475.5" y="345.6094"/><text fill="#000000" font-family="sans-serif" font-size="7" lengthAdjust="spacing" textLength="28" x="1416.5" y="362.876">ia_router</text><text fill="#000000" font-family="sans-serif" font-size="7" lengthAdjust="spacing" textLength="55" x="1416.5" y="372.876">RAG &#183; LLM Client</text></g><!--entity R_CLI--><g id="elem_R_CLI"><rect fill="#FFFFFF" height="52" rx="2.5" ry="2.5" style="stroke:#333333;stroke-width:0.5;" width="90" x="2020" y="334.6094"/><rect fill="#FFFFFF" height="10" style="stroke:#333333;stroke-width:0.5;" width="15" x="2090" y="339.6094"/><rect fill="#FFFFFF" height="2" style="stroke:#333333;stroke-width:0.5;" width="4" x="2088" y="341.6094"/><rect fill="#FFFFFF" height="2" style="stroke:#333333;stroke-width:0.5;" width="4" x="2088" y="345.6094"/><text fill="#000000" font-family="sans-serif" font-size="7" lengthAdjust="spacing" textLength="48" x="2036" y="362.876">clientes_router</text><text fill="#000000" font-family="sans-serif" font-size="7" lengthAdjust="spacing" textLength="33" x="2036" y="372.876">Scheduler</text></g><!--entity R_SOC--><g id="elem_R_SOC"><rect fill="#FFFFFF" height="62" rx="2.5" ry="2.5" style="stroke:#333333;stroke-width:0.5;" width="86" x="348" y="329.6094"/><rect fill="#FFFFFF" height="10" style="stroke:#333333;stroke-width:0.5;" width="15" x="414" y="334.6094"/><rect fill="#FFFFFF" height="2" style="stroke:#333333;stroke-width:0.5;" width="4" x="412" y="336.6094"/><rect fill="#FFFFFF" height="2" style="stroke:#333333;stroke-width:0.5;" width="4" x="412" y="340.6094"/><text fill="#000000" font-family="sans-serif" font-size="7" lengthAdjust="spacing" textLength="44" x="364" y="357.876">socios_router</text><text fill="#000000" font-family="sans-serif" font-size="7" lengthAdjust="spacing" textLength="43" x="364" y="367.876">API Key Auth</text><text fill="#000000" font-family="sans-serif" font-size="7" lengthAdjust="spacing" textLength="34" x="364" y="377.876">Webhooks</text></g><!--entity PB1--><g id="elem_PB1"><rect fill="#FFFFFF" height="52" rx="2.5" ry="2.5" style="stroke:#333333;stroke-width:0.5;" width="98" x="635" y="548.6094"/><rect fill="#FFFFFF" height="10" style="stroke:#333333;stroke-width:0.5;" width="15" x="713" y="553.6094"/><rect fill="#FFFFFF" height="2" style="stroke:#333333;stroke-width:0.5;" width="4" x="711" y="555.6094"/><rect fill="#FFFFFF" height="2" style="stroke:#333333;stroke-width:0.5;" width="4" x="711" y="559.6094"/><text fill="#000000" font-family="sans-serif" font-size="7" lengthAdjust="spacing" textLength="56" x="651" y="576.876">app_users &#183; roles</text><text fill="#000000" font-family="sans-serif" font-size="7" lengthAdjust="spacing" textLength="56" x="651" y="586.876">permisos &#183; config</text></g><!--entity PB2--><g id="elem_PB2"><rect fill="#FFFFFF" height="62" rx="2.5" ry="2.5" style="stroke:#333333;stroke-width:0.5;" width="100" x="743" y="543.6094"/><rect fill="#FFFFFF" height="10" style="stroke:#333333;stroke-width:0.5;" width="15" x="823" y="548.6094"/><rect fill="#FFFFFF" height="2" style="stroke:#333333;stroke-width:0.5;" width="4" x="821" y="550.6094"/><rect fill="#FFFFFF" height="2" style="stroke:#333333;stroke-width:0.5;" width="4" x="821" y="554.6094"/><text fill="#000000" font-family="sans-serif" font-size="7" lengthAdjust="spacing" textLength="28" x="759" y="571.876">auditoria</text><text fill="#000000" font-family="sans-serif" font-size="7" lengthAdjust="spacing" textLength="51" x="759" y="581.876">conversaciones</text><text fill="#000000" font-family="sans-serif" font-size="7" lengthAdjust="spacing" textLength="58" x="759" y="591.876">asistente_fuentes</text></g><!--entity RAW--><g id="elem_RAW"><rect fill="#FFFFFF" height="42" rx="2.5" ry="2.5" style="stroke:#333333;stroke-width:0.5;" width="84" x="1230" y="812.6094"/><rect fill="#FFFFFF" height="10" style="stroke:#333333;stroke-width:0.5;" width="15" x="1294" y="817.6094"/><rect fill="#FFFFFF" height="2" style="stroke:#333333;stroke-width:0.5;" width="4" x="1292" y="819.6094"/><rect fill="#FFFFFF" height="2" style="stroke:#333333;stroke-width:0.5;" width="4" x="1292" y="823.6094"/><text fill="#000000" font-family="sans-serif" font-size="7" lengthAdjust="spacing" textLength="42" x="1246" y="840.876">aerotrack-raw</text></g><!--entity DIMS--><g id="elem_DIMS"><rect fill="#FFFFFF" height="52" rx="2.5" ry="2.5" style="stroke:#333333;stroke-width:0.5;" width="94" x="1324" y="807.6094"/><rect fill="#FFFFFF" height="10" style="stroke:#333333;stroke-width:0.5;" width="15" x="1398" y="812.6094"/><rect fill="#FFFFFF" height="2" style="stroke:#333333;stroke-width:0.5;" width="4" x="1396" y="814.6094"/><rect fill="#FFFFFF" height="2" style="stroke:#333333;stroke-width:0.5;" width="4" x="1396" y="818.6094"/><text fill="#000000" font-family="sans-serif" font-size="7" lengthAdjust="spacing" textLength="47" x="1340" y="835.876">aerotrack-dims</text><text fill="#000000" font-family="sans-serif" font-size="7" lengthAdjust="spacing" textLength="52" x="1340" y="845.876">fact + dim + agg</text></g><!--entity EXP--><g id="elem_EXP"><rect fill="#FFFFFF" height="42" rx="2.5" ry="2.5" style="stroke:#333333;stroke-width:0.5;" width="96" x="1428" y="812.6094"/><rect fill="#FFFFFF" height="10" style="stroke:#333333;stroke-width:0.5;" width="15" x="1504" y="817.6094"/><rect fill="#FFFFFF" height="2" style="stroke:#333333;stroke-width:0.5;" width="4" x="1502" y="819.6094"/><rect fill="#FFFFFF" height="2" style="stroke:#333333;stroke-width:0.5;" width="4" x="1502" y="823.6094"/><text fill="#000000" font-family="sans-serif" font-size="7" lengthAdjust="spacing" textLength="54" x="1444" y="840.876">aerotrack-exports</text></g><!--entity PG1--><g id="elem_PG1"><rect fill="#FFFFFF" height="52" rx="2.5" ry="2.5" style="stroke:#333333;stroke-width:0.5;" width="71" x="465.5" y="807.6094"/><rect fill="#FFFFFF" height="10" style="stroke:#333333;stroke-width:0.5;" width="15" x="516.5" y="812.6094"/><rect fill="#FFFFFF" height="2" style="stroke:#333333;stroke-width:0.5;" width="4" x="514.5" y="814.6094"/><rect fill="#FFFFFF" height="2" style="stroke:#333333;stroke-width:0.5;" width="4" x="514.5" y="818.6094"/><text fill="#000000" font-family="sans-serif" font-size="7" lengthAdjust="spacing" textLength="22" x="481.5" y="835.876">Airflow</text><text fill="#000000" font-family="sans-serif" font-size="7" lengthAdjust="spacing" textLength="29" x="481.5" y="845.876">Metadata</text></g><!--entity DAG--><g id="elem_DAG"><rect fill="#FFFFFF" height="42" rx="2.5" ry="2.5" style="stroke:#333333;stroke-width:0.5;" width="75" x="463.5" y="653.6094"/><rect fill="#FFFFFF" height="10" style="stroke:#333333;stroke-width:0.5;" width="15" x="518.5" y="658.6094"/><rect fill="#FFFFFF" height="2" style="stroke:#333333;stroke-width:0.5;" width="4" x="516.5" y="660.6094"/><rect fill="#FFFFFF" height="2" style="stroke:#333333;stroke-width:0.5;" width="4" x="516.5" y="664.6094"/><text fill="#000000" font-family="sans-serif" font-size="7" lengthAdjust="spacing" textLength="33" x="479.5" y="681.876">DAG: ETL</text></g><!--entity SCH--><g id="elem_SCH"><rect fill="#FFFFFF" height="42" rx="2.5" ry="2.5" style="stroke:#333333;stroke-width:0.5;" width="75" x="463.5" y="553.6094"/><rect fill="#FFFFFF" height="10" style="stroke:#333333;stroke-width:0.5;" width="15" x="518.5" y="558.6094"/><rect fill="#FFFFFF" height="2" style="stroke:#333333;stroke-width:0.5;" width="4" x="516.5" y="560.6094"/><rect fill="#FFFFFF" height="2" style="stroke:#333333;stroke-width:0.5;" width="4" x="516.5" y="564.6094"/><text fill="#000000" font-family="sans-serif" font-size="7" lengthAdjust="spacing" textLength="33" x="479.5" y="581.876">Scheduler</text></g><!--entity BTS--><g id="elem_BTS"><rect fill="#FFFFFF" height="42" rx="2.5" ry="2.5" style="stroke:#333333;stroke-width:0.5;" width="73" x="341.5" y="553.6094"/><rect fill="#FFFFFF" height="10" style="stroke:#333333;stroke-width:0.5;" width="15" x="394.5" y="558.6094"/><rect fill="#FFFFFF" height="2" style="stroke:#333333;stroke-width:0.5;" width="4" x="392.5" y="560.6094"/><rect fill="#FFFFFF" height="2" style="stroke:#333333;stroke-width:0.5;" width="4" x="392.5" y="564.6094"/><text fill="#000000" font-family="sans-serif" font-size="7" lengthAdjust="spacing" textLength="31" x="357.5" y="581.876">BTS/FAA</text></g><!--entity EXT_LLM--><g id="elem_EXT_LLM"><rect fill="#FFFFFF" height="42" rx="2.5" ry="2.5" style="stroke:#333333;stroke-width:0.5;" width="83" x="2007.5" y="85.6094"/><rect fill="#FFFFFF" height="10" style="stroke:#333333;stroke-width:0.5;" width="15" x="2070.5" y="90.6094"/><rect fill="#FFFFFF" height="2" style="stroke:#333333;stroke-width:0.5;" width="4" x="2068.5" y="92.6094"/><rect fill="#FFFFFF" height="2" style="stroke:#333333;stroke-width:0.5;" width="4" x="2068.5" y="96.6094"/><text fill="#000000" font-family="sans-serif" font-size="7" lengthAdjust="spacing" textLength="41" x="2023.5" y="113.876">LLM Provider</text></g><!--entity EXT_SOC--><g id="elem_EXT_SOC"><rect fill="#FFFFFF" height="42" rx="2.5" ry="2.5" style="stroke:#333333;stroke-width:0.5;" width="75" x="353.5" y="140.6094"/><rect fill="#FFFFFF" height="10" style="stroke:#333333;stroke-width:0.5;" width="15" x="408.5" y="145.6094"/><rect fill="#FFFFFF" height="2" style="stroke:#333333;stroke-width:0.5;" width="4" x="406.5" y="147.6094"/><rect fill="#FFFFFF" height="2" style="stroke:#333333;stroke-width:0.5;" width="4" x="406.5" y="151.6094"/><text fill="#000000" font-family="sans-serif" font-size="7" lengthAdjust="spacing" textLength="33" x="369.5" y="168.876">Socio API</text></g><!--entity LLM--><g id="elem_LLM"><ellipse cx="1449" cy="161.6094" fill="#FFFFFF" rx="8" ry="8" style="stroke:#666666;stroke-width:0.5;"/><text fill="#000000" font-family="sans-serif" font-size="7" lengthAdjust="spacing" textLength="13" x="1442.5" y="186.876">LLM</text></g><!--link TPL to R_SEG--><g id="link_TPL_R_SEG"><path d="M1777.25,187.8594 C1777.25,216.5894 1777.25,258.6094 1777.25,258.6094 C1777.25,258.6094 532,258.6094 532,258.6094 C532,258.6094 532,298.3894 532,328.6094 " fill="none" id="TPL-to-R_SEG" style="stroke:#000000;stroke-width:0.6;"/><polygon fill="#000000" points="532,334.6094,536,325.6094,532,329.6094,528,325.6094,532,334.6094" style="stroke:#000000;stroke-width:0.6;"/></g><!--link BS to TPL--><g id="link_BS_TPL"><path d="M1799.5,127.7194 C1799.5,130.2594 1799.5,126.8794 1799.5,129.4894 " fill="none" id="BS-to-TPL" style="stroke:#000000;stroke-width:0.6;"/><polygon fill="#000000" points="1799.5,135.4894,1803.5,126.4894,1799.5,130.4894,1795.5,126.4894,1799.5,135.4894" style="stroke:#000000;stroke-width:0.6;"/></g><!--link PLOT to TPL--><g id="link_PLOT_TPL"><path d="M1755.75,127.7194 C1755.75,130.2594 1755.75,126.8794 1755.75,129.4894 " fill="none" id="PLOT-to-TPL" style="stroke:#000000;stroke-width:0.6;"/><polygon fill="#000000" points="1755.75,135.4894,1759.75,126.4894,1755.75,130.4894,1751.75,126.4894,1755.75,135.4894" style="stroke:#000000;stroke-width:0.6;"/></g><!--link JS to TPL--><g id="link_JS_TPL"><path d="M1913,127.7194 C1913,143.2294 1913,161.6094 1913,161.6094 C1913,161.6094 1864.5,161.6094 1825.53,161.6094 " fill="none" id="JS-to-TPL" style="stroke:#000000;stroke-width:0.6;"/><polygon fill="#000000" points="1819.53,161.6094,1828.53,165.6094,1824.53,161.6094,1828.53,157.6094,1819.53,161.6094" style="stroke:#000000;stroke-width:0.6;"/></g><!--link R_SEG to PB1--><g id="link_R_SEG_PB1"><path d="M569,386.7294 C569,441.5594 569,563.6094 569,563.6094 C569,563.6094 597.64,563.6094 628.9,563.6094 " fill="none" id="R_SEG-to-PB1" style="stroke:#000000;stroke-width:0.6;"/><polygon fill="#000000" points="634.9,563.6094,625.9,559.6094,629.9,563.6094,625.9,567.6094,634.9,563.6094" style="stroke:#000000;stroke-width:0.6;"/></g><!--link R_PEL to SCH--><g id="link_R_PEL_SCH"><path d="M99,386.8594 C99,434.1094 99,528.6094 99,528.6094 C99,528.6094 476.75,528.6094 476.75,528.6094 C476.75,528.6094 476.75,535.3994 476.75,547.4894 " fill="none" id="R_PEL-to-SCH" style="stroke:#000000;stroke-width:0.6;"/><polygon fill="#000000" points="476.75,553.4894,480.75,544.4894,476.75,548.4894,472.75,544.4894,476.75,553.4894" style="stroke:#000000;stroke-width:0.6;"/></g><!--link R_MOD to DIMS--><g id="link_R_MOD_DIMS"><path d="M875,386.8894 C875,426.9294 875,498.6094 875,498.6094 C875,498.6094 1330.5,498.6094 1330.5,498.6094 C1330.5,498.6094 1330.5,722.8894 1330.5,801.5994 " fill="none" id="R_MOD-to-DIMS" style="stroke:#000000;stroke-width:0.6;"/><polygon fill="#000000" points="1330.5,807.5994,1334.5,798.5994,1330.5,802.5994,1326.5,798.5994,1330.5,807.5994" style="stroke:#000000;stroke-width:0.6;"/></g><!--link R_DSH to DIMS--><g id="link_R_DSH_DIMS"><path d="M987,386.6994 C987,422.7994 987,483.6094 987,483.6094 C987,483.6094 1333.75,483.6094 1333.75,483.6094 C1333.75,483.6094 1333.75,720.4794 1333.75,801.5894 " fill="none" id="R_DSH-to-DIMS" style="stroke:#000000;stroke-width:0.6;"/><polygon fill="#000000" points="1333.75,807.5894,1337.75,798.5894,1333.75,802.5894,1329.75,798.5894,1333.75,807.5894" style="stroke:#000000;stroke-width:0.6;"/></g><!--link R_PUN to DIMS--><g id="link_R_PUN_DIMS"><path d="M1143,386.7894 C1143,418.4594 1143,467.6094 1143,467.6094 C1143,467.6094 1337,467.6094 1337,467.6094 C1337,467.6094 1337,717.9694 1337,801.5794 " fill="none" id="R_PUN-to-DIMS" style="stroke:#000000;stroke-width:0.6;"/><polygon fill="#000000" points="1337,807.5794,1341,798.5794,1337,802.5794,1333,798.5794,1337,807.5794" style="stroke:#000000;stroke-width:0.6;"/></g><!--link R_RUT to DIMS--><g id="link_R_RUT_DIMS"><path d="M1340.25,386.7094 C1340.25,469.4094 1340.25,718.9994 1340.25,801.5894 " fill="none" id="R_RUT-to-DIMS" style="stroke:#000000;stroke-width:0.6;"/><polygon fill="#000000" points="1340.25,807.5894,1344.25,798.5894,1340.25,802.5894,1336.25,798.5894,1340.25,807.5894" style="stroke:#000000;stroke-width:0.6;"/></g><!--link R_CAN to DIMS--><g id="link_R_CAN_DIMS"><path d="M1610,386.8994 C1610,403.7994 1610,422.6094 1610,422.6094 C1610,422.6094 1409.25,422.6094 1409.25,422.6094 C1409.25,422.6094 1409.25,711.2394 1409.25,801.5894 " fill="none" id="R_CAN-to-DIMS" style="stroke:#000000;stroke-width:0.6;"/><polygon fill="#000000" points="1409.25,807.5894,1413.25,798.5894,1409.25,802.5894,1405.25,798.5894,1409.25,807.5894" style="stroke:#000000;stroke-width:0.6;"/></g><!--link R_REP to DIMS--><g id="link_R_REP_DIMS"><path d="M1752,391.9294 C1752,413.2494 1752,437.6094 1752,437.6094 C1752,437.6094 1412.17,437.6094 1412.17,437.6094 C1412.17,437.6094 1412.17,712.8794 1412.17,801.3194 " fill="none" id="R_REP-to-DIMS" style="stroke:#000000;stroke-width:0.6;"/><polygon fill="#000000" points="1412.17,807.3194,1416.17,798.3194,1412.17,802.3194,1408.17,798.3194,1412.17,807.3194" style="stroke:#000000;stroke-width:0.6;"/></g><!--link R_REP to EXP--><g id="link_R_REP_EXP"><path d="M1782,391.9094 C1782,496.3894 1782,826.6094 1782,826.6094 C1782,826.6094 1616.32,826.6094 1530.15,826.6094 " fill="none" id="R_REP-to-EXP" style="stroke:#000000;stroke-width:0.6;"/><polygon fill="#000000" points="1524.15,826.6094,1533.15,830.6094,1529.15,826.6094,1533.15,822.6094,1524.15,826.6094" style="stroke:#000000;stroke-width:0.6;"/></g><!--link R_CFG to PB1--><g id="link_R_CFG_PB1"><path d="M700.33,386.8494 C700.33,428.0294 700.33,501.3794 700.33,542.4894 " fill="none" id="R_CFG-to-PB1" style="stroke:#000000;stroke-width:0.6;"/><polygon fill="#000000" points="700.33,548.4894,704.33,539.4894,700.33,543.4894,696.33,539.4894,700.33,548.4894" style="stroke:#000000;stroke-width:0.6;"/></g><!--link R_AUD to PB2--><g id="link_R_AUD_PB2"><path d="M246,386.8594 C246,397.6194 246,407.6094 246,407.6094 C246,407.6094 768.5,407.6094 768.5,407.6094 C768.5,407.6094 768.5,489.2894 768.5,537.5894 " fill="none" id="R_AUD-to-PB2" style="stroke:#000000;stroke-width:0.6;"/><polygon fill="#000000" points="768.5,543.5894,772.5,534.5894,768.5,538.5894,764.5,534.5894,768.5,543.5894" style="stroke:#000000;stroke-width:0.6;"/></g><!--link R_PRE to DIMS--><g id="link_R_PRE_DIMS"><path d="M1916,386.7294 C1916,413.9294 1916,452.6094 1916,452.6094 C1916,452.6094 1415.08,452.6094 1415.08,452.6094 C1415.08,452.6094 1415.08,715.3394 1415.08,801.4194 " fill="none" id="R_PRE-to-DIMS" style="stroke:#000000;stroke-width:0.6;"/><polygon fill="#000000" points="1415.08,807.4194,1419.08,798.4194,1415.08,802.4194,1411.08,798.4194,1415.08,807.4194" style="stroke:#000000;stroke-width:0.6;"/></g><!--link R_IA to DIMS--><g id="link_R_IA_DIMS"><path d="M1406.33,386.7094 C1406.33,469.4094 1406.33,718.9994 1406.33,801.5894 " fill="none" id="R_IA-to-DIMS" style="stroke:#000000;stroke-width:0.6;"/><polygon fill="#000000" points="1406.33,807.5894,1410.33,798.5894,1406.33,802.5894,1402.33,798.5894,1406.33,807.5894" style="stroke:#000000;stroke-width:0.6;"/></g><!--link R_IA to PB2--><g id="link_R_IA_PB2"><path d="M1403.42,386.8994 C1403.42,440.7594 1403.42,558.6094 1403.42,558.6094 C1403.42,558.6094 995.23,558.6094 849.21,558.6094 " fill="none" id="R_IA-to-PB2" style="stroke:#000000;stroke-width:0.6;"/><polygon fill="#000000" points="843.21,558.6094,852.21,562.6094,848.21,558.6094,852.21,554.6094,843.21,558.6094" style="stroke:#000000;stroke-width:0.6;"/></g><!--link R_CLI to EXP--><g id="link_R_CLI_EXP"><path d="M2065,386.7594 C2065,486.9194 2065,840.6094 2065,840.6094 C2065,840.6094 1670.87,840.6094 1530.2,840.6094 " fill="none" id="R_CLI-to-EXP" style="stroke:#000000;stroke-width:0.6;"/><polygon fill="#000000" points="1524.2,840.6094,1533.2,844.6094,1529.2,840.6094,1533.2,836.6094,1524.2,840.6094" style="stroke:#000000;stroke-width:0.6;"/></g><!--link R_SOC to PB1--><g id="link_R_SOC_PB1"><path d="M424.25,391.9394 C424.25,436.6994 424.25,513.6094 424.25,513.6094 C424.25,513.6094 667.67,513.6094 667.67,513.6094 C667.67,513.6094 667.67,525.8494 667.67,542.3894 " fill="none" id="R_SOC-to-PB1" style="stroke:#000000;stroke-width:0.6;"/><polygon fill="#000000" points="667.67,548.3894,671.67,539.3894,667.67,543.3894,663.67,539.3894,667.67,548.3894" style="stroke:#000000;stroke-width:0.6;"/></g><!--link DAG to RAW--><g id="link_DAG_RAW"><path d="M538.68,681.6094 C689.32,681.6094 1240.25,681.6094 1240.25,681.6094 C1240.25,681.6094 1240.25,764.7094 1240.25,806.4794 " fill="none" id="DAG-to-RAW" style="stroke:#000000;stroke-width:0.6;"/><polygon fill="#000000" points="1240.25,812.4794,1244.25,803.4794,1240.25,807.4794,1236.25,803.4794,1240.25,812.4794" style="stroke:#000000;stroke-width:0.6;"/></g><!--link DAG to DIMS--><g id="link_DAG_DIMS"><path d="M538.65,667.6094 C700.29,667.6094 1327.25,667.6094 1327.25,667.6094 C1327.25,667.6094 1327.25,754.4994 1327.25,801.3094 " fill="none" id="DAG-to-DIMS" style="stroke:#000000;stroke-width:0.6;"/><polygon fill="#000000" points="1327.25,807.3094,1331.25,798.3094,1327.25,802.3094,1323.25,798.3094,1327.25,807.3094" style="stroke:#000000;stroke-width:0.6;"/></g><!--link SCH to DAG--><g id="link_SCH_DAG"><path d="M501,595.8194 C501,612.7894 501,630.4694 501,647.4294 " fill="none" id="SCH-to-DAG" style="stroke:#000000;stroke-width:0.6;"/><polygon fill="#000000" points="501,653.4294,505,644.4294,501,648.4294,497,644.4294,501,653.4294" style="stroke:#000000;stroke-width:0.6;"/></g><!--link DAG to PG1--><g id="link_DAG_PG1"><path d="M501,695.7194 C501,724.5294 501,770.1294 501,801.3794 " fill="none" id="DAG-to-PG1" style="stroke:#000000;stroke-width:0.6;"/><polygon fill="#000000" points="501,807.3794,505,798.3794,501,802.3794,497,798.3794,501,807.3794" style="stroke:#000000;stroke-width:0.6;"/></g><!--link BTS to DAG--><g id="link_BTS_DAG"><path d="M378,595.8194 C378,625.1694 378,674.6094 378,674.6094 C378,674.6094 421.26,674.6094 457.43,674.6094 " fill="none" id="BTS-to-DAG" style="stroke:#000000;stroke-width:0.6;"/><polygon fill="#000000" points="463.43,674.6094,454.43,670.6094,458.43,674.6094,454.43,678.6094,463.43,674.6094" style="stroke:#000000;stroke-width:0.6;"/></g><!--link LLM to R_IA--><g id="link_LLM_R_IA"><path d="M1449,170.6794 C1449,199.4194 1449,283.2494 1449,328.2994 " fill="none" id="LLM-to-R_IA" style="stroke:#000000;stroke-width:0.6;"/><polygon fill="#000000" points="1449,334.2994,1453,325.2994,1449,329.2994,1445,325.2994,1449,334.2994" style="stroke:#000000;stroke-width:0.6;"/></g><!--link EXT_SOC to R_SOC--><g id="link_EXT_SOC_R_SOC"><path d="M391,182.9094 C391,218.0994 391,282.5594 391,323.3894 " fill="none" id="EXT_SOC-to-R_SOC" style="stroke:#000000;stroke-width:0.6;"/><polygon fill="#000000" points="391,329.3894,395,320.3894,391,324.3894,387,320.3894,391,329.3894" style="stroke:#000000;stroke-width:0.6;"/></g><!--link FE to API--><!--link API to PB--><!--link PB to AF--><!--SRC=[hLTBRkCs6Dxx5CHqCMqAJ_D0ssI05f1bEL763zLIcYdgmc0askPO9bMAIk8E1kYg1oXwZQwwwBvpapb9VvAIB4VopCBsmZ3vV_pVBpz7t-tnQJr75X4y43XS8elXU2rfcA8Fl_-5kXJF1LvX515ayrN26M6IfF1YBu4joHCaERhZKl8LYgWWeQISjLhfah84WqWK5k9ykOu9obRnQHEr0qhF1SzOPFEO2tIxe98q0hc8Y32WpyxqfmdMuo2H_aRGUOLAmMWnmo7vbBGDi2hj6_sfm19WW-UVv5R0Fgfv3YhrljX1qrwyut5KeMCX-8DXt8a1-vGKB6YuP2HDqV6BgluHcU4irhvgVbq1QAM-hT3I1Oxu0sLpDCDnMhKtfep8TK8G5tB1AmJ68vAI19qSLou5PajrURvbS1GfpYTr9tWvwGooZqhmnT5HGzOV7Nqqx_TD_EUeDnuD0sVOtRk4ShFGivu0BnCMFKCuHJq7lMsXJJgZPzUKlS6d4nQGLH9ZC4BZ0g-_3UjmBbCfS8A-Vd6c8Hr_6-75NCRh5syC0wy_2hRfFs96unYZQry3hltMkqFuo_83otEHvNawCZqA8auEw3sSIiq_IRJQwlVR5bXM8dmopmIDi76mFpK8XBQCnvbSJA6KeVmdxFesGF_zYyOTozPlnbFVkOGNxxRuUZGXAkEHqm-CIvjP9pckP6zHCOlv0x9Z2e1SWkVqQn86K3OnXsHU4PP2UyMn1W-QvQmqkfGY28wcK46_PaH-_aKkPJ3grgHqSRguurWO_tIRcKS5gEJ_odDJvB0vM9Opx_fNTITbJ6OuBjr_iyD76rWfO1HufgvJcXPEkXdM98mpYGjw8s-X02LNPpQZ8VWzN2ENHUGnVpc-2MgSRSn20eqHF9zNdTqi8Qm2Iqazoq9T4a9KH2x4jXhK9mbqovo_iyE275EolYKuNNi2fjM4yOImPFqO5uOuNjqGpcOKYW0qVFyFCtrcXoKR96UbEFCUsJXS5B6sU_M2iBA8IYxU_urD9UwgD8sYk6Jl3drd7BGvYzT576_gQUe94b7OCkwv1htUaKWbgcH_nMFPljMJlSoZiLFN7j9CgYc1N4l3t6O95SN7rgNg4_t-OBkMNQiU0atFmzpVuVmSK_BtmTzH5c_of-_M6FiSGgNRdWQDcbcd6hNfG81vHTR8WgwdikbkmVcoS8u_ihMKGtJ_hXLOg6_zv8ptxlWHblWEfoeJUBWai3YcPC9UdXzV79lkstawEN6IJBCKegw297XCqWbBY5ZHbEiha-pvuvDMSvPE6C3kWKbUtXE6YqIPph9DJBtEgVBOHii1PUu85BmuFZOA3jnHJKDOOAHQODe2FnZtMxUx815TWNHOJYNw4bRk5NpZkL6_wmxyNS_8eseUUNzvxMqhwV5KpWNnV-WR8owVQfZFgWaR48dLknntSf3q68tjAySFnbRWZeQ7smciH7KgbEjkcb7lgMLTw_8bSW9ZE1osgTkbvzjN1x7NUHquuw7LtzlKwk8N-5_1g34hN-1NIQenUOBVqs84WVmfN5Onkd-KxKC1LFtlRwez6WuTMyNLDtjVlkMY3t_ygSJjxGBOW56x_Ns-d7LyVL1hiTfioyFrvlxmDgasgipfGbtiRO-sGokhcf5U2FL9vPvUtFH9LxfUjQf7s8kgHrXcgaTOExQeZjTqLBr1p_MA3Z27yzDfIq_DwaFNQZWP90og2az8g9BduODGhE5x1m1wW4aeQC75RsqSHC0Se4aK1DK1eThA-vQgDPEECFtpCYhoyo05rSThcDvxMmb_CDi_BsWK4VOB_8rdRLsCAfEVN7kT5epKfzXUwty0]--></g></svg>